<?xml version="1.0" encoding="UTF-8" standalone="no"?>
<svg
   xmlns:dc="http://purl.org/dc/elements/1.1/"
   xmlns:cc="http://creativecommons.org/ns#"
   xmlns:rdf="http://www.w3.org/1999/02/22-rdf-syntax-ns#"
   xmlns:svg="http://www.w3.org/2000/svg"
   xmlns="http://www.w3.org/2000/svg"
   id="svg8"
   version="1.1"
   viewBox="0 0 256 256">
  <defs
     id="defs2" />
  <metadata
     id="metadata5">
    <rdf:RDF>
      <cc:Work
         rdf:about="">
        <dc:format>image/svg+xml</dc:format>
        <dc:type
           rdf:resource="http://purl.org/dc/dcmitype/StillImage" />
        <dc:title></dc:title>
      </cc:Work>
    </rdf:RDF>
  </metadata>
  <g
     transform="translate(0,-229.26665)"
     id="layer1">
    <g
       transform="matrix(1.5149836,0,0,1.5149836,-70.649572,-122.82562)"
       id="g910">
      <path
         style="opacity:1;fill:#ff2a2a;fill-opacity:1;stroke:#ff2a2a;stroke-width:0.523;stroke-miterlimit:4;stroke-dasharray:none;stroke-opacity:1"
         d="m 155.80263,163.43755 c 0,-0.29295 0.23735,-2.82235 0.52744,-5.62088 1.78634,-17.23289 3.53494,-25.78888 7.36396,-36.03226 0.99542,-2.66295 2.19419,-5.17857 2.46774,-5.17857 0.0971,0 0.17658,0.0296 0.17658,0.0658 0,0.0362 -0.56706,2.46698 -1.26012,5.40179 -4.68196,19.82593 -6.38812,29.50762 -6.42969,36.48554 -0.0147,2.46978 -0.24367,4.8018 -0.49623,5.05436 -0.11083,0.11083 -0.68484,0.23647 -1.27559,0.2792 l -1.07409,0.0777 z"
         id="path899"
         transform="translate(0,229.26665)" />
      <path
         style="opacity:1;fill:#ff2a2a;fill-opacity:1;stroke:#ff2a2a;stroke-width:0.523;stroke-miterlimit:4;stroke-dasharray:none;stroke-opacity:1"
         d="m 139.01794,13.66209 c -0.25506,-0.670859 -0.49175,-2.413488 -0.63096,-4.6455384 -0.0674,-1.0803571 -0.19366,-2.0984752 -0.28063,-2.2624846 -0.17732,-0.3344054 -0.81675,-0.5650294 -2.393,-0.863085 -1.7974,-0.3398718 -1.83927,-0.3610382 -1.2868,-0.6505096 0.72941,-0.3821721 5.01443,-0.6532376 8.72201,-0.551744 3.62883,0.099338 4.6503,0.3162866 2.99815,0.6367765 -0.53299,0.1033918 -1.55504,0.2660088 -2.27122,0.3613711 -0.71617,0.095362 -1.42517,0.2754969 -1.57555,0.4002991 -0.54342,0.4510026 -0.94325,1.564876 -1.21689,3.3901531 -0.43484,2.9005168 -0.84172,4.0813548 -1.53396,4.4518298 -0.30361,0.162492 -0.38301,0.122569 -0.53115,-0.267068 z"
         id="path895"
         transform="translate(0,229.26665)" />
      <path
         style="fill:#ff5555;stroke-width:0.63058877"
         d="m 162.49733,347.08229 c 4.75694,-13.44036 4.69116,-8.82767 2.59872,-14.05998 -2.69178,-3.92106 -5.06865,-8.08143 -7.96508,-11.84696 -2.26607,-2.34479 -4.14314,-4.97996 -5.7821,-7.79289 -0.84542,-1.13617 -1.55348,-2.31212 -1.24554,-3.78235 0.0795,-3.73002 -0.35123,-7.51122 0.71994,-11.14179 0.50661,-3.02036 1.64275,-6.00353 1.01951,-9.09065 0.34215,-1.90757 -0.73118,-2.29251 -2.42867,-2.00606 -3.50704,-0.10043 -7.08273,0.0739 -10.54699,-0.19777 -3.17039,-1.57382 -6.27138,-3.42587 -9.48449,-4.82838 -5.79522,-0.0951 -11.59666,0.0344 -17.38487,-0.31338 1.04975,-1.16021 2.18411,-2.17482 3.80323,-2.35531 2.64717,-0.62253 5.20658,-1.85513 7.91401,-2.05881 3.16972,0.0574 6.38345,-0.11358 9.52609,0.0842 2.31372,0.8047 4.54316,2.06513 6.91063,2.57911 3.54138,-0.21435 7.19208,0.37229 10.59399,-0.86386 2.57721,-0.61527 5.14697,-1.24995 7.40726,-2.69044 1.9332,-1.05021 3.25456,-2.9841 4.79993,-4.52284 1.59458,-2.23023 3.4581,-4.34531 4.88619,-6.64681 0.40498,-2.81357 2.08349,-5.56502 2.31967,-8.39902 0.80299,2.49908 0.83381,4.97343 2.13196,7.16632 1.12342,2.4852 0.84678,4.706 2.0518,6.13034 -1.50911,4.08471 -3.1929,7.43285 -5.25798,11.25042 -1.39936,2.03523 -1.3306,1.67687 -2.504,3.78714 -0.82582,2.83352 -3.16513,4.64888 -3.80586,5.53519 -1.22961,2.05981 -2.51602,3.61608 -3.89291,6.05968 -0.84309,1.97671 -2.35014,3.77247 -2.73805,5.87324 -1.03933,3.58489 -0.45653,6.49925 -0.47411,9.75669 1.75679,4.628 4.75965,8.60965 7.20299,12.75837 2.51617,3.4461 4.31183,6.34251 6.05316,10.28358 1.10473,2.20756 0.92627,1.47107 1.37879,3.18893 0.0206,2.45062 -3.02764,2.21777 -3.54544,4.34532 -0.0725,0.59465 -5.56037,12.56115 -5.75592,10.81185 z"
         id="path1731" />
      <path
         style="opacity:1;fill:#ff8080;fill-opacity:1;stroke:#ff8080;stroke-width:0.69099998;stroke-miterlimit:4;stroke-dasharray:none;stroke-opacity:1"
         d="m 119.16472,170.11187 c -2.29179,-0.24619 -4.29425,-0.45804 -4.44992,-0.47078 -0.16358,-0.0134 -0.35496,-0.79592 -0.45343,-1.85405 -0.7598,-8.1644 -1.22333,-11.39887 -3.95387,-27.58979 -3.27828,-19.4388 -3.84877,-21.48306 -7.50405,-26.88943 l -2.13826,-3.16261 1.78291,-3.40927 c 2.84683,-5.44367 4.6896,-10.625494 6.19675,-17.425129 1.14174,-5.151028 1.46933,-7.988953 1.6098,-13.945863 0.25715,-10.904198 -0.96642,-15.681507 -5.74213,-22.419628 -3.5659,-5.031174 -4.947153,-8.563773 -4.740986,-12.125192 0.08591,-1.484079 0.271326,-2.205391 0.831436,-3.234491 0.80347,-1.47625 3.68585,-5.348687 7.02236,-9.434454 l 2.20246,-2.697049 1.32233,-0.132828 c 0.72729,-0.07306 2.65118,-0.253051 4.27533,-0.39999 1.62415,-0.14694 3.28785,-0.334135 3.69713,-0.415989 l 0.74412,-0.148826 0.17888,1.541234 c 0.21083,1.816489 0.29955,1.844997 2.41638,0.776425 l 1.51508,-0.764807 -1.13726,-0.98429 -1.13726,-0.984289 2.07723,-0.691095 c 1.14248,-0.380102 2.84066,-1.005582 3.77373,-1.389955 l 1.69651,-0.698861 0.15407,0.929344 c 0.27066,1.632597 0.23469,1.612949 1.73691,0.948594 2.38065,-1.052835 2.32104,-0.956725 1.2138,-1.957052 l -0.9845,-0.889434 3.80935,-1.906395 c 4.67275,-2.338489 5.76764,-3.118862 6.55364,-4.671049 0.73268,-1.446879 1.42258,-3.6903769 1.42258,-4.6261014 0,-0.3744709 0.16544,-0.8181554 0.36764,-0.9859653 0.20219,-0.1678099 1.75568,-0.5862903 3.45218,-0.9299565 l 3.08455,-0.6248477 2.16679,2.1358803 c 1.19173,1.1747341 2.51275,2.3088066 2.9356,2.5201606 1.21941,0.609506 3.40816,1.088854 8.82764,1.933299 2.77792,0.432846 5.39169,0.873048 5.80837,0.978225 0.86417,0.218128 0.87492,0.307731 0.39836,3.321877 -0.16471,1.04172 -0.33774,4.280522 -0.38451,7.197337 -0.0825,5.14367 -0.10833,5.371714 -0.85826,7.576144 -0.42525,1.250064 -0.89822,2.761861 -1.05102,3.359548 -0.35742,1.397998 -4.81824,7.33593 -7.36274,9.800765 -2.25562,2.184993 -4.32376,3.279488 -8.25983,4.371241 -3.80616,1.055715 -6.2308,1.35544 -9.95299,1.23034 -3.01392,-0.101293 -3.15406,-0.132153 -5.99031,-1.319143 l -2.90419,-1.215425 -4.54568,-0.12257 c -5.16381,-0.139234 -5.95758,-0.03214 -11.20345,1.511618 -3.03228,0.892338 -3.81442,1.22555 -4.67877,1.993288 -0.57081,0.507014 -0.97372,0.987823 -0.89535,1.068466 0.0784,0.08065 4.05585,0.21839 8.83884,0.306099 l 8.69634,0.159471 4.67196,2.414878 4.67195,2.414881 6.06069,0.09091 c 4.68955,0.07034 6.13869,0.168916 6.40547,0.435702 0.24509,0.245088 0.34846,1.100596 0.35746,2.958535 0.0102,2.112186 -0.15145,3.316411 -0.84255,6.275545 -0.83018,3.554582 -0.85543,3.821076 -0.8623,9.101408 l -0.007,5.439609 1.89404,2.95954 c 1.04172,1.627747 2.78549,4.009717 3.87505,5.293265 3.46456,4.08138 10.51963,15.179696 10.51963,16.548396 0,0.14405 -0.86215,2.45113 -1.91588,5.12685 -1.41765,3.59981 -2.13849,5.87372 -2.77192,8.74411 -0.47083,2.13355 -1.24674,5.11297 -1.72424,6.62095 -1.83335,5.78976 -3.39267,14.15698 -5.06255,27.16526 -1.29631,10.09825 -1.8836,14.16626 -2.14405,14.8513 -0.22381,0.58867 -0.30066,0.60143 -4.60557,0.76472 -8.62447,0.32714 -24.48462,0.13649 -29.00042,-0.34861 z"
         id="path889"
         transform="translate(0,229.26665)" />
      <path
         style="opacity:1;fill:#ff2a2a;fill-opacity:1;stroke:#ff2a2a;stroke-width:1.82299995;stroke-miterlimit:4;stroke-dasharray:none;stroke-opacity:1"
         d="m 173.50683,35.3966 c -1.55489,-4.051015 -2.05561,-7.193384 -2.06941,-12.987191 -0.009,-3.882159 0.25736,-6.875 0.61246,-6.875 0.37144,0 1.47213,5.536191 2.05918,10.357143 0.35101,2.882572 0.57924,11.145075 0.31241,11.309985 -0.1025,0.06335 -0.49434,-0.709896 -0.91464,-1.804937 z"
         id="path897"
         transform="translate(0,229.26665)" />
      <path
         style="opacity:1;fill:#ff8080;fill-opacity:1;stroke:#ff8080;stroke-width:0.67500001;stroke-miterlimit:4;stroke-dasharray:none;stroke-opacity:1"
         d="m 110.60954,23.575352 c -0.29733,-0.205265 -0.15595,-0.829941 0.84681,-3.741543 1.56457,-4.542864 1.87565,-5.047621 3.24272,-5.26173 0.58609,-0.09179 2.59978,-0.555901 4.47487,-1.031353 4.31757,-1.09477 7.26401,-2.49807 10.21302,-4.8641625 1.23943,-0.9944401 2.48847,-1.8063619 2.77565,-1.8042707 0.28717,0.00209 0.97669,0.1675665 1.53228,0.3677226 0.55558,0.2001562 1.38192,0.3689084 1.83631,0.3750049 0.61477,0.00825 0.88465,0.1564785 1.05474,0.5792955 0.22104,0.5494553 1.09727,7.2783892 0.96326,7.3971372 -10.6999,27.532073 -9.29918,14.971335 -26.93966,7.983899 z"
         id="path891"
         transform="translate(0,229.26665)" />
      <path
         style="fill:#000000;stroke-width:0.58830565"
         d="m 118.03345,400.76365 c -2.57373,-0.29341 -4.74166,-0.5956 -4.8176,-0.67156 -0.076,-0.076 -0.55867,-4.10327 -1.07269,-8.94958 -0.51401,-4.84631 -1.47815,-11.72358 -2.14251,-15.28284 -0.66437,-3.55924 -1.8347,-10.46971 -2.60072,-15.35657 -1.60313,-10.22708 -2.79563,-13.80316 -5.84301,-17.52208 -2.467695,-3.01151 -2.449295,-3.42292 0.38169,-8.5317 1.98814,-3.58778 4.14245,-9.8487 5.83067,-16.94525 0.85537,-3.59559 1.14873,-6.95771 1.15499,-13.23687 0.0107,-10.78542 -1.1549,-15.41912 -5.29363,-21.043 -3.880242,-5.2726 -4.823222,-7.31324 -5.175678,-11.20013 -0.379417,-4.18419 0.378759,-5.87017 5.434628,-12.08532 2.79003,-3.42975 4.22862,-5.86166 5.37951,-9.09402 2.96859,-8.33749 2.84008,-8.13112 5.30999,-8.5267 2.96932,-0.47556 8.35175,-1.97796 10.18577,-2.84313 0.80497,-0.37975 2.58691,-1.80355 3.95984,-3.16402 1.37294,-1.36049 3.01335,-2.75037 3.6454,-3.08861 1.23593,-0.66146 14.60292,-0.85185 17.60812,-0.25082 1.13966,0.22793 1.96858,0.82903 2.21531,1.60647 1.04412,3.28971 2.60723,4.40857 7.89261,5.64942 2.82176,0.66247 5.92501,1.2045 6.89611,1.2045 3.95673,0 5.5417,0.68194 6.40894,2.75752 1.20688,2.88846 2.60412,13.69506 2.61332,20.21202 0.008,5.3326 -0.11275,5.877 -2.39555,10.84159 -1.32192,2.87489 -5.28887,9.52483 -8.81543,14.77765 -6.87121,10.23465 -8.253,13.43478 -8.253,19.1134 0,3.97003 1.2088,6.53393 7.50474,15.91788 2.29371,3.41872 4.93436,7.90982 5.86812,9.98018 l 1.69774,3.76435 -1.37321,2.02141 c -3.78073,5.56542 -11.25923,41.08154 -10.66087,50.62961 l 0.16604,2.6497 -2.14999,0.18023 c -2.10291,0.17628 -2.16061,0.24714 -2.63503,3.23568 l -0.48508,3.05545 -2.93729,0.38969 c -4.27532,0.56722 -28.02995,0.42926 -33.50225,-0.19455 z m 34.7111,-1.20364 c 0.22199,-0.22201 0.78027,-3.52751 1.24059,-7.34555 3.06725,-25.44066 4.99923,-34.49089 9.26379,-43.39566 1.45936,-3.04727 3.45845,-6.18116 4.68424,-7.34335 1.17613,-1.11505 2.13839,-2.38136 2.13839,-2.81399 0,-1.32382 -2.88713,-6.59165 -7.45764,-13.60713 -6.981,-10.71552 -7.43233,-11.8182 -7.12405,-17.40523 0.32109,-5.81939 1.34615,-7.99005 9.17525,-19.42976 3.09375,-4.5205 6.51584,-10.33134 7.60462,-12.91297 l 1.97962,-4.69388 -2.23597,-5.91281 c -2.13321,-5.64105 -2.22991,-6.19997 -2.10385,-12.15949 0.0727,-3.43568 0.39155,-6.92902 0.70863,-7.76301 0.56014,-1.47327 0.49787,-1.52627 -2.1912,-1.86526 -1.52223,-0.19189 -5.15034,-0.77308 -8.06245,-1.29153 -4.98701,-0.88784 -5.43465,-1.09061 -7.70188,-3.48874 l -2.40712,-2.54612 -3.623,0.67375 c -3.31966,0.61738 -3.6241,0.80055 -3.63593,2.18778 -0.007,0.83272 -0.49602,2.57741 -1.08644,3.87712 -0.96646,2.12747 -1.71312,2.6773 -7.48797,5.51399 -9.06106,4.45089 -13.52685,5.90069 -19.51346,6.33496 l -5.1385,0.37275 -4.41229,5.4716 c -2.42675,3.00939 -4.73126,6.21386 -5.12113,7.12108 -1.783925,4.15119 -0.17212,9.56625 4.75227,15.96587 4.42976,5.75682 5.99589,13.62763 5.08532,25.55719 -0.67495,8.8429 -3.66594,19.75954 -7.20578,26.29998 l -2.39389,4.42313 2.46401,3.51227 c 3.05491,4.35454 4.37068,8.65707 6.21238,20.3141 0.79238,5.01531 1.95611,11.89849 2.58608,15.29595 0.62997,3.39746 1.47532,9.40318 1.87854,13.34605 l 0.73314,7.16882 3.59374,0.33176 c 1.97655,0.18249 4.38794,0.42875 5.35866,0.54727 3.10184,0.37873 29.02379,0.0786 29.44328,-0.34094 z m 5.96743,-11.49427 c 0.15432,-7.06721 1.39708,-14.85618 4.57764,-28.69033 1.48632,-6.46492 2.85446,-12.25084 3.04029,-12.85762 0.20885,-0.68193 0.10388,-0.95858 -0.27489,-0.72449 -0.89619,0.55387 -4.06082,9.05288 -5.6848,15.26721 -1.62062,6.20145 -2.98044,14.64472 -4.01789,24.94744 l -0.72569,7.20674 1.48648,-0.002 c 1.46782,-0.002 1.48789,-0.066 1.59886,-5.14768 z m 15.45701,-133.0776 c -0.39205,-3.38355 -1.03811,-7.22224 -1.43571,-8.53044 l -0.72287,-2.37848 -0.43773,2.15888 c -0.87977,4.33909 -0.12262,13.45512 1.44766,17.42983 l 1.46351,3.70447 0.19898,-3.11616 c 0.10944,-1.7139 -0.12179,-5.88453 -0.51384,-9.2681 z m -49.97701,-3.72092 c 2.09865,-0.79024 6.02081,-2.54579 8.71588,-3.9012 l 4.90017,-2.46438 -0.34369,-2.17613 c -0.18902,-1.19688 -0.3987,-3.03653 -0.46592,-4.08813 -0.10101,-1.58078 -0.36206,-1.91199 -1.50654,-1.91199 -0.76138,0 -1.88137,-0.26601 -2.48888,-0.59115 -0.86417,-0.46248 -1.43155,-0.2881 -2.60701,0.80128 -3.12604,2.89712 -6.06598,4.46218 -10.58829,5.63666 -2.56859,0.66709 -5.1282,1.21288 -5.68801,1.21288 -0.73496,0 -1.38213,1.1037 -2.3285,3.97106 -0.72086,2.18409 -1.44876,4.34405 -1.61755,4.79993 -0.50897,1.37468 9.35272,0.468 14.01834,-1.28883 z m 16.90082,-11.9809 c 0.37928,-3.54257 0.97595,-4.32341 3.31243,-4.33486 1.01197,-0.005 2.23705,-0.26564 2.72241,-0.5793 1.11006,-0.71737 -10.92482,-0.73306 -12.64857,-0.0165 -0.96978,0.40314 -0.73709,0.56422 1.32369,0.91631 2.42069,0.41356 2.50031,0.49734 2.50031,2.63165 0,1.21247 0.16939,3.05151 0.37643,4.08673 0.33135,1.65679 0.48012,1.77855 1.24203,1.01663 0.4761,-0.47608 1.00317,-2.15039 1.17127,-3.72069 z"
         id="path885" />
      <path
         style="fill:none;stroke:#000000;stroke-width:1px;stroke-linecap:butt;stroke-linejoin:miter;stroke-opacity:1"
         d="m 118.08239,250.64304 1.95312,-1.07422 0.0427,3.06787 2.7893,2.40088 -2.05078,0.97656 -0.48828,-2.92969 z"
         id="path827" />
      <path
         style="fill:none;stroke:#000000;stroke-width:1px;stroke-linecap:butt;stroke-linejoin:miter;stroke-opacity:1"
         d="m 127.45226,246.6904 1.95312,-1.07422 0.0427,3.06787 2.7893,2.40088 -2.05078,0.97656 -0.48828,-2.92969 z"
         id="path827-8" />
    </g>
  </g>
</svg>
