<?xml version="1.0" encoding="UTF-8" standalone="no"?>
<!-- Created with Inkscape (http://www.inkscape.org/) -->

<svg
   xmlns:dc="http://purl.org/dc/elements/1.1/"
   xmlns:cc="http://creativecommons.org/ns#"
   xmlns:rdf="http://www.w3.org/1999/02/22-rdf-syntax-ns#"
   xmlns:svg="http://www.w3.org/2000/svg"
   xmlns="http://www.w3.org/2000/svg"
   xmlns:sodipodi="http://sodipodi.sourceforge.net/DTD/sodipodi-0.dtd"
   xmlns:inkscape="http://www.inkscape.org/namespaces/inkscape"
   viewBox="0 0 256 256"
   version="1.1"
   id="svg8"
   sodipodi:docname="torso_high_slit_cheongsam.svg"
   inkscape:version="0.92.3 (2405546, 2018-03-11)">
  <defs
     id="defs2" />
  <sodipodi:namedview
     id="base"
     pagecolor="#ffffff"
     bordercolor="#666666"
     borderopacity="1.0"
     inkscape:pageopacity="0.0"
     inkscape:pageshadow="2"
     inkscape:zoom="1.8101934"
     inkscape:cx="48.1681"
     inkscape:cy="115.89416"
     inkscape:document-units="px"
     inkscape:current-layer="layer1"
     showgrid="false"
     units="px"
     inkscape:window-width="1920"
     inkscape:window-height="1017"
     inkscape:window-x="1912"
     inkscape:window-y="-8"
     inkscape:window-maximized="1"
     objecttolerance="5"
     showguides="true"
     scale-x="3.77953"
     viewbox-width="256" />
  <metadata
     id="metadata5">
    <rdf:RDF>
      <cc:Work
         rdf:about="">
        <dc:format>image/svg+xml</dc:format>
        <dc:type
           rdf:resource="http://purl.org/dc/dcmitype/StillImage" />
        <dc:title />
      </cc:Work>
    </rdf:RDF>
  </metadata>
  <g
     inkscape:label="Ebene 1"
     inkscape:groupmode="layer"
     id="layer1"
     transform="translate(0,-229.26668)">
    <path
       style="opacity:1;fill:#ff8080;fill-opacity:1;stroke:#ff8080;stroke-width:0.75590551;stroke-miterlimit:4;stroke-dasharray:none;stroke-opacity:1"
       d="m 106.1076,253.15191 -3.72888,-0.15039 -0.19373,-3.17646 c -0.55005,-9.01899 -4.996279,-55.49727 -6.460496,-67.53422 -0.52638,-4.32724 -1.716924,-10.73713 -4.687428,-25.23714 -2.19001,-10.69017 -4.243865,-21.37963 -4.564121,-23.75437 -0.371356,-2.75366 -0.663481,-6.9692 -0.806436,-11.63737 -0.203619,-6.64916 -0.176088,-7.55545 0.300544,-9.89365 0.288582,-1.4157 0.712194,-2.84168 0.94136,-3.16886 0.229165,-0.32718 0.416664,-0.83644 0.416664,-1.13168 0,-0.29525 0.852271,-2.16311 1.893936,-4.1508 1.952109,-3.724993 3.360576,-7.607122 5.149139,-14.192471 1.6387,-6.033568 1.839595,-7.571302 2.064158,-15.799917 0.23236,-8.514289 0.137475,-9.447676 -1.57243,-15.467961 -0.972382,-3.423596 -1.002124,-3.480631 -3.531967,-6.773243 -2.560037,-3.331909 -4.279019,-6.317325 -4.99427,-8.673726 -0.590636,-1.945855 -0.506128,-5.780122 0.161735,-7.338182 0.303253,-0.707464 2.619039,-3.872159 5.146191,-7.032658 l 4.594822,-5.746365 4.444179,-0.2014 c 6.70976,-0.304072 9.65434,-1.221955 19.61082,-6.113076 3.1676,-1.556084 5.90408,-2.773677 6.08106,-2.705761 0.18592,0.07134 0.87395,-0.988055 1.62944,-2.508929 1.15446,-2.3240213 1.30765,-2.8423145 1.30765,-4.4241464 V 4.547399 l 1.31202,-0.00473 c 0.7216,-0.0026 2.24423,-0.2490656 3.38361,-0.5476935 1.13938,-0.2986279 2.20385,-0.54509 2.36548,-0.5476935 0.16163,-0.0026 1.156,1.0496908 2.20971,2.3384318 1.05371,1.288741 2.10228,2.4165625 2.33015,2.5062701 1.19533,0.4705627 10.99418,2.3321181 12.2758,2.3321181 0.821,0 2.10978,0.142431 2.86394,0.316513 l 1.37121,0.316512 -0.36949,0.884329 c -0.94837,2.269773 -1.27534,11.095239 -0.55126,14.879643 0.21914,1.145368 0.76174,2.927522 1.20577,3.960342 0.44403,1.032821 1.15427,2.872223 1.57831,4.087563 0.42404,1.21534 0.9227,2.376454 1.10813,2.580252 0.26932,0.296004 0.0346,1.124435 -1.16688,4.118298 -2.137,5.325022 -3.03575,6.992225 -6.0947,11.305762 -8.37613,11.8115 -10.16432,14.96378 -11.12405,19.609919 -0.40611,1.96603 -0.48778,3.175108 -0.36384,5.386164 0.14607,2.60565 0.26013,3.06504 1.32511,5.336983 0.64091,1.367257 3.25432,5.655473 5.80758,9.529369 3.42758,5.200449 5.20495,8.216719 6.79265,11.527389 l 2.15037,4.48396 -0.23604,1.73085 c -0.12981,0.95197 -0.37761,4.27892 -0.55065,7.39323 -0.63678,11.46081 -2.03432,20.00743 -5.80386,35.49345 -2.84377,11.68276 -6.26753,27.651 -7.01793,32.73131 -0.39269,2.65855 -1.14657,9.08801 -1.67529,14.28768 -0.52872,5.19968 -1.33308,12.40885 -1.78746,16.02039 -1.385,11.00827 -2.45946,22.535 -2.71699,29.14783 -0.13463,3.45663 -0.77948,8.40391 0.0356,7.54081 0.10509,-0.11126 -2.09218,0.42858 -3.89483,0.17687 -4.21416,-0.42935 -8.95755,-0.30603 -17.15481,0.0314 -3.33953,0.13746 -6.35413,-0.11061 -6.61186,-0.14183 -0.25772,-0.0312 -2.14658,-0.12445 -4.19747,-0.20716 z"
       id="path1710"
       inkscape:connector-curvature="0"
       transform="translate(0,229.26668)"
       sodipodi:nodetypes="cccssssccssssssscscssccsccscscsccccssccscccsscccsssccscscc" />
    <path
       style="opacity:1;fill:#ff8080;fill-opacity:1;stroke:#ff8080;stroke-width:0.75590551;stroke-miterlimit:4;stroke-dasharray:none;stroke-opacity:1"
       d="m 96.440125,20.950854 c 0,-0.601499 2.623301,-8.342609 2.954213,-8.717598 0.240731,-0.272797 1.219532,-0.593328 2.386762,-0.781601 1.08828,-0.175537 3.47024,-0.693295 5.29325,-1.150573 2.98088,-0.7477156 3.58852,-1.0117089 6.03583,-2.6223129 1.49671,-0.9849933 3.2626,-2.2898703 3.92422,-2.8997264 l 1.20293,-1.1088294 1.54137,0.5766996 c 0.84776,0.3171848 1.97174,0.5766997 2.49776,0.5766997 h 0.95638 v 2.0368743 c 0,1.1202812 0.89256,3.0710397 1.09729,3.6598301 0.95879,2.757501 0.72644,1.674649 -5.85758,4.972901 -6.74658,3.379688 -10.20935,4.645798 -14.27747,5.22035 -2.88162,0.406978 -7.754955,0.556093 -7.754955,0.237286 z"
       id="path1712"
       inkscape:connector-curvature="0"
       transform="translate(0,229.26668)"
       sodipodi:nodetypes="sccsccccscscsss" />
    <path
       style="opacity:1;fill:#ff2a2a;fill-opacity:1;stroke:#ff2a2a;stroke-width:0.75590551;stroke-miterlimit:4;stroke-dasharray:none;stroke-opacity:1"
       d="m 144.12149,239.29263 c -3.13471,-0.68842 -1.42849,-0.53509 -2.5895,-0.31276 -0.75958,0.14546 -2.26443,-0.0656 -2.33132,-0.13134 -0.18551,-0.18242 1.38326,-11.30074 2.29196,-18.57832 0.44576,-3.57006 1.4335,-12.27079 2.19496,-19.33495 0.76147,-7.06416 1.64283,-14.39763 1.95858,-16.2966 0.62618,-3.76601 3.86113,-18.42083 6.85939,-31.07403 1.04393,-4.40561 2.03232,-8.75597 2.19642,-9.66748 0.1641,-0.9115 0.72186,-3.58387 1.23947,-5.93859 1.11982,-5.09429 1.96868,-12.27999 2.42089,-20.493 0.18144,-3.29549 0.13382,-6.67188 0.23731,-6.60792 0.2567,0.15865 2.02531,5.14826 2.87954,8.16835 0.59408,2.10034 0.69918,3.03896 0.6959,6.2148 -0.002,2.05746 -0.24898,5.85386 -0.54856,8.43646 -0.29958,2.5826 -0.54643,5.67585 -0.54856,6.87389 -0.006,3.61247 -1.30594,13.47448 -3.33182,25.2849 -2.18111,12.71536 -3.41505,22.01913 -3.84918,29.02252 -0.53354,8.6069 -1.41298,28.94532 -1.57953,36.52925 l -0.16226,7.38871 -0.99576,-0.023 c -0.54766,-0.0127 -2.7428,0.78238 -4.79369,0.33198 z"
       id="path1714"
       inkscape:connector-curvature="0"
       transform="translate(0,229.26668)"
       sodipodi:nodetypes="ccccccccsccscscscscccc" />
    <path
       style="opacity:1;fill:#ff2a2a;fill-opacity:1;stroke:#ff2a2a;stroke-width:0.75590551;stroke-miterlimit:4;stroke-dasharray:none;stroke-opacity:1"
       d="m 160.6931,34.792787 c -0.11545,-0.455753 -0.75382,-2.13375 -1.41861,-3.728884 -1.57618,-3.781982 -1.92712,-6.231921 -1.70032,-11.870073 0.0949,-2.358632 0.34177,-4.847754 0.54865,-5.531383 l 0.37614,-1.242961 0.57022,1.933495 c 1.17783,3.993752 2.58246,17.909142 2.04926,20.301699 l 0.0287,1.747997 z"
       id="path1716"
       inkscape:connector-curvature="0"
       transform="translate(0,229.26668)"
       sodipodi:nodetypes="csccccccc" />
    <path
       style="opacity:1;fill:#ff2a2a;fill-opacity:1;stroke:#ff2a2a;stroke-width:0.75590551;stroke-miterlimit:4;stroke-dasharray:none;stroke-opacity:1"
       d="m 125.11376,9.9949913 c -0.2835,-1.1067922 -0.39013,-2.3297569 -0.29947,-3.4349775 0.2189,-2.6687514 0.0402,-3.0527969 -1.51345,-3.2521622 -1.78573,-0.2291499 -3.65877,-0.7228556 -3.65877,-0.9643989 0,-0.4604164 11.5501,-0.7662006 13.94878,-0.3692882 l 2.27674,0.2316497 -2.69106,0.3060345 c -0.83554,0.1951744 -2.0536,0.360129 -2.7068,0.3665657 -0.65319,0.00644 -1.55434,0.2013392 -2.00255,0.4331166 -0.78668,0.4068121 -0.81492,0.4895713 -0.81492,2.3885098 0,2.1158775 -1.17332,5.9377562 -2.01328,6.6979152 -0.42805,0.387382 -0.11973,-0.819986 -0.52522,-2.4029647 z"
       id="path1718"
       inkscape:connector-curvature="0"
       transform="translate(0,229.26668)"
       sodipodi:nodetypes="cccssccccscc" />
    <path
       style="fill:#000000;stroke-width:0.29477525"
       d="m 101.20049,481.27159 -0.19786,-3.46361 -0.29508,-3.83208 -0.29507,-3.83208 -1.762879,-18.86562 -1.762867,-18.8656 -0.730442,-7.222 -0.730441,-7.22199 -0.743501,-5.95422 -0.743502,-5.95421 -1.891716,-9.22671 -1.891728,-9.22671 -2.096337,-10.16974 -2.096337,-10.16975 -0.570739,-4.12686 -0.570738,-4.12684 -0.323226,-6.63245 -0.323226,-6.63244 0.172824,-2.15185 0.172824,-2.15186 0.610652,-2.41716 0.610664,-2.41716 2.310088,-4.56902 2.310088,-4.56902 1.053472,-3.02766 1.053459,-3.02767 1.0383,-3.91323 1.0383,-3.91324 0.437938,-3.08145 0.437949,-3.08146 0.0061,-5.93058 0.0061,-5.9306 -0.454147,-2.61789 -0.454135,-2.61789 -0.595663,-2.06343 -0.595675,-2.06343 -0.30709,-0.98092 -0.307114,-0.98093 -2.655223,-3.56004 -2.655236,-3.56004 -1.120433,-2.31691 -1.120434,-2.31691 -0.374442,-2.09525 -0.374443,-2.09526 0.319003,-1.86229 0.318991,-1.86229 0.671767,-1.34506 0.671755,-1.34507 3.736232,-4.64169 3.736244,-4.64171 1.185662,-2.94775 1.185663,-2.94775 0.82435,-2.65298 0.82435,-2.65298 0.40895,-0.63849 0.40896,-0.6385 0.49818,-0.20108 0.49817,-0.20108 1.873319,-0.2411 1.87334,-0.24109 2.40091,-0.75536 2.40091,-0.75535 1.1791,-0.29603 1.1791,-0.29603 2.61795,-1.9698 2.61796,-1.9698 0.56756,-0.96195 0.56758,-0.96195 1.2361,-0.66706 1.23611,-0.66705 6.52987,-0.12248 6.52986,-0.12246 2.60201,0.34626 2.60203,0.34627 0.34377,0.2853 0.34378,0.28532 0.18575,0.99016 0.18577,0.99014 0.90761,1.13646 0.90761,1.13646 0.39468,0.55766 0.39467,0.55764 4.80678,1.12774 4.80675,1.12774 1.3265,0.01 1.32648,0.01 2.46632,0.34463 2.46633,0.34464 0.5349,0.87958 0.5349,0.87958 0.59732,2.23977 0.59731,2.23976 0.58511,4.56902 0.5851,4.56901 0.3116,3.83209 0.31159,3.83207 -0.30565,1.87042 -0.30565,1.8704 -0.0461,0.42509 -0.0949,0.59597 -0.42311,1.91017 -0.9114,1.83692 -0.89093,2.23057 -0.89093,2.23057 -1.06184,1.91605 -1.06184,1.91603 -3.14573,4.56902 -3.14574,4.569 -2.14287,3.20544 -2.14288,3.20541 -1.14176,2.39531 -1.14175,2.39531 -0.47243,1.86974 -0.47242,1.86974 0.0978,3.43621 0.0978,3.43621 1.0599,2.21083 1.05988,2.2108 4.76945,7.29114 4.76947,7.29113 1.27647,2.73123 1.27648,2.73123 1.66674,3.43523 1.66672,3.43525 1.05361,3.19719 1.05361,3.19721 0.41216,1.91604 0.41215,1.91604 -0.005,2.80036 -0.005,2.80037 -0.4296,3.5373 -0.42959,3.53729 -0.30651,4.95547 -0.30652,4.95544 -0.73198,5.95124 -0.73198,5.95122 -0.58023,2.94775 -0.58022,2.94777 -1.46065,8.84325 -1.46067,8.84325 -0.45997,3.68469 -0.45997,3.6847 -0.29382,3.5373 -0.29382,3.5373 -0.6038,13.1175 -0.60382,13.1175 -0.27231,8.10632 -0.27232,8.10632 -0.0198,0.88432 -0.0198,0.88432 -0.72932,0.53086 -0.72931,0.53085 -4.44988,-0.24335 -4.24271,-0.17431 -0.92117,5e-5 -1.05928,-0.10355 -0.67394,-0.0655 -0.88111,0.17623 -0.25324,2.39897 -0.1842,3.43478 -0.19446,4.0713 -0.26352,4.72731 -0.9142,-0.13529 -0.91422,-0.13529 -1.40102,0.0245 -1.69991,0.0807 -5.04872,-0.005 -5.04871,-0.005 -5.95736,0.13321 -5.83112,0.008 -4.77986,-0.15103 -4.77987,-0.15102 -0.83404,-0.0721 -0.19785,-1.97896 z m 15.70233,1.45581 5.53168,-0.10651 3.97947,-0.17724 3.92767,0.13349 2.55738,0.0144 2.75269,-0.0936 1.00951,-0.1771 1.06129,0.18543 0.29743,-6.36183 0.22837,-5.70583 0.0884,-1.62127 0.0884,-1.62126 0.76055,-7.33402 0.76057,-7.33401 0.87053,-6.96259 0.87052,-6.96258 0.91044,-8.99064 0.91043,-8.99066 0.69886,-4.86379 0.69886,-4.86378 2.23771,-10.12979 2.23773,-10.12979 1.78577,-7.40933 1.78577,-7.40935 0.88581,-4.27424 0.88583,-4.27424 0.55356,-2.94775 0.55356,-2.94775 0.46154,-4.20391 0.46153,-4.20391 0.30454,-5.52367 0.30454,-5.52367 0.23624,-1.88912 0.23627,-1.8891 -2.13765,-4.44856 -2.13764,-4.44856 -4.64529,-7.0746 -4.64525,-7.07461 -1.15858,-2.41089 -1.15858,-2.41087 -0.16013,-2.90604 -0.16013,-2.90604 0.4925,-2.49463 0.49251,-2.49462 1.30599,-2.73317 1.30601,-2.73318 2.56915,-3.75188 2.56916,-3.75188 2.70949,-3.83993 2.70948,-3.83991 1.1129,-2.20298 1.1129,-2.20296 1.4214,-3.51694 1.42138,-3.51694 -0.28126,-0.3389 -0.28126,-0.3389 -1.01284,-2.77661 -1.01284,-2.7766 -0.64531,-1.44029 -0.64531,-1.44029 -0.40034,-2.2444 -0.40033,-2.2444 -0.005,-2.94776 -0.005,-2.94775 0.26465,-2.50559 0.26466,-2.50559 0.4271,-1.23693 0.4271,-1.23694 -1.44843,-0.31062 -1.44846,-0.31065 h -1.45247 -1.45246 l -5.05547,-1.05503 -5.05546,-1.05505 -0.51659,-0.19775 -0.51661,-0.19776 -1.80472,-2.16444 c -0.83998,-0.97173 -1.86213,-2.12284 -2.12502,-2.63893 l -2.18428,0.52914 -2.30512,0.58955 h -1.50042 -1.50042 l -6.2e-4,1.84234 -6.1e-4,1.84234 -1.24542,2.59374 -1.24545,2.59373 -0.37511,-0.0602 -0.37513,-0.0602 -5.87346,2.86168 -5.87346,2.86167 -2.52763,0.97452 -2.52764,0.97451 -2.06343,0.51597 -2.06341,0.51597 -4.52143,0.19841 -4.521418,0.1984 -0.284838,0.50898 -0.284839,0.50898 -2.41573,2.94871 -2.415742,2.94873 -1.978745,2.55102 -1.978757,2.55102 -0.453146,1.32989 -0.453134,1.32989 v 1.95742 1.95741 l 0.4753,1.60108 0.475312,1.60106 0.886959,1.76866 0.886958,1.76864 2.666623,3.50819 2.666624,3.50819 0.943753,3.27478 0.943764,3.2748 0.406996,2.20767 0.407008,2.20767 -0.03686,6.33766 -0.03686,6.33768 -0.485431,3.2905 -0.485431,3.29051 -1.192315,4.37365 -1.192315,4.37364 -1.010934,3.04245 -1.010946,3.04244 -1.91719,3.67354 -1.91719,3.67355 -0.189897,0.46231 -0.138107,0.56592 -0.304331,0.58237 -0.183487,0.58237 -0.5163,2.50466 -0.516312,2.50466 0.179049,6.92721 0.179049,6.92723 0.615706,4.80796 0.615705,4.80797 1.735675,8.45692 1.735663,8.45691 2.229467,10.8667 2.229467,10.86669 0.727964,5.9355 0.727963,5.93549 0.883321,8.84326 0.8833,8.84325 1.17411,12.23318 1.174099,12.23317 0.72828,8.2537 0.7283,8.25371 0.19728,3.24252 0.19727,3.24253 4.61285,0.0922 4.61287,0.0922 5.40542,0.0187 z m 35.42625,-18.70016 0.006,-4.20054 0.28212,-5.89551 0.28211,-5.89551 0.4515,-10.31712 0.45149,-10.31714 0.31041,-4.56902 0.31042,-4.56902 0.70726,-5.60073 0.70726,-5.60073 1.48153,-8.69586 1.48153,-8.69587 0.4267,-2.35821 0.42669,-2.3582 0.75682,-6.34315 0.75682,-6.34317 0.006,-2.05793 0.006,-2.05793 0.57896,-5.30595 0.57897,-5.30596 0.006,-3.2651 0.006,-3.26509 -0.87344,-3.11067 -0.87346,-3.11065 -0.7622,-2.025 -0.76222,-2.02501 -0.23056,-0.23056 -0.23057,-0.23056 -0.35988,6.27311 -0.35988,6.27312 -0.40297,3.24254 -0.40296,3.24252 -0.19167,2.06343 -0.19167,2.06342 -0.84218,3.6847 -0.84217,3.68468 -0.49129,2.50559 -0.49129,2.50559 -1.57727,6.63244 -1.57729,6.63245 -1.47906,6.49729 -1.47905,6.4973 -0.90035,4.11461 -0.90036,4.11462 -0.57675,3.38991 -0.57674,3.38991 -1.345,12.52796 -1.34498,12.52794 -0.7148,5.60072 -0.7148,5.60073 -0.65889,6.69779 -0.58984,7.73358 0.16575,0.16575 0.16575,0.16576 1.104,-0.0521 1.44928,-0.19027 4.00402,0.12444 4.21117,0.19348 0.81065,0.0239 0.81062,0.0238 0.006,-4.20055 z m 8.94562,-204.79508 -0.16337,-3.6847 -0.70419,-5.12179 -0.7042,-5.12178 -0.48814,-1.73974 -0.48814,-1.73973 -0.21961,-0.13573 -0.21962,-0.13573 -0.33844,1.34404 -0.33842,1.34403 -0.18096,4.18981 -0.18096,4.18979 0.36242,2.49513 0.36243,2.49513 0.82736,1.91603 0.82737,1.91604 0.68961,1.91605 0.6896,1.91604 0.21531,-1.17911 0.21532,-1.17909 z m -56.79952,-9.15755 2.30584,-0.31428 2.98057,-0.99035 2.98058,-0.99035 5.90925,-2.95744 5.90925,-2.95744 -0.53823,-1.72931 -0.53822,-1.72931 -0.0979,-2.26204 -0.0979,-2.26205 -1.10225,-2.2e-4 -1.10224,-2.2e-4 -1.46404,-0.55628 -1.46402,-0.55629 -1.2658,1.17935 -1.26581,1.17934 -2.50559,1.6795 -2.50559,1.67948 -3.09514,0.83282 -3.09514,0.83281 -2.30798,0.36225 -2.307979,0.36225 -0.39915,0.40815 -0.39913,0.40817 -1.4443,4.34793 -1.444303,4.34794 h 3.024683 3.024689 z m 22.78933,-11.70887 0.59293,-1.55863 v -1.83406 -1.83408 l 0.65159,-0.40692 0.6516,-0.40693 1.33814,-0.0671 1.33814,-0.0671 1.76864,-0.38693 1.76866,-0.38693 -1.62126,-0.26481 -1.62127,-0.26481 -6.12615,0.12109 -6.12614,0.12108 -0.30756,0.30754 -0.30754,0.30755 0.96187,0.33531 0.96188,0.33531 1.57433,0.18503 1.57434,0.18505 0.19327,0.31271 0.19327,0.31272 -0.0676,2.28072 -0.0676,2.28073 0.49086,1.68853 0.49086,1.68852 0.55093,-0.71254 0.55092,-0.71252 z"
       id="path1708"
       inkscape:connector-curvature="0"
       sodipodi:nodetypes="cccccccccccccccccccccccccccccccccccccccccccccccccccccccccccccccccccccccccccccccccccccccccccccccccccccccccccccccccccccccccccccccccccccccccccccccccccccccccccccccccccccccccccccccccccccccccccccccccccccccccccccccccccccccccccccccccccccccccccccccccccccccccccccccccccccccccccccccccccccccccccccccccccccccccccccccccccccccccccccccccccccccccccccccccccccccccccccccccccccccccccccccccccccccccccccccccccccccccccccccccccccccccccccccccccccccccccccccccccccccccccccccccccccccccccccccccccccc" />
    <path
       style="fill:#ff5555;stroke-width:0.63058877"
       d="m 155.49474,347.197 c -1.40408,-5.63639 -1.82294,-11.54075 -3.69592,-17.05105 -2.69178,-3.92106 -5.06865,-8.08143 -7.96508,-11.84696 -2.26607,-2.34479 -4.14314,-4.97996 -5.7821,-7.79289 -0.84542,-1.13617 -1.55348,-2.31212 -1.24554,-3.78235 0.0795,-3.73002 -0.35123,-7.51122 0.71994,-11.14179 0.50661,-3.02036 1.64275,-6.00353 1.01951,-9.09065 0.34215,-1.90757 -0.73118,-2.29251 -2.42867,-2.00606 -3.50704,-0.10043 -7.08273,0.0739 -10.54699,-0.19777 -3.17039,-1.57382 -6.27138,-3.42587 -9.48449,-4.82838 -5.79522,-0.0951 -11.59666,0.0344 -17.384876,-0.31338 1.049749,-1.16021 2.184116,-2.17482 3.803236,-2.35531 2.64717,-0.62253 5.20658,-1.85513 7.91401,-2.05881 3.16972,0.0574 6.38345,-0.11358 9.52609,0.0842 2.31372,0.8047 4.54316,2.06513 6.91063,2.57911 3.54138,-0.21435 7.19208,0.37229 10.59399,-0.86386 2.57721,-0.61527 5.14697,-1.24995 7.40726,-2.69044 1.9332,-1.05021 3.25456,-2.9841 4.79993,-4.52284 1.59458,-2.23023 3.4581,-4.34531 4.88619,-6.64681 0.40498,-2.81357 1.45214,-5.56502 1.68832,-8.39902 0.80299,2.49908 1.02322,5.03656 2.32137,7.22945 1.12342,2.4852 1.09932,4.45347 2.30434,5.87781 -1.50911,4.08471 -3.0035,7.62225 -5.06858,11.43982 -1.39936,2.03523 -1.3306,1.67687 -2.504,3.78714 -1.67728,2.10369 -3.42197,4.42873 -3.80586,5.53519 -1.22961,2.05981 -2.51602,3.61608 -3.89291,6.05968 -0.84309,1.97671 -2.35014,3.77247 -2.73805,5.87324 -1.6026,3.58489 -1.09983,6.76711 -0.8759,10.02455 1.75679,4.628 4.98287,8.565 7.42621,12.71372 2.51617,3.4461 4.53504,6.92287 6.27637,10.86394 1.10473,2.20756 1.71058,2.74405 2.1631,4.46191 -0.0556,2.40489 -0.70276,6.64959 -0.75832,9.05448 -0.0725,0.59465 -0.0693,6.48973 -0.26485,4.74043 z"
       id="path1731"
       inkscape:connector-curvature="0"
       sodipodi:nodetypes="cccccccccccccccccccccccccccccccccc" />
    <path
       style="fill:none;stroke:#000000;stroke-width:1px;stroke-linecap:butt;stroke-linejoin:miter;stroke-opacity:1"
       d="m 104.78516,247.76668 1.95312,-1.07422 0.0427,3.06787 2.7893,2.40088 -2.05078,0.97656 -0.48828,-2.92969 z"
       id="path827"
       inkscape:connector-curvature="0"
       sodipodi:nodetypes="ccccccc" />
    <path
       style="fill:none;stroke:#000000;stroke-width:1px;stroke-linecap:butt;stroke-linejoin:miter;stroke-opacity:1"
       d="m 114.15503,243.81404 1.95312,-1.07422 0.0427,3.06787 2.7893,2.40088 -2.05078,0.97656 -0.48828,-2.92969 z"
       id="path827-8"
       inkscape:connector-curvature="0"
       sodipodi:nodetypes="ccccccc" />
  </g>
</svg>
