<?xml version="1.0" encoding="UTF-8" standalone="no"?>
<!-- Created with Inkscape (http://www.inkscape.org/) -->

<svg
   xmlns:dc="http://purl.org/dc/elements/1.1/"
   xmlns:cc="http://creativecommons.org/ns#"
   xmlns:rdf="http://www.w3.org/1999/02/22-rdf-syntax-ns#"
   xmlns:svg="http://www.w3.org/2000/svg"
   xmlns="http://www.w3.org/2000/svg"
   xmlns:sodipodi="http://sodipodi.sourceforge.net/DTD/sodipodi-0.dtd"
   xmlns:inkscape="http://www.inkscape.org/namespaces/inkscape"
   version="1.1"
   viewBox="0 0 256 256"
   xml:space="preserve"
   id="svg1890"
   sodipodi:docname="foot_thigh_high_latex_boots.svg"
   inkscape:version="0.92.3 (2405546, 2018-03-11)"><metadata
     id="metadata1894"><rdf:RDF><cc:Work
         rdf:about=""><dc:format>image/svg+xml</dc:format><dc:type
           rdf:resource="http://purl.org/dc/dcmitype/StillImage" /><dc:title></dc:title></cc:Work></rdf:RDF></metadata><sodipodi:namedview
     pagecolor="#ffffff"
     bordercolor="#666666"
     borderopacity="1"
     objecttolerance="10"
     gridtolerance="10"
     guidetolerance="10"
     inkscape:pageopacity="0"
     inkscape:pageshadow="2"
     inkscape:window-width="1920"
     inkscape:window-height="1017"
     id="namedview1892"
     showgrid="false"
     inkscape:zoom="1.84375"
     inkscape:cx="-70.181768"
     inkscape:cy="77.336917"
     inkscape:window-x="1912"
     inkscape:window-y="-8"
     inkscape:window-maximized="1"
     inkscape:current-layer="svg1890" /><defs
     id="defs1818"><clipPath
       id="clipPath88"><path
         d="m510 80h890v1780h-890z"
         id="path1815" /></clipPath></defs><path
     style="fill:#ff5555;stroke-width:0.13333"
     inkscape:connector-curvature="0"
     id="path1820"
     d="m 109.48126,9.659492 c -2.99419,20.442156 0.58439,42.93226 -5.81185,62.12378 -2.54634,7.641143 2.01088,17.734224 1.28117,24.999375 -4.68215,31.816543 -4.2863,65.019703 -13.843658,93.685653 -6.806496,9.39564 -0.135863,29.4206 -2.749398,39.28036 -5.146138,2.92126 -17.296901,-0.87598 -19.31285,8.81178 9.004975,4.52122 23.259418,4.84414 33.061836,4.84414 7.10409,-7.95353 6.69317,-23.33275 12.42636,-26.91666 3.33325,6.95863 3.42271,21.4888 2.22901,26.854 0.50572,0 1.80836,-0.18803 2.31354,-0.18803 2.42648,-35.52977 7.95714,-36.28042 7.32275,-41.02964 -1.1417,-8.49405 -7.9426,-11.59291 -12.65595,-13.09287 3.05726,-5.01601 7.82794,-15.36495 10.89453,-23.03142 9.75562,-24.37939 20.23949,-47.32682 10.59427,-73.498166 0.30132,-0.478654 0.62932,-1.035974 0.93731,-1.562627 12.22369,-23.754073 17.93688,-41.846954 21.15547,-57.779889 0.0213,0 0.0467,-0.0053 0.0627,0 0.63598,-3.238586 1.10397,-6.327842 1.34396,-9.093106 C 154.39721,17.129012 124.49662,9.2598753 109.481,9.6598653 Z m 47.90547,23.499413 c -3.79724,19.318183 -13.86365,45.238868 -21.21813,57.779888 l -0.56266,1.531962 c 14.57831,19.243515 19.22886,74.670135 18.11422,97.465565 -6.36384,11.37998 -6.10918,29.78592 -4.89588,40.99897 -6.48384,1.44277 -17.77022,-1.82755 -20.53015,5.90666 9.73842,3.24525 22.5621,7.7758 35.34178,5.68785 7.13049,-3.9639 2.37061,-18.82886 10.8024,-23.8434 3.9319,2.95313 4.02656,17.06224 4.04123,24.74871 0.34932,-0.0573 1.3333,0.688 1.96928,0.18801 2.46394,-11.07825 -2.27594,-21.02081 4.73455,-38.21771 0.69198,-10.69346 -6.06785,-13.35966 -13.09967,-16.26493 5.33853,-16.01026 10.32907,-44.67621 7.80247,-63.38908 -0.89598,-9.88108 -8.83311,-19.19285 -7.8438,-29.999247 -1.53063,-16.880911 2.6466,-34.405807 3.53191,-51.561378 -3.15192,-5.286534 -12.53169,-10.026416 -18.18755,-11.031724 z" /><path
     style="fill:none;stroke:#000000;stroke-width:0.99997503"
     inkscape:connector-curvature="0"
     id="path1822"
     d="m 109.48126,9.659492 c -2.99419,20.442156 0.58439,42.93226 -5.81185,62.12378 -2.54634,7.641143 2.01088,17.734224 1.28117,24.999375 -4.68215,31.816543 -4.2863,65.019703 -13.843658,93.685653 -6.806496,9.39564 -0.135863,29.4206 -2.749398,39.28036 -5.146138,2.92126 -17.296901,-0.87598 -19.31285,8.81178 9.004975,4.52122 23.259418,4.84414 33.061836,4.84414 7.10409,-7.95353 6.69317,-23.33275 12.42636,-26.91666 3.33325,6.95863 3.42271,21.4888 2.22901,26.854 0.50572,0 1.80836,-0.18803 2.31354,-0.18803 2.42648,-35.52977 7.95714,-36.28042 7.32275,-41.02964 -1.1417,-8.49405 -7.9426,-11.59291 -12.65595,-13.09287 3.05726,-5.01601 7.82794,-15.36495 10.89453,-23.03142 9.75562,-24.37939 20.23949,-47.32682 10.59427,-73.498166 0.30132,-0.478654 0.62932,-1.035974 0.93731,-1.562627 12.22369,-23.754073 17.93688,-41.846954 21.15547,-57.779889 0.0213,0 0.0467,-0.0053 0.0627,0 0.63598,-3.238586 1.10397,-6.327842 1.34396,-9.093106 C 154.39721,17.129012 124.49662,9.2598753 109.481,9.6598653 Z m 47.90547,23.499413 c -3.79724,19.318183 -13.86365,45.238868 -21.21813,57.779888 l -0.56266,1.531962 c 14.57831,19.243515 19.22886,74.670135 18.11422,97.465565 -6.36384,11.37998 -6.10918,29.78592 -4.89588,40.99897 -6.48384,1.44277 -17.77022,-1.82755 -20.53015,5.90666 9.73842,3.24525 22.5621,7.7758 35.34178,5.68785 7.13049,-3.9639 2.37061,-18.82886 10.8024,-23.8434 3.9319,2.95313 4.02656,17.06224 4.04123,24.74871 0.34932,-0.0573 1.3333,0.688 1.96928,0.18801 2.46394,-11.07825 -2.27594,-21.02081 4.73455,-38.21771 0.69198,-10.69346 -6.06785,-13.35966 -13.09967,-16.26493 5.33853,-16.01026 10.32907,-44.67621 7.80247,-63.38908 -0.89598,-9.88108 -8.83311,-19.19285 -7.8438,-29.999247 -1.53063,-16.880911 2.6466,-34.405807 3.53191,-51.561378 -3.15192,-5.286534 -12.53169,-10.026416 -18.18755,-11.031724 z" /><path
     style="fill:#ffffff;stroke-width:0.13333"
     inkscape:connector-curvature="0"
     id="path1824"
     d="m 147.48965,17.965951 c 1.2453,6.057182 -2.51594,11.675708 -3.65591,17.368899 -0.65599,3.270585 -14.09298,40.326992 -11.61425,42.801597 4.96375,4.962542 26.16602,-51.957368 20.52616,-57.59856 -1.11464,-1.114639 -3.55725,-2.005284 -5.25587,-2.571936 z" /><path
     style="fill:#ffffff;stroke:#ffffff;stroke-width:0.99997503"
     inkscape:connector-curvature="0"
     id="path1826"
     d="m 147.48965,17.965951 c 1.2453,6.057182 -2.51594,11.675708 -3.65591,17.368899 -0.65599,3.270585 -14.09298,40.326992 -11.61425,42.801597 4.96375,4.962542 26.16602,-51.957368 20.52616,-57.59856 -1.11464,-1.114639 -3.55725,-2.005284 -5.25587,-2.571936 z" /><path
     style="fill:#ffffff;stroke-width:0.13333"
     inkscape:connector-curvature="0"
     id="path1828"
     d="m 130.36074,79.884403 c 8.31846,2.770597 -2.82273,3.291918 0,0 z" /><path
     style="fill:#ffffff;stroke:#ffffff;stroke-width:0.99997503"
     inkscape:connector-curvature="0"
     id="path1830"
     d="m 130.36074,79.884403 c 8.31846,2.770597 -2.82273,3.291918 0,0 z" /><path
     style="fill:#ffffff;stroke-width:0.13333"
     inkscape:connector-curvature="0"
     id="path1832"
     d="m 129.02344,83.817638 c 5.65066,0.338658 0.62972,1.719957 -0.44785,0" /><path
     style="fill:#ffffff;stroke:#ffffff;stroke-width:0.99997503"
     inkscape:connector-curvature="0"
     id="path1834"
     d="m 129.02344,83.817638 c 5.65066,0.338658 0.62972,1.719957 -0.44785,0" /><path
     style="fill:#ffffff;stroke-width:0.13333"
     inkscape:connector-curvature="0"
     id="path1836"
     d="m 129.82475,86.857562 c -7.26541,1.467963 5.36507,2.243944 0,0 z" /><path
     style="fill:#ffffff;stroke:#ffffff;stroke-width:0.99997503"
     inkscape:connector-curvature="0"
     id="path1838"
     d="m 129.82475,86.857562 c -7.26541,1.467963 5.36507,2.243944 0,0 z" /><path
     style="fill:#ffffff;stroke-width:0.13333"
     inkscape:connector-curvature="0"
     id="path1840"
     d="m 129.75676,89.324167 c -6.60344,1.379965 7.04262,3.07859 0,0 z" /><path
     style="fill:#ffffff;stroke:#ffffff;stroke-width:0.13333"
     inkscape:connector-curvature="0"
     id="path1844"
     d="m 131.21005,93.484063 c 3.27032,7.698477 5.41693,19.994167 1.51557,27.020657 -5.89052,0.068 -1.38544,-5.86919 -1.38544,-10.85973 0,-2.10395 -4.84361,-18.259541 -0.13013,-16.160927 z" /><path
     style="fill:#ffffff;stroke:#ffffff;stroke-width:0.99997503"
     inkscape:connector-curvature="0"
     id="path1846"
     d="m 131.21005,93.484063 c 3.27032,7.698477 5.41693,19.994167 1.51557,27.020657 -5.89052,0.068 -1.38544,-5.86919 -1.38544,-10.85973 0,-2.10395 -4.84361,-18.259541 -0.13013,-16.160927 z" /><path
     style="fill:#ffffff;stroke-width:0.13333"
     inkscape:connector-curvature="0"
     id="path1848"
     d="m 107.09599,125.30593 c -0.1344,4.58269 -2.63433,15.30095 -3.28632,19.82218 0.0625,4.35309 -4.623883,22.03544 -3.40511,23.73807 1.06664,1.06771 3.71857,-10.27054 4.04096,-11.23825 1.09904,-3.30299 4.16136,-31.03123 2.65047,-32.32186 z" /><path
     style="fill:#ffffff;stroke:#ffffff;stroke-width:0.99997503"
     inkscape:connector-curvature="0"
     id="path1850"
     d="m 107.09599,125.30593 c -0.1344,4.58269 -2.63433,15.30095 -3.28632,19.82218 0.0625,4.35309 -4.623883,22.03544 -3.40511,23.73807 1.06664,1.06771 3.71857,-10.27054 4.04096,-11.23825 1.09904,-3.30299 4.16136,-31.03123 2.65047,-32.32186 z" /><path
     style="fill:#ffffff;stroke-width:0.13333"
     inkscape:connector-curvature="0"
     id="path1852"
     d="m 115.17445,193.36157 c 10.02535,3.21352 6.89103,9.18683 0,0 z" /><path
     style="fill:#ffffff;stroke:#ffffff;stroke-width:0.99997503"
     inkscape:connector-curvature="0"
     id="path1854"
     d="m 115.17445,193.36157 c 10.02535,3.21352 6.89103,9.18683 0,0 z" /><path
     style="fill:#ffffff;stroke-width:0.13333"
     inkscape:connector-curvature="0"
     id="path1856"
     d="m 82.347275,234.02188 c -1.344233,0.99478 17.868885,0.97345 8.395656,-3.09472 -0.193195,4.42802 -6.381173,1.59996 -8.395656,3.09472 z" /><path
     style="fill:#ffffff;stroke:#ffffff;stroke-width:0.99997503"
     inkscape:connector-curvature="0"
     id="path1858"
     d="m 82.347275,234.02188 c -1.344233,0.99478 17.868885,0.97345 8.395656,-3.09472 -0.193195,4.42802 -6.381173,1.59996 -8.395656,3.09472 z" /><path
     style="fill:#ffffff;stroke-width:0.13333"
     inkscape:connector-curvature="0"
     id="path1860"
     d="m 152.30286,204.09463 c -1.04797,3.49471 -0.80798,13.18247 -0.88531,16.79158 -0.256,11.75024 1.3853,-20.89548 3.09325,-23.48341 -1.30263,2.69153 -1.25596,3.51964 -2.20794,6.69143 z" /><path
     style="fill:#ffffff;stroke:#ffffff;stroke-width:0.99997503"
     inkscape:connector-curvature="0"
     id="path1862"
     d="m 152.30286,204.09463 c -1.04797,3.49471 -0.80798,13.18247 -0.88531,16.79158 -0.256,11.75024 1.3853,-20.89548 3.09325,-23.48341 -1.30263,2.69153 -1.25596,3.51964 -2.20794,6.69143 z" /><path
     style="fill:#ffffff;stroke-width:0.13333"
     inkscape:connector-curvature="0"
     id="path1864"
     d="m 151.79621,228.33936 c -1.09464,7.34408 -3.54658,3.92123 -5.68253,6.06291 -0.69332,0.69159 3.76524,-0.23492 4.42122,-0.50572 2.00529,-0.83851 0.81865,-1.84888 1.26131,-5.55719 z" /><path
     style="fill:#ffffff;stroke:#ffffff;stroke-width:0.99997503"
     inkscape:connector-curvature="0"
     id="path1866"
     d="m 151.79621,228.33936 c -1.09464,7.34408 -3.54658,3.92123 -5.68253,6.06291 -0.69332,0.69159 3.76524,-0.23492 4.42122,-0.50572 2.00529,-0.83851 0.81865,-1.84888 1.26131,-5.55719 z" /><path
     style="fill:#ffffff;stroke:#ffffff;stroke-width:0.99997503"
     inkscape:connector-curvature="0"
     id="path1870"
     d="m 178.23245,194.69265 c -1.91195,7.46901 7.16115,0.71451 0,0 z" /><path
     style="fill:#ffffff;stroke-width:0.13333"
     inkscape:connector-curvature="0"
     id="path1872"
     d="m 170.10241,126.69657 c 3.06793,9.19203 3.61458,-7.80768 0.37999,-6.18772 -1.31196,0.65599 -0.50532,2.52527 -0.94797,2.96393 0.54265,0.96811 0.12,1.87435 0.56798,3.22379 z" /><path
     sodipodi:nodetypes="cccc"
     style="fill:#ffffff;stroke:#ffffff;stroke-width:0.99997503"
     inkscape:connector-curvature="0"
     id="path1874"
     d="m 170.10241,126.69657 c 3.06793,9.19203 3.61458,-7.80768 0.37999,-6.18772 -1.31196,0.65599 0.85061,2.52527 0.40795,2.96393 0.54266,0.96811 -1.23592,1.87435 -0.78794,3.22379 z" /><path
     style="fill:#ffffff;stroke-width:0.13333"
     inkscape:connector-curvature="0"
     id="path1876"
     d="m 161.51596,68.991342 c -3.26125,19.542178 7.41582,-3.197253 1.07198,-7.005158 -0.0467,2.485271 -0.69199,4.718549 -1.07198,7.005158 z" /><path
     style="fill:#ffffff;stroke:#ffffff;stroke-width:0.99997503"
     inkscape:connector-curvature="0"
     id="path1878"
     d="m 161.51596,68.991342 c -3.26125,19.542178 7.41582,-3.197253 1.07198,-7.005158 -0.0467,2.485271 -0.69199,4.718549 -1.07198,7.005158 z" /><path
     style="fill:#ffffff;stroke-width:0.13333"
     inkscape:connector-curvature="0"
     id="path1880"
     d="m 160.44932,80.417723 c -5.23987,12.301026 7.80647,1.093306 0,0 z" /><path
     style="fill:#ffffff;stroke:#ffffff;stroke-width:0.99997503"
     inkscape:connector-curvature="0"
     id="path1882"
     d="m 160.44932,80.417723 c -5.23987,12.301026 7.80647,1.093306 0,0 z" /><path
     d="m 90.816912,202.29978 c -1.143519,9.77684 0.747637,15.10614 1.260812,17.13536 1.296691,11.93547 -1.245639,-21.36646 0.351561,-24.24659 -1.121127,2.92332 -0.955976,3.75463 -1.612427,7.11082 z"
     id="path1862-4"
     inkscape:connector-curvature="0"
     style="fill:#ffffff;stroke:#ffffff;stroke-width:1.0838387"
     sodipodi:nodetypes="ccccc" /><path
     style="opacity:1;fill:#ffffff;fill-opacity:1;stroke:#ffffff;stroke-width:0.75590551;stroke-miterlimit:4;stroke-dasharray:none;stroke-opacity:1"
     id="path2549"
     d="m 111.73435,188.86885 c -0.58037,-0.018 -1.15879,-0.002 -1.73797,0.0343 -0.87482,0.0619 -1.75233,0.0543 -2.62768,0.10045 -0.14611,0.009 -0.29223,0.0187 -0.43834,0.0281 -0.0822,-0.11169 0.9708,-0.88657 1.05299,-0.77488 v 0 c 0.14569,-0.008 0.29137,-0.0168 0.43705,-0.0252 0.87837,-0.0399 1.75843,-0.0421 2.63568,-0.10841 0.58765,-0.0361 1.17491,-0.0443 1.76362,-0.0429 0.0836,0.11512 -1.00171,0.90367 -1.08535,0.78855 z"
     inkscape:connector-curvature="0" /><path
     style="opacity:1;fill:#ffffff;fill-opacity:1;stroke:#ffffff;stroke-width:0.75590551;stroke-miterlimit:4;stroke-dasharray:none;stroke-opacity:1"
     id="path2551"
     d="m 109.56486,190.90275 c -0.60012,0.0414 -1.17782,0.22741 -1.74493,0.41644 -0.35491,0.10312 -0.70952,0.20657 -1.06272,0.31536 -0.0853,-0.11035 0.95509,-0.91438 1.04038,-0.80403 v 0 c 0.35384,-0.10709 0.70894,-0.2098 1.06233,-0.31839 0.58216,-0.187 1.17502,-0.37073 1.79029,-0.39793 0.0836,0.11512 -1.00171,0.90367 -1.08535,0.78855 z"
     inkscape:connector-curvature="0" /><path
     style="opacity:1;fill:#ffffff;fill-opacity:1;stroke:#ffffff;stroke-width:0.75590551;stroke-miterlimit:4;stroke-dasharray:none;stroke-opacity:1"
     id="path2553"
     d="m 169.23087,189.29854 c -0.72511,0.0592 -1.44407,0.17085 -2.15762,0.31126 -0.47221,0.0801 -0.92689,0.22943 -1.38086,0.37728 -0.0847,-0.10933 0.94607,-0.90795 1.03077,-0.79862 v 0 c 0.45801,-0.14284 0.91708,-0.28445 1.39109,-0.36589 0.72622,-0.13874 1.45701,-0.24518 2.19199,-0.32596 0.085,0.11406 -0.99032,0.91599 -1.07537,0.80193 z"
     inkscape:connector-curvature="0" /><path
     style="opacity:1;fill:#ffffff;fill-opacity:1;stroke:#ffffff;stroke-width:0.75590551;stroke-miterlimit:4;stroke-dasharray:none;stroke-opacity:1"
     id="path2555"
     d="m 168.96957,191.51269 c -0.50611,0.18205 -0.99051,0.41593 -1.47195,0.65436 -0.0868,-0.10872 0.93817,-0.92742 1.02501,-0.81871 v 0 c 0.49233,-0.23976 0.98807,-0.47287 1.50253,-0.66202 0.0876,0.11196 -0.96794,0.93833 -1.05559,0.82637 z"
     inkscape:connector-curvature="0" /></svg>