<?xml version="1.0" encoding="UTF-8" standalone="no"?>
<!-- Created with Inkscape (http://www.inkscape.org/) -->

<svg
   xmlns:dc="http://purl.org/dc/elements/1.1/"
   xmlns:cc="http://creativecommons.org/ns#"
   xmlns:rdf="http://www.w3.org/1999/02/22-rdf-syntax-ns#"
   xmlns:svg="http://www.w3.org/2000/svg"
   xmlns="http://www.w3.org/2000/svg"
   xmlns:sodipodi="http://sodipodi.sourceforge.net/DTD/sodipodi-0.dtd"
   xmlns:inkscape="http://www.inkscape.org/namespaces/inkscape"
   viewBox="0 0 256 256"
   version="1.1"
   id="svg8"
   inkscape:version="0.92.3 (2405546, 2018-03-11)"
   sodipodi:docname="djinni_pants.svg">
  <defs
     id="defs2" />
  <sodipodi:namedview
     id="base"
     pagecolor="#ffffff"
     bordercolor="#666666"
     borderopacity="1.0"
     inkscape:pageopacity="0.0"
     inkscape:pageshadow="2"
     inkscape:zoom="2.56"
     inkscape:cx="-85.131666"
     inkscape:cy="116.66546"
     inkscape:document-units="px"
     inkscape:current-layer="layer1"
     showgrid="false"
     units="px"
     inkscape:window-width="1920"
     inkscape:window-height="1017"
     inkscape:window-x="1912"
     inkscape:window-y="-8"
     inkscape:window-maximized="1" />
  <metadata
     id="metadata5">
    <rdf:RDF>
      <cc:Work
         rdf:about="">
        <dc:format>image/svg+xml</dc:format>
        <dc:type
           rdf:resource="http://purl.org/dc/dcmitype/StillImage" />
        <dc:title></dc:title>
      </cc:Work>
    </rdf:RDF>
  </metadata>
  <g
     inkscape:label="Ebene 1"
     inkscape:groupmode="layer"
     id="layer1"
     transform="translate(0,-229.26665)">
    <path
       style="opacity:1;fill:#808080;fill-opacity:1;stroke:#808080;stroke-width:0.99401575;stroke-linecap:round;stroke-miterlimit:4;stroke-dasharray:none;stroke-opacity:1"
       d="m 123.12165,61.274546 c -2.78048,-0.900186 -6.71144,-2.919037 -8.95442,-4.598788 -1.78503,-1.336791 -4.58569,-4.213951 -9.64741,-9.910903 -3.68549,-4.148004 -10.460124,-10.283501 -14.430708,-13.069266 -0.518355,-0.363679 -0.49902,-0.435255 0.57997,-2.147045 0.613911,-0.973953 1.919176,-3.386674 2.900588,-5.361601 2.21665,-4.460636 4.449088,-8.025445 8.06368,-12.876273 l 2.80267,-3.7612236 4.14321,-0.5829321 c 9.13741,-1.2855967 17.88992,-1.4607408 23.47815,-0.4698147 9.71395,1.7225144 16.79911,5.9428264 21.84262,13.0106594 l 1.28844,1.80559 -0.37888,8.342337 c -0.20838,4.588284 -0.37888,10.3 -0.37888,12.6927 v 4.350364 h -0.80257 c -1.01661,0 -2.1546,0.866587 -5.27413,4.016279 -2.09919,2.119491 -2.92102,2.731956 -5.28278,3.936968 -3.81365,1.945793 -10.00878,4.341959 -12.5904,4.869748 -2.92761,0.598522 -4.9585,0.530413 -7.35915,-0.246799 z m 10.68873,-36.735831 c 0.55031,-1.758572 0.76575,-2.848852 0.5964,-3.018199 -0.52682,-0.526817 -2.38301,4.929148 -2.0757,6.101154 0.24161,0.921427 0.19733,1.013706 1.4793,-3.082955 z"
       id="path883"
       inkscape:connector-curvature="0"
       transform="translate(0,229.26665)" />
    <path
       style="opacity:1;fill:#808080;fill-opacity:1;stroke:#808080;stroke-width:0.86173228;stroke-linecap:round;stroke-miterlimit:4;stroke-dasharray:none;stroke-opacity:1"
       d="m 80.457937,250.27975 c -0.379794,-0.0634 -1.312014,-0.28923 -2.071602,-0.5018 l -1.381068,-0.3865 0.09274,-1.97252 c 0.08863,-1.88515 0.119221,-1.96342 0.690534,-1.76679 0.328787,0.11315 3.369275,0.25957 6.756641,0.32536 l 6.158846,0.11962 -0.08215,1.55565 c -0.07508,1.42177 -0.162918,1.60994 -1.020688,2.18658 -0.871444,0.58583 -1.207143,0.62824 -4.695631,0.59332 -2.066399,-0.0207 -4.06783,-0.0895 -4.447624,-0.15292 z"
       id="path881"
       inkscape:connector-curvature="0"
       transform="translate(0,229.26665)" />
    <path
       style="fill:#000000;stroke-width:0.0999814"
       d="m 85.388765,480.50785 c -3.94463,-0.11414 -5.77081,-0.34382 -7.54859,-0.94939 -0.49491,-0.16858 -1.06291,-0.29937 -1.26224,-0.29064 -0.28287,0.0124 -0.37359,-0.0269 -0.41335,-0.17897 -0.028,-0.10716 -0.0157,-0.23237 0.0273,-0.27825 0.11418,-0.12163 0.28435,-1.58899 0.35753,-3.08286 l 0.0637,-1.29976 -1.08881,-0.42514 c -1.458,-0.5693 -2.22954,-1.0366 -3.09483,-1.87443 -0.87699,-0.84915 -0.97601,-1.12359 -1.14586,-3.17557 -0.0977,-1.17997 -0.0897,-1.90264 0.0467,-4.22306 0.0905,-1.53971 0.20823,-4.53165 0.26158,-6.64876 0.0533,-2.1171 0.12017,-3.93927 0.14849,-4.04925 0.0283,-0.10998 0.0927,-1.14478 0.14312,-2.29957 0.0793,-1.8159 0.12608,-2.20769 0.34651,-2.89946 0.65439,-2.05355 2.32659,-3.80944 3.91027,-4.10595 0.22409,-0.042 0.57794,-0.22378 0.80522,-0.41376 l 0.40544,-0.3389 -0.37572,-2.16187 c -0.20666,-1.18903 -0.57904,-2.99781 -0.82751,-4.0195 -1.13759,-4.67751 -1.48925,-6.66292 -2.04687,-11.55582 -0.47547,-4.17216 -0.46351,-4.02625 -0.71255,-8.69838 -0.23689,-4.44461 -0.25607,-9.28141 -0.048,-12.09775 0.0813,-1.09979 0.1484,-2.52175 0.14917,-3.15989 0.002,-1.70724 0.15967,-3.40183 0.60798,-6.5383 0.86887,-6.07864 0.89034,-6.20312 2.29308,-13.29753 0.48927,-2.47454 1.00618,-5.33151 1.14867,-6.34882 0.37951,-2.7094 0.70177,-4.78796 1.1006,-7.09868 0.45713,-2.64855 0.52145,-4.08108 0.31645,-7.04869 -0.0874,-1.26476 -0.18654,-2.77198 -0.22037,-3.34937 -0.0728,-1.24204 -0.22983,-2.4915 -0.63584,-5.05872 -0.1644,-1.0395 -0.36996,-2.54237 -0.4568,-3.33972 -0.28081,-2.57829 -0.36887,-3.23276 -0.56502,-4.19922 -0.21619,-1.06516 -1.59919,-6.48043 -2.14486,-8.39844 -1.59951,-5.62217 -1.98907,-10.79912 -1.55361,-20.64616 0.37399,-8.45734 0.56954,-10.49715 1.42331,-14.84724 1.21511,-6.19112 2.24315,-9.98694 3.46604,-12.79762 0.77382,-1.77858 1.7547,-4.21677 2.27255,-5.64895 0.25848,-0.71486 0.78618,-2.08711 1.17266,-3.04943 0.38649,-0.96232 0.56329,-2.21784 0.77268,-2.83226 0.2094,-0.61441 0.51488,-1.45192 0.67885,-1.77673 0.16396,-0.32482 0.67816,-0.82239 0.76287,-1.14793 0.28517,-1.09594 1.32422,-4.28011 1.85705,-5.69095 0.29074,-0.76986 1.04021,-2.4724 1.66548,-3.78342 0.62526,-1.31103 1.13685,-2.42087 1.13685,-2.46633 0.880643,-1.92876 1.570351,-2.33143 2.27771,-3.64843 0.41351,-0.76986 0.94225,-1.82716 1.17498,-2.34956 1.62777,-3.65379 2.89007,-5.8947 5.73485,-10.18093 1.16042,-1.74839 1.82155,-2.63903 4.465725,-6.01606 1.06889,-1.36511 1.995,-2.39955 2.14829,-2.39955 0.25588,0 0.0412,0.34551 -1.36988,2.20439 -0.8537,1.12465 -2.02634,2.66958 -2.60587,3.43318 -2.515965,3.31515 -5.661105,8.47506 -7.193495,11.80163 -0.949311,2.49083 -2.667198,4.97166 -3.91482,6.99821 0.0178,0.0128 0.42645,0.24191 0.90812,0.50902 1.10513,0.61285 2.67686,1.79586 3.92099,2.95126 0.53013,0.49231 1.55738,1.42243 2.28279,2.06694 4.475945,3.9768 6.813445,6.32892 9.965615,10.02793 3.40161,3.99172 5.28988,5.92311 7.40031,7.56929 2.28507,1.78242 6.31154,3.86283 9.49823,4.90759 1.35268,0.44348 2.0599,0.54887 3.64932,0.54384 3.1709,-0.01 5.85133,-0.74521 11.78155,-3.23132 6.10537,-2.55955 7.92176,-3.74305 10.75632,-7.00845 1.12534,-1.29639 1.97855,-2.08336 2.69568,-2.48641 0.22196,-0.12475 0.38378,-0.25881 0.35961,-0.29791 -0.0632,-0.10217 0.5912,-0.19422 1.3897,-0.19549 l 0.68777,-0.001 -0.0685,-0.51655 c -0.28199,-2.12575 -0.26768,-2.68459 0.39262,-15.33051 0.0833,-1.5947 0.19516,-4.44913 0.24864,-6.34319 0.0718,-2.54255 0.10295,-3.47405 0.19675,-3.56784 0.10273,-0.10273 0.15567,0.0272 0.16033,0.69132 0.003,0.4517 0.0202,2.48597 0.0378,4.52059 0.0312,3.60994 -0.0568,6.37103 -0.45449,14.24735 -0.17985,3.56212 -0.11457,5.19547 0.25683,6.426 0.3512,1.16362 0.38951,1.71989 0.4525,6.57026 l 0.0629,5.84975 0.9128,0.79862 c 1.85271,4.59823 2.42367,6.49771 3.08663,8.40015 2.03114,5.82852 3.38592,11.88908 4.09004,18.2966 0.11482,1.0448 0.33796,2.93445 0.49587,4.19922 0.51877,4.15499 0.55177,4.68918 0.54962,8.89834 -0.002,4.05552 -0.0327,4.62586 -0.49881,9.29827 -0.23435,2.34894 -0.33721,3.76572 -0.55168,7.59859 -0.0585,1.04481 -0.17136,2.48454 -0.25088,3.1994 -0.0795,0.71487 -0.19121,2.24459 -0.24817,3.39937 -0.057,1.15479 -0.17037,3.13442 -0.25201,4.39918 -0.17167,2.6594 -0.20699,16.87995 -0.045,18.12712 0.15943,1.22773 1.44032,5.68985 3.177,11.06745 0.55052,1.70469 1.30243,4.04425 1.67091,5.19904 0.36849,1.15478 1.06727,3.15691 1.55285,4.44917 0.48558,1.29226 1.04409,2.79948 1.24113,3.34938 1.71576,4.78835 3.86517,14.2877 4.50191,19.8963 0.20459,1.80205 0.69489,5.29634 1.00306,7.14867 0.26985,1.62202 0.65647,4.58457 0.89378,6.84872 0.0864,0.82485 0.24318,2.30957 0.34829,3.29939 0.10511,0.98981 0.22123,2.19261 0.25806,2.67288 l 0.0669,0.87323 0.51607,0.27656 c 0.43799,0.23472 0.51771,0.32195 0.52698,0.57651 0.006,0.17556 0.32111,0.83895 0.75891,1.5997 0.86107,1.49623 0.89652,1.5907 1.20079,3.19941 0.20232,1.0697 0.22703,1.5087 0.22794,4.04924 0.001,2.17707 -0.031,2.92536 -0.13468,3.17104 -0.12475,0.29559 -0.11141,0.3804 0.16502,1.04981 0.80034,1.93814 0.86853,2.26897 0.86101,4.17759 -0.006,1.56678 -0.0348,1.85395 -0.27363,2.7472 -0.14671,0.54864 -0.26762,1.20102 -0.26869,1.44973 -10e-4,0.24871 -0.0671,0.90212 -0.1468,1.45202 -0.0797,0.5499 -0.14824,1.40474 -0.15237,1.89965 l -0.007,0.89983 -0.57056,0.3638 c -1.10539,0.70482 -2.18139,0.90909 -4.86976,0.9245 -1.79143,0.0103 -2.16099,-0.0179 -3.54934,-0.27075 -0.85234,-0.15521 -1.72659,-0.346 -1.94278,-0.424 -0.34344,-0.12389 -0.41386,-0.12298 -0.55777,0.007 -0.0906,0.082 -0.30588,0.14905 -0.47844,0.14905 -0.23118,0 -0.45012,0.12114 -0.8321,0.4604 -0.28511,0.25321 -0.6493,0.50602 -0.80931,0.56181 -0.76722,0.36253 -1.25374,0.48539 -1.89594,0.682 -1.82862,0.61531 -2.92222,0.81896 -4.43164,0.82526 -2.5699,0.0107 -4.11306,-0.54496 -7.20442,-2.59421 -1.31251,-0.87007 -2.6976,-2.14183 -3.845,-3.53039 -0.49809,-0.60278 -0.86142,-0.96377 -0.90274,-0.89691 -0.0413,0.0667 -0.0937,0.014 -0.13001,-0.13062 -0.12197,-0.48596 -0.85598,-1.39245 -2.78339,-3.43743 -1.92043,-2.03756 -2.70794,-2.7959 -3.93094,-3.78533 -0.58732,-0.47514 -1.7237,-1.49569 -3.24014,-2.90987 -0.41751,-0.38936 -1.05156,-0.92764 -1.409,-1.19617 -1.15074,-0.86454 -2.88974,-2.64994 -4.32918,-4.44473 -0.7718,-0.96232 -1.56712,-2.00208 -1.76738,-2.31059 -0.59404,-0.91511 -1.42728,-2.69311 -2.38845,-5.09661 -1.19484,-2.98782 -1.64737,-4.36917 -2.60317,-7.94615 -0.4399,-1.64628 -1.00836,-3.6906 -1.26324,-4.54294 -1.48405,-4.96274 -2.38382,-8.82131 -3.19411,-13.69746 -0.19647,-1.18228 -0.55648,-3.2069 -0.80004,-4.49916 -0.77362,-4.10468 -0.93146,-5.0571 -1.5493,-9.34826 -0.33253,-2.30957 -0.76186,-5.18904 -0.95408,-6.39881 -0.19222,-1.20978 -0.48528,-3.43686 -0.65125,-4.94908 -0.16597,-1.51222 -0.48004,-4.3017 -0.69794,-6.19885 -0.42155,-3.67034 -0.69087,-6.40794 -0.94917,-9.6482 -0.18439,-2.31306 -0.51421,-4.86166 -0.99629,-7.69857 -0.18689,-1.0998 -0.37107,-2.28235 -0.40929,-2.62788 -0.0382,-0.34554 -0.0821,-0.61549 -0.0975,-0.59989 -0.0154,0.0156 -0.16819,1.28813 -0.33946,2.82784 -0.38154,3.43001 -1.44359,12.07238 -2.11331,17.1968 -0.71342,5.45887 -1.13764,9.39722 -1.54002,14.29735 -0.93438,11.37869 -1.21064,13.97587 -2.35042,22.09589 -0.32419,2.30957 -0.77213,5.70643 -0.99543,7.54859 -0.2233,1.84216 -0.49724,4.09174 -0.60873,4.99907 -0.54754,4.45526 -0.52436,3.74758 -0.59447,18.14663 -0.0714,14.66317 -0.0468,14.05736 -0.61554,15.17532 -0.68417,1.34493 -3.35581,4.10539 -4.88535,5.04777 -0.41242,0.25411 -1.393505,0.90866 -2.180185,1.45457 -1.51989,1.05473 -2.23142,1.36805 -3.10673,1.36805 -0.64908,0 -1.49168,0.23535 -2.61162,0.72945 -0.71276,0.31447 -1.07859,0.41922 -1.46573,0.4197 -0.55243,0.36702 -0.319542,0.2123 -0.55243,0.36702 -0.17866,0.10064 -1.3235,0.13865 -5.0213,0.16672 -5.19182,0.0394 -6.4203,-0.0281 -8.05544,-0.44279 -0.52114,-0.13216 -0.95981,-0.24029 -0.97482,-0.24029 -0.015,0 -0.0274,0.37118 -0.0276,0.82485 0,0.67925 -0.0692,1.6445 -0.22977,3.21901 -0.0174,0.17101 0.17989,0.24551 1.62985,0.6153 2.06827,0.52748 2.9503,0.62061 6.66691,0.70398 3.51095,0.0787 3.52561,0.076 4.80657,-0.88613 l 0.82547,-0.62003 -0.0622,-0.65372 c -0.0647,-0.67924 0.409905,-2.13564 -0.0224,-2.60047 -0.31756,-0.34143 -0.905118,-0.55001 0.232815,-0.51251 0.60811,0.28767 0.45045,2.30654 0.45045,2.95598 -0.256611,1.68049 -0.225885,1.27926 -1.19142,1.85398 -0.34689,0.27839 -0.80018,0.59263 -1.00732,0.69831 -0.46736,0.23843 -1.45834,0.40526 -2.25043,0.37885 -0.32994,-0.011 -1.02731,-0.0324 -1.54972,-0.0475 z"
       id="path875"
       inkscape:connector-curvature="0"
       sodipodi:nodetypes="cccccccccccccccccccccccccccccccccccccsccccccccsccsccccsccsccccccccccccccccccccccccccccccccssccccccccccccccccscccccccsccccccccccccccsscccscsccscsscscscscccscccccsccscccccccccccc" />
    <path
       style="fill:#ffb380;stroke-width:0.0999814"
       d="m 92.787395,473.78156 c 1.16474,-0.52124 2.12294,-0.80309 2.73502,-0.80451 0.73235,-0.002 1.53783,-0.24132 2.06221,-0.61354 0.45061,-0.31983 2.952625,-2.00002 3.584095,-2.40684 0.8925,-0.57497 3.18138,-2.91779 3.91983,-4.01219 0.79482,-1.17793 0.73231,-0.003 0.80385,-15.11212 0.0414,-8.74383 0.10343,-13.90243 0.17613,-14.64728 0.28522,-2.92209 1.58505,-13.38782 2.06753,-16.6469 0.77896,-5.26181 1.40578,-10.87101 1.94404,-17.39676 0.76331,-9.25427 0.95434,-11.19329 1.60064,-16.24698 0.21448,-1.67719 0.72866,-5.70394 1.14262,-8.94834 1.36166,-10.67217 2.05992,-17.00667 2.05992,-18.6873 0,-0.82802 0.0517,-1.311 0.18986,-1.77336 0.10442,-0.34948 0.23974,-1.06283 0.30071,-1.58524 0.061,-0.5224 0.1813,-1.55721 0.26738,-2.29957 0.0861,-0.74236 0.42242,-3.29353 0.74741,-5.66926 0.32499,-2.37574 0.65829,-5.03025 0.74066,-5.89891 0.62718,-6.61432 0.4001,-13.97202 -0.66128,-21.42569 l -0.41999,-2.94945 -0.036,-3.94927 -0.036,-3.94926 -0.28563,-0.0602 c -0.47152,-0.0993 -0.93543,-0.44377 -1.77418,-1.31743 -0.9406,-0.97976 -1.29455,-1.48263 -2.86564,-4.07141 -0.96302,-1.4359 -1.31219,-2.50864 -1.87717,-3.54934 -1.20944,-2.44511 -1.92943,-4.26101 -3.11378,-6.03007 -0.70444,-1.24995 -1.18323,-1.84626 -3.48607,-4.34186 -2.41118,-2.61301 -3.392885,-3.5662 -4.937155,-4.79374 -2.34525,-1.86423 -4.44158,-3.21721 -8.0985,-5.22683 -0.87983,-0.48351 -2.34824,-1.36826 -3.26313,-1.96612 -1.60554,-1.04919 -1.97696,-1.22841 -1.99378,-0.96204 -0.006,0.1 -0.018,0.1 -0.0583,0 -0.0277,-0.0687 -0.13605,-0.12498 -0.24071,-0.12498 -0.21267,0 -0.49013,0.55088 -0.49715,0.98703 -0.004,0.26632 -0.3763,1.31638 -1.93498,5.46177 -1.08902,2.89629 -1.51946,3.98561 -2.39016,6.04888 -1.29848,3.07694 -1.87078,4.87366 -2.6592,8.34844 -1.20338,5.3036 -1.81937,8.94725 -2.1044,12.44769 -0.056,0.68737 -0.21943,3.90427 -0.36324,7.14867 -0.34673,7.82222 -0.2562,11.27257 0.40815,15.55532 0.32606,2.10196 0.55313,3.11215 1.31048,5.83008 0.75072,2.69417 1.85549,7.13713 2.07852,8.35907 0.0853,0.46741 0.24837,1.72717 0.36235,2.79947 0.11397,1.07231 0.38254,3.09693 0.59681,4.49917 0.42935,2.80973 0.55875,3.95281 0.6508,5.74893 0.0338,0.65988 0.12791,2.07711 0.20909,3.14941 0.17872,2.36049 0.0957,3.6734 -0.42067,6.64877 -0.19085,1.09979 -0.5708,3.54076 -0.84435,5.42436 -0.28023,1.92958 -0.86434,5.26875 -1.33794,7.64857 -1.22387,6.14975 -1.40431,7.16005 -1.95981,10.97259 -0.792,5.43571 -0.80092,5.51649 -0.89487,8.0985 -0.049,1.34725 -0.14635,3.07942 -0.21628,3.84928 -0.21144,2.3275 -0.162,8.75331 0.10154,13.19755 0.21481,3.62258 0.87253,10.05452 1.26678,12.38821 0.24913,1.47461 0.91813,4.61028 1.39707,6.54812 0.24508,0.99165 0.62771,2.84805 0.85028,4.12534 0.22257,1.27728 0.4233,2.34095 0.44605,2.36371 0.1,0.1 0.57121,-2.0112 0.69851,-3.12953 0.0313,-0.27495 0.1011,-1.48972 0.15512,-2.6995 0.0864,-1.9344 0.29199,-4.80324 0.45144,-6.29883 0.0293,-0.27495 0.095,-2.79448 0.14592,-5.59896 0.0509,-2.80447 0.16293,-6.20134 0.24887,-7.54859 0.33875,-5.3105 0.5638,-8.58491 0.80054,-11.64784 0.75418,-9.75743 0.81617,-11.10258 0.9562,-20.74614 0.0547,-3.7668 0.12058,-7.07368 0.1464,-7.34863 0.0258,-0.27495 0.0953,-1.12979 0.15444,-1.89965 0.0591,-0.76985 0.26082,-2.74948 0.44825,-4.39918 0.4851,-4.27005 1.01006,-9.48811 1.24726,-12.39769 0.41998,-5.15159 0.59395,-6.75435 1.74428,-16.07037 0.41239,-3.33973 0.95489,-7.95137 1.20558,-10.2481 0.25068,-2.29672 0.74522,-6.6279 1.09897,-9.62485 0.72776,-6.16534 1.05065,-9.23835 1.34994,-12.84761 0.114,-1.37474 0.32136,-3.62432 0.46081,-4.99907 0.24428,-2.40832 0.40225,-3.56297 1.38155,-10.09812 0.74907,-4.99877 0.99545,-7.93748 0.98076,-11.69782 -0.0114,-2.90414 -0.10357,-3.57511 -0.49907,-3.63128 -0.33086,-0.047 -0.27405,-0.21801 0.0724,-0.21801 0.54703,0 0.74434,0.67244 0.90428,3.08184 0.0761,1.14701 0.0755,2.2749 -0.002,3.93699 -0.17539,3.75262 -0.4021,5.74312 -1.3983,12.27758 -0.60373,3.96013 -0.80003,5.75023 -1.40335,12.79762 -0.24726,2.8882 -0.63443,6.54466 -1.19297,11.26654 -0.22237,1.87991 -0.69505,6.04163 -1.05041,9.24829 -0.35534,3.20665 -1.00616,8.75473 -1.44625,12.32906 -0.97723,7.93679 -1.11442,9.20645 -1.55579,14.39733 -0.32914,3.87101 -0.90112,9.54163 -1.34222,13.3068 -0.51929,4.43263 -0.59873,6.02248 -0.70646,14.13809 -0.0897,6.75464 -0.18703,9.82268 -0.40139,12.64765 -0.0542,0.71487 -0.16591,2.22209 -0.24816,3.34938 -0.0823,1.12729 -0.21706,2.88196 -0.29959,3.89927 -0.0825,1.01731 -0.21915,2.88446 -0.30361,4.14923 -0.0845,1.26476 -0.21923,3.26689 -0.29948,4.44917 -0.30883,4.54964 -0.35874,5.69299 -0.4495,10.29809 -0.0515,2.61201 -0.16042,5.49148 -0.24207,6.39881 -0.26399,2.93323 -0.35651,4.21105 -0.45314,6.25911 -0.0937,1.98633 -0.27467,3.20948 -0.70454,4.76246 -0.22332,0.80676 -0.26165,0.87621 -0.48353,0.87621 -0.0945,0 -0.332772,-0.17129 -0.455642,-0.0852 -0.154528,-0.0566 -0.10057,-0.0321 -0.245857,-0.10249 -0.0337,-0.16855 -0.06782,-0.11224 -0.102241,-0.11224 -0.0344,0 -0.26498,0.18769 -0.5124,0.4171 -1.248858,0.7788 -1.695745,0.58221 -2.56623,1.47728 -0.84997,0.89633 -1.52026,2.18324 -1.73962,3.33993 -0.0513,0.27055 -0.0956,0.92444 -0.0984,1.45309 -0.003,0.52864 -0.0473,1.45607 -0.0988,2.06096 -0.0515,0.60489 -0.13871,2.94445 -0.19371,5.19903 -0.055,2.25459 -0.16707,5.22403 -0.24903,6.59878 -0.19996,3.35441 -0.0513,5.60107 0.41787,6.31718 0.2776,0.42367 1.66128,1.45621 2.40919,1.7978 0.89508,0.4088 2.84909,1.05971 3.84918,1.28221 1.30979,0.2914 2.02824,0.32456 7.2179,0.3332 l 5.09905,0.008 c 1.209873,-0.66032 1.062231,-0.53895 1.84959,-0.88652 z"
       id="path873" />
    <path
       style="fill:#000000;stroke-width:0.0999814"
       d="m 90.739395,469.10397 c 0.28824,-0.8111 0.77215,-2.1496 1.07536,-2.97445 2.77388,-7.54588 3.33482,-11.4008 2.40785,-16.54692 -0.31787,-1.76458 -0.40343,-2.6995 -0.24708,-2.6995 0.0614,0 0.112,0.10124 0.11244,0.22496 0,0.12373 0.1338,0.86558 0.29633,1.64857 0.58783,2.8318 0.75581,4.72416 0.6021,6.78294 -0.2431,3.25632 -1.06024,6.49523 -2.6717,10.58995 -0.52616,1.33697 -1.96416,4.44918 -2.05575,4.44918 -0.024,0 0.19221,-0.66363 0.48045,-1.47473 z"
       id="path871" />
    <path
       style="fill:#000000;stroke-width:0.0999814"
       d="m 80.650075,469.52302 c -0.10248,-1.0002 -0.0752,-5.03852 0.0438,-6.49292 0.32773,-4.00473 1.46716,-9.10282 3.16193,-14.14737 0.41567,-1.23727 0.79309,-2.49703 0.83869,-2.79948 0.08,-0.53031 0.0819,-0.52318 0.0529,0.19997 -0.0212,0.53104 -0.16376,1.20208 -0.48839,2.29957 -0.25212,0.85234 -0.77296,2.80948 -1.15742,4.34919 -1.45583,5.83042 -1.79406,8.03354 -2.01071,13.09756 -0.12422,2.90326 -0.20773,4.04143 -0.30078,4.09894 -0.0403,0.0249 -0.10337,-0.24751 -0.14005,-0.60546 z"
       id="path869" />
    <path
       style="fill:#000000;stroke-width:0.0999814"
       d="m 103.74543,363.3682 c 0.022,-0.25821 0.0619,-0.68318 0.0889,-0.94439 0.0269,-0.2612 0.11508,-5.46898 0.1959,-11.57284 0.14808,-11.18242 0.25568,-14.67639 0.71123,-23.09571 0.13686,-2.52953 0.29545,-7.00522 0.35241,-9.94597 0.057,-2.94076 0.11809,-5.36135 0.13583,-5.37909 0.0177,-0.0177 0.0664,1.30853 0.10805,2.94728 0.0857,3.36705 0.0187,7.27336 -0.20013,11.67791 -0.45756,9.20868 -0.65033,15.48126 -0.65449,21.29604 -0.005,7.56725 -0.19728,13.07916 -0.50983,14.64728 -0.14771,0.74107 -0.27729,0.95122 -0.22783,0.36949 z"
       id="path867" />
    <path
       style="fill:#000000;stroke-width:0.0999814"
       d="m 112.92429,347.05167 c 0.23897,-1.50571 0.69263,-5.36937 0.85698,-7.29864 0.33078,-3.883 0.43068,-6.58974 0.37084,-10.04813 -0.10069,-5.81988 -0.60192,-9.25621 -2.21837,-15.20866 -0.41237,-1.51854 -0.74673,-2.89079 -0.74302,-3.04944 0.006,-0.24265 0.0272,-0.21701 0.1358,0.16147 0.071,0.24745 0.36474,1.21477 0.65279,2.1496 2.06237,6.69309 2.80445,12.5597 2.52197,19.93783 -0.12881,3.36443 -0.30656,5.69551 -0.62581,8.20693 -0.22242,1.74971 -0.85784,5.40044 -0.95617,5.49357 -0.0322,0.0305 -0.0299,-0.12457 0.005,-0.34453 z"
       id="path865" />
    <path
       style="fill:#000000;stroke-width:0.0999814"
       d="m 84.096895,276.95638 c 0.005,-0.11648 0.0285,-0.14017 0.0604,-0.0604 0.0289,0.0722 0.0253,0.15841 -0.008,0.19163 -0.0332,0.0332 -0.0569,-0.0258 -0.0525,-0.13122 z"
       id="path863" />
    <path
       style="fill:#ffb380;stroke-width:0.0999814"
       d="m 163.34273,471.13201 c 1.39898,-0.30088 3.69601,-1.08005 4.74736,-1.61033 2.0041,-1.01084 4.24011,-3.19454 6.47202,-6.32064 1.41435,-1.981 3.75773,-5.81924 4.67777,-7.66174 0.24927,-0.4992 0.52703,-0.99086 0.61726,-1.09257 0.86774,-1.15272 0.68776,-0.93716 0.77255,-3.50717 0.0525,-1.63205 -0.0682,-2.93896 -0.2837,-3.07214 -0.0641,-0.0396 -0.14679,-0.4235 -0.18379,-0.8531 -0.0604,-0.70077 -0.12632,-0.88905 -0.64138,-1.8309 -0.88782,-1.62345 -1.16342,-2.22911 -1.04708,-2.30101 0.0569,-0.0352 -0.0123,-0.11655 -0.15417,-0.18119 -0.35589,-0.16215 -0.37184,-0.1539 -0.30464,0.15763 0.0326,0.15122 0.0966,0.75847 0.14213,1.34943 0.0606,0.78606 0.12871,1.12519 0.25379,1.2634 0.16356,0.18072 0.15449,0.19874 -0.20917,0.41594 -0.20909,0.12487 -0.51512,0.35039 -0.68009,0.50116 -0.51193,0.46785 -1.72098,1.1944 -2.98642,1.79463 -2.37041,1.12433 -3.55797,1.38753 -6.62746,1.46889 -1.57639,0.0418 -2.35491,0.0239 -2.6995,-0.0621 -0.509,-0.12699 -2.03597,-0.97916 -2.88379,-1.60938 -0.27495,-0.20438 -0.62364,-0.40087 -0.77486,-0.43662 -0.17067,-0.0404 -0.27495,-0.13149 -0.27495,-0.24029 0,-0.0964 -0.13689,-0.34136 -0.30421,-0.54434 -0.24088,-0.29224 -0.29936,-0.45115 -0.28094,-0.76341 0.0245,-0.41543 0.045,-0.37053 -1.71962,-3.76219 -0.78223,-1.50345 -1.96608,-4.30295 -2.63318,-6.22679 -0.56125,-1.6186 -1.12987,-4.71921 -1.65674,-9.03409 -0.11171,-0.91488 -0.31699,-2.37711 -0.45618,-3.2494 -0.1392,-0.8723 -0.41042,-2.64329 -0.60273,-3.93555 -0.19231,-1.29226 -0.50582,-3.24939 -0.69668,-4.34919 -0.60763,-3.50111 -0.65998,-4.02651 -0.71733,-7.19866 -0.10233,-5.66087 0.36944,-10.37839 2.02232,-20.22247 0.41308,-2.46011 0.9096,-5.28278 1.10338,-6.2726 0.7309,-3.73337 0.84328,-4.33919 1.08619,-5.85578 0.13712,-0.85611 0.41231,-2.22836 0.61152,-3.04943 0.39091,-1.61115 0.39144,-1.61719 0.64766,-7.44175 0.15486,-3.52042 0.0847,-22.39979 -0.0905,-24.34547 -0.0644,-0.71487 -0.27122,-2.53703 -0.45968,-4.04925 -0.38116,-3.05849 -0.49335,-4.26497 -0.65546,-7.04869 -0.20546,-3.52814 -0.40183,-5.68515 -0.84648,-9.29827 -0.24361,-1.97963 -0.58152,-4.90409 -0.75088,-6.49879 -0.61068,-5.75007 -1.26021,-10.65044 -1.74535,-13.1679 -0.0816,-0.42361 -0.28687,-2.02081 -0.45608,-3.54934 -0.1692,-1.52852 -0.54355,-3.20847 -0.62298,-3.70338 -0.15871,-0.98875 -0.35753,-1.671 -0.2407,-1.67411 0.9153,-0.0244 0.89412,-0.2953 1.21932,4.99791 0.14291,1.0998 0.39005,2.74199 0.54919,3.64932 0.7887,4.49685 1.40122,8.84745 1.90032,13.49749 0.11509,1.0723 0.42939,3.70431 0.69844,5.84891 0.58803,4.68719 0.6594,5.37796 0.7954,7.69857 0.23187,3.95655 0.42835,6.30665 0.71467,8.54841 0.47306,3.70389 0.57554,5.00524 0.6968,8.84836 0.21563,6.83378 0.0137,22.30822 -0.29414,22.5458 -0.0356,0.0275 -0.0666,0.85984 -0.0688,1.84966 -0.004,1.68252 -0.0253,1.88753 -0.33062,3.14941 -0.1796,0.74236 -0.45982,2.15461 -0.62272,3.13833 -0.30517,1.84278 -1.26385,7.09325 -1.3438,7.35972 -0.12473,0.41563 -1.76961,10.50938 -1.98776,12.19773 -0.72292,5.59516 -0.85952,7.46163 -0.85983,11.74843 0,3.76675 0.0739,4.67768 0.64073,7.86894 0.19043,1.07214 0.46319,2.75453 0.60613,3.73865 0.14295,0.98411 0.41454,2.75662 0.60354,3.9389 0.18901,1.18228 0.48094,3.2294 0.64874,4.54916 0.55394,4.35678 1.01073,6.85092 1.54196,8.41932 0.72692,2.1461 1.82506,4.66658 3.24673,7.45194 0.8212,1.60888 1.52501,3.10521 1.56403,3.32517 0.039,0.21996 0.16662,0.50616 0.28355,0.63602 0.40904,0.45424 2.50898,1.77373 3.22606,2.0271 0.47708,0.16857 2.89696,0.16555 4.46677,-0.006 2.45755,-0.26789 4.82092,-1.18896 7.26703,-2.83214 0.60435,-0.40597 0.652,-0.46513 0.68007,-0.84445 0.0166,-0.22434 -0.062,-1.07665 -0.17462,-1.89402 -0.11264,-0.81737 -0.2705,-2.161 -0.35078,-2.98584 -0.0803,-0.82485 -0.21412,-2.12961 -0.2974,-2.89947 -0.0833,-0.76985 -0.24244,-2.25458 -0.35373,-3.29938 -0.22114,-2.07622 -0.50232,-4.16229 -0.80182,-5.9489 -0.25494,-1.5207 -0.86218,-5.87714 -1.00343,-7.19866 -0.31237,-2.9227 -1.15478,-7.32631 -2.36211,-12.3477 -0.94175,-3.91686 -1.54235,-5.84957 -3.13802,-10.09812 -0.98841,-2.63166 -1.22752,-3.34 -3.15556,-9.34826 -1.95999,-6.10784 -3.30273,-10.75251 -3.45191,-11.94053 -0.13186,-1.0502 -0.12574,-16.56235 0.007,-18.0039 0.0608,-0.65988 0.15335,-2.31446 0.20564,-3.67686 0.0523,-1.3624 0.18383,-3.38702 0.29232,-4.49916 0.10848,-1.11215 0.26899,-3.30435 0.35668,-4.87156 0.14182,-2.53441 0.36381,-5.15443 0.77091,-9.0983 0.17747,-1.7192 0.17765,-10.33257 0,-11.8478 -0.0708,-0.60489 -0.25986,-2.17959 -0.42009,-3.49935 -0.16023,-1.31975 -0.40764,-3.40098 -0.54979,-4.62495 -0.83852,-7.22239 -2.43165,-13.48291 -5.55234,-21.8201 -0.64837,-1.73218 -1.3154,-3.53184 -1.48231,-3.99926 l -0.30345,-0.84984 0.30345,0.84984 c -0.43043,0.34628 -0.53548,0.3912 -1.29347,0.3714 -0.17872,3e-4 -0.59489,0.0449 -0.92483,0.099 -0.32994,0.0541 -1.60121,0.0185 -2.64602,0.12969 -3.01879,0.32127 -5.63836,0.92236 -7.87491,1.80701 -4.15665,1.64412 -6.16921,2.65444 -8.79566,4.41548 -2.36886,1.58832 -3.48324,2.42513 -4.60164,3.45548 -0.39991,0.36843 -1.17223,1.0298 -1.71625,1.46972 -0.54403,0.43992 -1.46559,1.20799 -2.04791,1.70683 -1.75912,1.50692 -2.90205,2.32198 -4.05821,2.89406 -1.55207,0.76795 -1.94141,0.84809 -4.12027,0.84809 h -1.82865 v 0.30039 c 0.001,1.48148 -3.7e-4,0.0234 0.001,1.48148 0.004,2.95054 0.19507,5.41803 0.69397,8.94547 0.82237,5.81435 1.18609,11.21512 1.06865,15.86827 -0.10614,4.20602 -0.2431,5.68947 -1.1178,12.10708 -0.30036,2.20376 -0.56356,4.23923 -0.58489,4.52327 -0.0213,0.28405 -0.0663,0.62894 -0.0999,0.76641 -0.0336,0.13748 -0.22097,1.77967 -0.41631,3.64932 -0.33469,3.2033 -0.34901,3.48011 -0.24832,4.79911 0.12637,1.65521 0.34172,3.3794 0.61189,4.89909 0.58895,3.31284 0.968,6.24191 1.19034,9.19829 0.15824,2.10397 0.47455,5.26041 0.85165,8.49842 0.18572,1.5947 0.43142,3.79929 0.54599,4.89909 0.28978,2.7816 0.53877,4.64988 1.05263,7.89853 0.24355,1.53971 0.60389,3.96926 0.80076,5.39899 0.40142,2.91522 0.71167,4.77705 1.49946,8.99833 0.29762,1.5947 0.68122,3.7543 0.85247,4.79911 0.72143,4.40171 1.4223,7.39574 2.99579,12.79762 0.43248,1.48472 1.04163,3.66681 1.35366,4.84909 0.31202,1.18228 0.76403,2.78598 1.00447,3.56376 0.76047,2.46009 2.55377,6.91536 3.39479,8.43401 0.6031,1.08902 0.63789,1.13811 2.20216,3.10737 1.38846,1.74792 2.79906,3.22004 4.03969,4.21583 0.73975,0.59377 1.72469,1.46791 3.19192,2.83284 0.41847,0.38929 1.16578,1.03896 1.66069,1.44372 0.4949,0.40474 1.52971,1.34331 2.29957,2.08568 0.76985,0.74238 1.73717,1.67454 2.1496,2.07144 0.41242,0.39692 0.97482,1.04249 1.24977,1.43463 2.12787,3.03473 4.05041,5.0765 5.95095,6.32 2.02196,1.32293 3.31457,1.94888 4.59991,2.22752 0.8882,0.19253 3.3881,0.19817 4.26484,0.01 z"
       id="path861"
       inkscape:connector-curvature="0"
       sodipodi:nodetypes="cccccccccccccccccccccsccccccsccccccsccscccccscccscccccccccccccsccccccccccccccccscccccccscsccccscccccccsccccccccccccsccsccccccccccccccccc" />
    <path
       style="fill:#000000;stroke-width:0.0999814"
       d="m 142.8452,428.59363 c -1.29777,-3.61315 -2.30375,-8.54589 -2.95803,-14.50443 -0.41887,-3.81468 -0.55894,-6.17159 -0.7071,-11.89778 -0.12663,-4.89432 -0.12783,-30.00458 -0.002,-32.84389 0.24602,-5.53251 0.59967,-9.1216 1.64032,-16.64691 1.0278,-7.43244 1.7205,-13.87763 2.09003,-19.44638 0.0182,-0.27495 0.0413,-0.002 0.0512,0.60555 0.0272,1.66752 -0.33367,6.79298 -0.73869,10.49239 -0.22037,2.01271 -0.78088,6.48106 -1.29179,10.29808 -0.75766,5.66049 -1.13901,9.77559 -1.34799,14.54588 -0.0585,1.33485 -0.10206,8.08714 -0.101,15.64709 0.002,16.15753 0.12389,22.10349 0.55331,27.04638 0.55892,6.43335 1.54252,11.99502 2.95111,16.68664 0.15703,0.52301 0.27061,0.96582 0.2524,0.98403 -0.0182,0.0182 -0.19468,-0.4168 -0.39219,-0.96665 z"
       id="path859" />
    <path
       style="fill:#000000;stroke-width:0.0999814"
       d="m 128.49518,392.34325 c -0.22538,-2.3286 -0.16194,-6.41935 0.17756,-11.44787 0.35696,-5.28739 0.4058,-7.31206 0.4076,-16.89686 0.002,-9.08076 0.09,-14.34719 0.30263,-18.04664 0.28656,-4.98646 1.07736,-12.79771 1.89277,-18.69652 0.15963,-1.15479 0.31091,-2.25709 0.33616,-2.44955 0.0253,-0.19246 0.11629,-0.75486 0.20227,-1.24977 0.58407,-3.36149 1.46838,-10.19342 1.61121,-12.44768 0.10037,-1.58381 0.16903,-2.09961 0.27955,-2.09961 0.0725,0 0.0838,0.50777 0.0362,1.6247 -0.12486,2.92484 -0.44939,5.82695 -1.45988,13.0551 -0.91984,6.57973 -1.28082,9.58229 -1.79914,14.96469 -0.70391,7.30972 -0.8007,9.9947 -0.9011,24.99535 -0.087,12.99491 -0.0809,12.79787 -0.59536,19.24642 -0.20882,2.61753 -0.3911,6.14946 -0.436,8.44842 -0.014,0.71487 -0.0385,1.16479 -0.0544,0.99982 z"
       id="path857" />
    <path
       style="fill:#000000;stroke-width:0.0999814"
       d="m 135.31229,343.35236 c 0,-0.38493 0.0185,-0.53015 0.0402,-0.32271 0.0216,0.20744 0.0213,0.52238 -10e-4,0.69987 -0.0221,0.17749 -0.0398,0.008 -0.0394,-0.37716 z"
       id="path855" />
    <path
       style="fill:#000000;stroke-width:0.0999814"
       d="m 135.39859,340.40291 c -0.0451,-5.43554 0.7267,-13.20291 1.84298,-18.54655 0.13785,-0.65988 0.65418,-2.96703 1.14742,-5.12702 0.79978,-3.50243 1.34254,-6.24412 1.40913,-7.11811 0.0127,-0.16639 0.0652,-0.30254 0.11662,-0.30254 0.1316,0 0.0145,1.41157 -0.23503,2.8325 -0.11422,0.65054 -0.5855,2.90012 -1.04727,4.99907 -1.06498,4.84066 -1.47725,6.98742 -1.84658,9.61519 -0.65693,4.67407 -0.97662,8.33041 -1.33751,15.29715 -0.0171,0.32994 -0.0395,-0.41242 -0.0498,-1.64969 z"
       id="path853" />
    <path
       style="fill:#808080;stroke-width:0.0999814"
       d="m 178.87128,469.23458 c 0.41242,-0.0883 0.98607,-0.27924 1.27476,-0.42435 l 0.52491,-0.26386 0.002,-0.85849 c 0.001,-0.47217 0.0902,-1.39839 0.19814,-2.05826 0.37573,-2.40476 0.71739,-3.89376 0.67167,-5.84891 -0.0357,-1.26767 -0.0637,-1.42741 -0.46085,-2.62672 -0.23256,-0.70232 -0.4595,-1.25428 -0.50433,-1.22658 -0.0448,0.0277 -0.11099,-0.11754 -0.14704,-0.32275 -0.036,-0.20521 -0.12085,-0.501 -0.18842,-0.65734 -0.12039,-0.27845 -0.14054,-0.24909 -0.99403,1.44973 -1.3294,2.64611 -4.05131,6.92976 -5.7077,8.98261 -0.46588,0.5774 -1.36462,1.5816 -1.9972,2.23158 -0.63258,0.64997 -1.09841,1.19978 -1.03519,1.22179 0.0632,0.022 0.67734,0.13773 1.36471,0.25712 0.68737,0.11941 1.42974,0.25329 1.6497,0.29751 0.67993,0.13669 4.50686,0.0272 5.349,-0.15308 z"
       id="path851" />
    <path
       style="fill:#ff8080;stroke-width:0.0999814"
       d="m 121.25219,307.44467 c 1.41782,-0.62996 2.7169,-1.51552 4.41492,-3.0096 0.36522,-0.32136 1.24672,-1.0547 1.95886,-1.62963 0.71215,-0.57494 1.61198,-1.33855 1.99963,-1.69692 1.11152,-1.02759 1.94992,-1.66048 4.25415,-3.21143 2.31622,-1.55901 3.97776,-2.4568 6.54878,-3.53853 4.7371,-1.99309 6.72214,-2.5052 11.04795,-2.85023 1.34725,-0.10746 2.70196,-0.19559 3.01047,-0.19584 l 0.94072,-0.5184 -0.30949,-4.90609 c 0.0683,-5.26448 0.0199,-6.71163 -0.22924,-6.86562 -0.0536,-0.0331 -0.47235,-0.0353 -0.93055,-0.005 -0.77612,0.0515 -0.88098,0.0863 -1.53394,0.5087 -0.44981,0.29098 -1.05852,0.8446 -1.69926,1.54546 -3.89852,4.26429 -5.14143,5.10811 -11.41641,7.7506 -4.82647,2.0325 -7.36491,2.86463 -9.8742,3.23689 -1.31047,0.1944 -3.50039,0.22049 -4.59189,0.0547 -2.2174,-0.33683 -7.21513,-2.55214 -10.21332,-4.52719 -2.32882,-1.53411 -5.21569,-4.32583 -8.45033,-8.1718 -3.2168,-3.82478 -5.65784,-6.36165 -9.190355,-9.5512 -0.85119,-0.76851 -2.13437,-1.95973 -2.85152,-2.6471 -1.47474,-1.41352 -2.78255,-2.49686 -4.09927,-3.3957 l -0.89983,-0.61426 -0.18864,0.43028 c -0.10374,0.23665 -0.62709,1.39759 -1.16298,2.57987 -0.5359,1.18228 -1.19839,2.77948 -1.4722,3.54934 -0.78734,2.21374 -1.89332,5.82017 -1.80805,5.89581 0.018,0.016 0.27216,0.14931 0.56479,0.29633 0.29265,0.14701 1.07774,0.60944 1.74466,1.02761 0.66691,0.41817 2.13716,1.256 3.26722,1.86184 4.3615,2.33829 6.96307,4.09513 9.939395,6.7121 0.37735,0.33179 1.82534,1.85134 3.21774,3.37677 1.81846,1.99218 2.68804,3.02633 3.0868,3.67098 1.01464,1.64027 2.93461,5.512 3.56119,7.18132 0.10464,0.27879 1.78342,3.06217 3.04737,5.05248 0.61128,0.96258 1.5009,2.02137 2.15755,2.56784 l 0.61957,0.51561 2.30989,-0.0357 2.30989,-0.0357 z"
       id="path849"
       inkscape:connector-curvature="0"
       sodipodi:nodetypes="cccccsccccccccscccccccccccccccsccccccccc" />
    <path
       style="fill:#000000;stroke-width:0.0999814"
       d="m 132.57999,257.36863 c -0.11066,-0.13444 -0.14764,-0.42042 -0.14107,-1.09105 0.01,-0.97364 -0.0624,-0.72863 1.30976,-4.45819 0.41328,-1.12323 0.65519,-1.35776 0.71113,-0.6894 0.0213,0.25442 -0.1723,0.90132 -0.65827,2.1996 -0.79699,2.12921 -0.92785,2.58625 -1.01083,3.53011 -0.0556,0.63251 -0.0735,0.67567 -0.21072,0.50893 z"
       id="path841" />
    <path
       style="fill:none;stroke:#000000;stroke-width:0.37795275;stroke-linecap:round;stroke-linejoin:miter;stroke-miterlimit:4;stroke-dasharray:none;stroke-opacity:1"
       d="m 104.32129,238.56255 c 21.51613,-3.72158 40.64883,-2.90536 51.0498,13.79394"
       id="path843" />
    <path
       style="opacity:1;fill:#808080;fill-opacity:1;stroke:#808080;stroke-width:0.10439569;stroke-linecap:round;stroke-miterlimit:4;stroke-dasharray:none;stroke-opacity:1"
       d="m 164.06803,219.24713 c -0.75683,-0.44935 0.34527,0.5179 -2.27301,-1.37847 -0.5991,-0.76348 -4.19555,-9.28862 -4.86445,-11.29183 -0.41714,-1.24924 -1.0207,-4.61098 -1.61302,-8.6662 -0.54285,-3.71647 -1.1671,-8.95311 -1.55602,-11.38379 -0.96028,-4.61184 -1.00716,-4.99473 -0.88627,-10.70327 0.10099,-4.76858 0.47061,-7.48016 1.01912,-11.08308 0.76248,-5.00841 2.69156,-15.38223 3.55518,-19.71475 1.1765,-5.90207 1.38727,-28.34622 0.38145,-37.00087 -0.23429,-2.01594 -0.5715,-5.43409 -0.72827,-7.59587 -0.43515,-6.000901 -2.09509,-19.62635 -3.48468,-28.703435 -0.68607,-4.481565 -1.27912,-8.500544 -1.33898,-8.677868 -0.14543,-0.430816 1.70832,-0.79971 3.12093,-0.79971 0.64082,0 0.64959,0.308383 0.80017,0.157804 0.31185,-0.311857 2.87161,7.134916 4.43351,12.473777 2.20062,7.522089 3.74264,18.707403 3.73912,27.327602 -10e-4,3.05085 -0.25841,6.63805 -0.40269,7.92935 -0.86056,7.70201 -1.52412,19.14156 -1.53105,28.60537 l 0.13111,9.84011 0.77325,2.98026 c 1.34597,5.18758 4.22949,13.33806 5.90691,17.98274 2.9057,8.04571 4.25713,13.75188 5.98708,25.95878 1.67886,11.84644 2.8142,20.27834 2.44261,20.86744 -0.48128,0.76298 -4.22941,2.70654 -6.1949,3.15519 -1.01745,0.23225 -2.55445,0.40088 -3.66384,0.39945 -1.78949,-0.006 -0.44504,0.0731 -2.95886,-0.16083 z"
       id="path879"
       inkscape:connector-curvature="0"
       transform="translate(0,229.26665)"
       sodipodi:nodetypes="ccscccscccscscccsccsssccccc" />
    <path
       style="opacity:1;fill:#808080;fill-opacity:1;stroke:#808080;stroke-width:0.3882874;stroke-linecap:round;stroke-miterlimit:4;stroke-dasharray:none;stroke-opacity:1"
       d="m 78.009425,213.54928 c -0.02199,-0.14167 -0.805217,-3.47397 -1.554929,-6.98242 -3.554632,-16.63471 -3.767771,-32.81723 0.511797,-52.13499 2.509865,-11.32941 2.939921,-17.72438 2.780445,-21.875 -0.266135,-6.92657 -1.696224,-15.90868 -3.342786,-21.87214 -2.42801,-8.79368 -2.368313,-11.159744 -2.206265,-21.291923 0.229098,-14.324578 2.086687,-22.68387 5.714057,-31.25 1.306176,-3.08457 2.572343,-6.630859 2.9802,-7.8125 0.407858,-1.18164 0.87449,-2.992878 1.036962,-3.064939 0.07615,-0.210167 0.436169,0.292852 0.314727,0.09636 -0.426023,-0.68932 0.119731,-0.139066 3.483663,1.85648 1.866251,1.107094 3.520777,1.810243 3.592325,2.153344 0.581823,2.035524 0.346501,11.011871 -0.988829,17.318132 -0.831337,3.92609 -1.286912,10.038523 -1.614465,13.476563 -0.616604,6.471965 -1.743329,16.342836 -3.706689,33.203123 -2.104975,18.0764 -3.547743,33.82902 -3.724311,43.16406 -0.09441,4.99149 -0.352046,14.0284 -0.975867,20.11719 -0.614499,5.9978 -0.732305,15.79998 -0.982089,21.74302 -0.249784,5.94303 -0.661951,11.34046 -0.83153,12.05758 -0.169579,0.71712 -0.429899,2.25828 -0.451891,2.1166 z"
       id="path885"
       inkscape:connector-curvature="0"
       transform="translate(0,229.26665)"
       sodipodi:nodetypes="csssssscccscssssssscc" />
  </g>
</svg>
