<?xml version="1.0" encoding="UTF-8" standalone="no"?>
<!-- Created with Inkscape (http://www.inkscape.org/) -->

<svg
   xmlns:dc="http://purl.org/dc/elements/1.1/"
   xmlns:cc="http://creativecommons.org/ns#"
   xmlns:rdf="http://www.w3.org/1999/02/22-rdf-syntax-ns#"
   xmlns:svg="http://www.w3.org/2000/svg"
   xmlns="http://www.w3.org/2000/svg"
   xmlns:sodipodi="http://sodipodi.sourceforge.net/DTD/sodipodi-0.dtd"
   xmlns:inkscape="http://www.inkscape.org/namespaces/inkscape"
   viewBox="0 0 256 256"
   version="1.1"
   id="svg8"
   inkscape:version="0.92.3 (2405546, 2018-03-11)"
   sodipodi:docname="oriental_dancer_dress.svg">
  <defs
     id="defs2" />
  <sodipodi:namedview
     id="base"
     pagecolor="#ffffff"
     bordercolor="#666666"
     borderopacity="1.0"
     inkscape:pageopacity="0.0"
     inkscape:pageshadow="2"
     inkscape:zoom="1.979899"
     inkscape:cx="125.14453"
     inkscape:cy="138.72767"
     inkscape:document-units="px"
     inkscape:current-layer="layer1"
     showgrid="false"
     units="px"
     inkscape:window-width="1920"
     inkscape:window-height="1017"
     inkscape:window-x="1912"
     inkscape:window-y="-8"
     inkscape:window-maximized="1" />
  <metadata
     id="metadata5">
    <rdf:RDF>
      <cc:Work
         rdf:about="">
        <dc:format>image/svg+xml</dc:format>
        <dc:type
           rdf:resource="http://purl.org/dc/dcmitype/StillImage" />
        <dc:title></dc:title>
      </cc:Work>
    </rdf:RDF>
  </metadata>
  <g
     inkscape:label="Ebene 1"
     inkscape:groupmode="layer"
     id="layer1"
     transform="translate(0,-229.26665)">
    <path
       style="fill:#000000;stroke-width:0.27071825"
       d="m 122.5032,484.06212 c -1.73576,-0.42446 -4.46685,-2.24339 -4.46685,-2.97497 0,-0.17259 -0.22956,-0.19319 -0.60912,-0.0547 -0.94428,0.34455 -2.09771,-0.10926 -3.72237,-1.46453 -0.81892,-0.68313 -1.94093,-1.47796 -2.49336,-1.76624 -1.21466,-0.63395 -3.43594,-0.69183 -4.54477,-0.11845 -0.80199,0.41475 -2.16629,1.98983 -2.16629,2.50103 0,0.15613 -0.20998,0.36447 -0.46662,0.46293 -0.48747,0.18707 -1.15769,-0.46155 -1.15769,-1.12036 0,-0.19489 -0.098,-0.35435 -0.21779,-0.35435 -0.11979,0 -0.24269,-0.51775 -0.27312,-1.15055 -0.089,-1.85085 -0.92089,-8.17166 -1.10277,-8.37898 -0.0916,-0.10441 -0.65365,-0.0669 -1.2491,0.0833 -0.595448,0.15016 -2.970895,0.37643 -5.278766,0.50283 -2.307876,0.12637 -4.710042,0.38712 -5.338155,0.57944 -0.628112,0.19231 -1.236595,0.25509 -1.352185,0.1395 -0.11559,-0.11556 -0.257477,-8.88053 -0.315311,-19.47767 -0.101401,-18.58029 0.024,-24.80533 0.851768,-42.27857 0.192387,-4.06117 0.332651,-14.82597 0.331579,-25.44752 -0.002,-19.22585 -0.05307,-20.35099 -1.346991,-29.64364 -1.168252,-8.39013 -1.292829,-14.1938 -0.563673,-26.25967 1.566087,-25.91503 1.747531,-28.41783 2.89307,-39.90658 0.504588,-5.06059 0.55071,-6.8831 0.435019,-17.19061 -0.135662,-12.0872 -0.376256,-14.99679 -1.552608,-18.77642 -0.281981,-0.90601 -0.455481,-1.73986 -0.385551,-1.85301 0.133145,-0.21543 -7.434187,-2.77783 -9.10546,-3.08323 -1.221538,-0.22322 -1.847693,-0.60264 -1.451231,-0.87937 0.63197,-0.44112 1.189286,-4.52964 1.245459,-9.13675 0.03501,-2.86996 0.164007,-4.67707 0.342759,-4.8011 0.658669,-0.45702 2.860566,-0.15347 5.430293,0.74862 1.488952,0.52269 3.864504,1.26536 5.279006,1.65038 1.414505,0.38502 3.860617,1.22876 5.435804,1.87495 2.041248,0.83739 4.102127,1.41493 7.174034,2.01045 2.37053,0.45954 6.38105,1.25469 8.91226,1.76699 8.85599,1.79241 12.01442,2.15356 21.38674,2.4455 7.9293,0.24699 22.38589,-0.84342 29.10221,-2.19509 7.3009,-1.4693 11.15874,-2.62669 17.01772,-5.10546 2.53665,-1.07318 9.88317,-3.63504 12.21455,-4.25943 1.82099,-0.48769 2.83779,-0.53836 4.06608,-0.2026 0.68643,0.18763 0.80371,0.5785 0.80801,2.69301 0.003,1.70271 1.2763,9.31513 1.77472,10.61399 0.1936,0.50454 -1.00761,1.30037 -3.38689,2.24388 -1.11231,0.44108 -3.1224,1.44521 -4.46685,2.23138 -1.34446,0.78618 -3.32424,1.87742 -4.39954,2.42499 -1.07529,0.54757 -2.01132,1.14218 -2.08008,1.32135 -0.0688,0.17917 -0.26383,2.31651 -0.4335,4.74965 -0.33197,4.76089 -0.91166,9.58172 -2.02936,16.87694 -0.66286,4.3265 -0.70822,5.25905 -0.75708,15.5663 -0.0576,12.13179 -0.0561,12.15052 2.26479,29.64365 0.59264,4.46685 1.19392,10.25345 1.33619,12.85911 0.75806,13.88429 1.10499,57.96066 0.52844,67.13812 -0.15434,2.45677 -0.81528,8.30428 -1.46876,12.99448 -0.65348,4.6902 -1.32546,10.35497 -1.4933,12.5884 -0.16783,2.23342 -0.47611,5.64447 -0.68506,7.58011 -0.9088,8.41882 -1.03434,10.33779 -1.0449,15.97238 -0.009,4.3464 0.11843,6.83365 0.46841,9.20441 0.26376,1.78674 0.44155,4.02497 0.39508,4.97384 -0.0817,1.66911 -0.1127,1.73514 -0.95226,2.03039 -0.57395,0.20184 -1.42376,1.01557 -2.50975,2.40323 -1.261,1.61126 -1.79769,2.09806 -2.31315,2.09806 -0.36915,0 -0.67119,0.0997 -0.67119,0.22159 0,0.57469 0.93119,3.2519 1.66646,4.79119 0.79227,1.65862 0.92268,2.59061 0.36393,2.60094 -0.1489,0.003 -0.47987,0.19426 -0.7355,0.42562 -0.65692,0.5945 -1.49779,0.52551 -3.53634,-0.29002 -2.01873,-0.80761 -4.03408,-0.92364 -5.48843,-0.31599 -0.51949,0.21706 -1.67033,0.95315 -2.55741,1.63574 -2.72587,2.0975 -4.3079,2.45576 -7.13237,1.61513 -1.62322,-0.48312 -2.13357,-0.87123 -3.48843,-2.65285 -0.54727,-0.71962 -1.51841,-1.76771 -2.15811,-2.32906 -3.11181,-2.73074 -4.74483,-2.74631 -12.79514,-0.12202 -3.35332,1.09313 -5.01224,2.13523 -5.70114,3.58138 -0.25946,0.54466 -0.66822,1.40658 -0.90835,1.91536 -0.72609,1.53833 -2.66854,3.49669 -3.77247,3.80327 -1.12326,0.312 -4.36798,0.327 -5.59924,0.026 z m 6.19855,-1.08231 c 0.46646,-0.28828 1.12255,-0.89534 1.45797,-1.34903 0.59913,-0.81035 0.60859,-0.94289 0.53744,-7.5297 l -0.0724,-6.70483 -3.38397,0.0189 c -3.89493,0.0219 -4.40454,0.15131 -8.73067,2.21657 -2.24568,1.07207 -3.18093,1.65596 -3.18093,1.98585 0,1.37969 2.61149,7.95246 3.34588,8.42108 0.16333,0.1042 0.42742,0.59151 0.58688,1.08286 0.2234,0.68844 0.62405,1.06417 1.74645,1.63785 1.30051,0.66472 1.74519,0.74447 4.1509,0.74447 2.19226,0 2.85242,-0.0977 3.54248,-0.52416 z m -11.32587,-2.53402 c 0.0741,-0.19306 -0.29698,-1.2853 -0.82458,-2.42721 -0.5276,-1.14195 -1.22892,-3.03199 -1.55847,-4.20014 l -0.59921,-2.12392 -3.72263,0.11882 -3.72263,0.11879 -1.84935,-1.11739 c -2.13004,-1.28699 -3.1212,-1.46006 -2.91053,-0.50827 0.0742,0.33501 0.32619,2.37556 0.56007,4.53453 0.5776,5.3316 0.48831,5.15444 1.82981,3.63041 1.32162,-1.50143 2.39169,-2.00611 4.25357,-2.00611 1.7332,0 2.71353,0.43294 4.69612,2.0739 1.53088,1.26707 3.0655,2.25629 3.5016,2.25716 0.11634,2.5e-4 0.27215,-0.15753 0.34623,-0.35057 z m 43.36144,-0.98179 c 0.47928,-0.13744 1.93211,-1.02067 3.2285,-1.96271 l 2.35707,-1.71278 2.23586,-0.0948 c 1.95274,-0.0828 2.43054,-0.005 3.77341,0.60912 1.82372,0.83491 2.58087,0.88177 3.19969,0.19797 0.43289,-0.47833 0.40673,-0.62238 -0.47931,-2.6395 -0.51546,-1.17345 -1.08255,-2.71222 -1.26021,-3.41947 -0.24821,-0.9881 -0.4462,-1.28592 -0.85487,-1.28592 -0.29345,0 -0.4833,-0.14567 -0.42355,-0.32494 0.0999,-0.29982 -0.8188,-0.69556 -4.6654,-2.00954 -2.61521,-0.89334 -7.2393,0.0605 -9.5163,1.96279 -1.44558,1.20775 -2.42632,1.71159 -3.23895,1.66394 -0.35492,-0.0209 -0.98032,-0.0154 -1.38978,0.0117 l -0.74448,0.0498 v 2.5088 2.5088 l 1.24546,1.42373 c 2.02962,2.32017 4.2404,3.17063 6.53286,2.51317 z m -28.89435,-0.84813 c 0,-0.76495 1.80268,-2.63681 3.23145,-3.35547 1.24893,-0.62824 5.25894,-1.93347 8.31316,-2.70591 3.33957,-0.84459 6.18184,-0.34611 8.01479,1.40559 l 0.74447,0.7115 v -2.04265 -2.04265 l -3.58701,-0.15869 c -3.69357,-0.16344 -7.01225,-0.81825 -11.31682,-2.23292 -1.21036,-0.39779 -2.81215,-0.6978 -3.92542,-0.7352 l -1.88069,-0.0632 -0.073,6.0427 c -0.0489,4.05371 0.0179,5.98656 0.20304,5.87212 0.15178,-0.0938 0.27595,-0.40665 0.27595,-0.6952 z m -17.76731,-7.57399 c 0.079,-0.0795 -0.14541,-1.90678 -0.49868,-4.06078 -0.57163,-3.48542 -1.63685,-10.53546 -4.22144,-27.93906 -1.9845,-13.36286 -2.24872,-20.75442 -2.06373,-57.73419 0.15271,-30.52898 0.31696,-36.65068 1.43451,-53.46685 1.09706,-16.50775 1.19123,-31.31099 0.22905,-36.00552 -0.11792,-0.57535 -0.10221,-0.59564 0.10477,-0.13536 1.19507,2.65747 1.37032,19.67681 0.36238,35.19337 -1.24993,19.24191 -1.69857,42.77567 -1.38572,72.68784 0.28409,27.16189 0.2044,26.12846 3.94516,51.16211 2.69632,18.04408 2.98711,19.76607 3.33785,19.76607 0.11906,0 1.78403,-0.7614 3.69993,-1.692 l 3.48346,-1.69198 4.06078,-0.13536 4.06076,-0.13536 0.0868,-3.6547 c 0.12219,-5.14666 -0.40419,-13.02342 -1.15786,-17.32596 -0.35209,-2.01008 -1.07762,-6.15208 -1.61228,-9.20443 -2.30094,-13.1359 -3.47897,-22.28741 -3.94399,-30.63876 -0.98079,-17.61444 -0.98207,-36.58907 -0.003,-48.41095 0.30204,-3.64793 0.62878,-9.31272 0.72611,-12.5884 0.13375,-4.50199 0.2398,-5.72452 0.43441,-5.00829 0.33492,1.23247 0.0703,9.56716 -0.54581,17.19061 -0.92035,11.38832 -0.57279,42.49446 0.6201,55.49723 0.57455,6.26273 2.47204,18.97526 4.18221,28.01934 1.55321,8.21405 1.68944,9.53172 1.86114,18.00277 l 0.16462,8.12154 2.43646,0.17175 c 1.34007,0.0945 2.98467,0.37591 3.65471,0.62544 3.16375,1.17824 7.73495,2.09576 11.16712,2.24143 1.92559,0.0817 3.45163,0.0409 3.45161,-0.0924 -4e-4,-2.41922 -1.36666,-16.98095 -2.72724,-29.07046 -1.08518,-9.64231 -1.33729,-11.41 -3.59068,-25.1768 -1.42738,-8.72034 -2.69087,-18.41311 -3.31716,-25.4475 -0.35427,-3.97884 -0.4161,-6.95591 -0.30088,-14.48343 0.14996,-9.79726 0.47412,-15.26719 1.74066,-29.37293 0.63542,-7.07687 0.74178,-9.61105 0.74416,-17.73204 0.002,-6.8205 0.0658,-8.79252 0.22766,-7.03868 0.50284,5.44793 0.31002,16.65585 -0.43781,25.44751 -1.68603,19.82156 -2.13404,34.40193 -1.32258,43.04421 0.82643,8.80176 2.46526,20.59415 4.51472,32.48618 1.77171,10.28039 5.01064,39.88262 5.01064,45.7947 0,1.01221 0.11811,1.50796 0.38357,1.60983 0.73806,0.28319 3.67024,-0.77339 5.09392,-1.83561 3.26694,-2.43746 8.09926,-2.80529 12.29529,-0.93591 1.21355,0.54066 2.37088,0.9831 2.57181,0.98321 0.29927,1.9e-4 0.34994,-1.23632 0.28016,-6.83563 -0.14882,-11.94182 0.67234,-20.01204 3.06454,-30.11761 1.74115,-7.35529 2.86832,-14.52284 4.47984,-28.48678 1.48112,-12.83393 1.25618,-25.58322 -0.97568,-55.3005 -0.37461,-4.98799 -0.93235,-11.62735 -1.23942,-14.75415 -1.28558,-13.09087 -0.73854,-40.40637 1.0518,-52.51933 0.33652,-2.27677 0.46304,-5.67093 0.53738,-14.41575 0.0535,-6.29082 0.0168,-11.43784 -0.0815,-11.43784 -1.07222,0 -10.13432,6.4958 -12.84836,9.20984 -2.49457,2.49458 -6.36967,7.14034 -7.36464,8.82931 -0.51448,0.87334 -1.48784,2.44068 -2.16299,3.48294 -1.67257,2.58202 -3.3372,5.95688 -4.55294,9.23065 -0.5583,1.50337 -1.35607,3.2698 -1.77282,3.92541 -0.41677,0.6556 -1.09167,1.87702 -1.49977,2.71423 -0.40811,0.83723 -1.07178,1.78162 -1.4748,2.09864 -2.23597,1.75882 -9.46477,2.13627 -15.41247,0.80479 -1.61216,-0.36091 -3.38397,-1.20693 -3.38397,-1.61582 0,-0.16083 -0.71073,-1.77819 -1.57939,-3.59414 -2.58424,-5.40234 -5.22219,-9.523 -11.27225,-17.60805 -6.40281,-8.55643 -11.73461,-13.95469 -16.26872,-16.47153 -1.562675,-0.86741 -6.431416,-3.17202 -6.701254,-3.17202 -0.160604,0 0.366346,3.90587 1.296573,9.61049 1.031171,6.32369 1.389243,11.27109 1.763402,24.36465 0.155702,5.44883 0.411624,9.57913 0.729672,11.77624 0.721738,4.98584 0.728264,39.01462 0.0094,49.27072 -0.266111,3.79682 -0.59812,12.01989 -0.737806,18.27348 -0.139683,6.25358 -0.408527,13.1366 -0.59743,15.29557 -0.240053,2.74361 -0.343942,10.16046 -0.345068,24.63537 -0.0012,18.35443 0.05345,21.12562 0.482436,24.36464 0.266229,2.01008 0.725636,5.90842 1.020908,8.66298 0.650852,6.07175 0.82659,7.21985 2.030463,13.26519 0.849414,4.2654 1.976334,11.58947 2.430304,15.79497 0.15099,1.3987 0.23221,1.56622 0.70006,1.44388 0.30802,-0.0806 0.72291,0.0656 0.99251,0.34953 0.25479,0.26836 1.07237,0.87426 1.81684,1.34638 l 1.35359,0.85843 3.56525,-0.083 c 1.96088,-0.0457 3.62987,-0.14806 3.70887,-0.22749 z m 49.61822,-42.28699 c -0.94739,-17.79554 -1.10971,-25.45026 -0.98311,-46.36417 0.16084,-26.57315 0.14434,-44.59997 -0.0496,-54.27901 -0.0821,-4.09461 -0.0591,-6.53107 0.0511,-5.41435 0.11019,1.11671 0.36055,7.55527 0.55635,14.30791 0.28546,9.84491 0.29445,16.76433 0.0455,34.92265 -0.19453,14.1843 -0.22133,25.28363 -0.0717,29.70699 0.73341,21.68335 0.99342,37.29645 0.45163,27.11998 z m -73.676867,41.32666 c 0.811566,-0.25303 2.654455,-0.45596 4.60221,-0.50669 1.786739,-0.0465 4.022609,-0.23911 4.968598,-0.42788 l 1.719979,-0.34324 -0.18032,-2.05732 c -0.29666,-3.38462 -1.169507,-9.02597 -2.307929,-14.91647 -1.031106,-5.33524 -1.674293,-9.52573 -2.03603,-13.2652 -0.09362,-0.96781 -0.403324,-3.64793 -0.688225,-5.95579 -1.004147,-8.13421 -1.143545,-12.57661 -0.97692,-31.1326 0.08757,-9.75262 0.282618,-19.01118 0.433435,-20.57459 0.150817,-1.5634 0.394642,-8.02003 0.541833,-14.34806 0.241129,-10.36635 0.878016,-24.31025 1.224928,-26.81827 0.268896,-1.94402 0.166951,-36.67234 -0.114786,-39.10162 -0.155414,-1.34006 -0.409175,-3.47196 -0.563915,-4.73756 -0.15474,-1.26562 -0.393579,-6.74766 -0.530755,-12.18233 -0.315011,-12.48 -0.605368,-16.55896 -1.599494,-22.46962 -0.438248,-2.60566 -0.874081,-5.52942 -0.968519,-6.49723 -0.286662,-2.93781 -0.281083,-2.92735 -1.957468,-3.66873 -0.843207,-0.37291 -1.807361,-0.74685 -2.142557,-0.83097 l -0.609449,-0.15297 0.497014,1.31115 c 0.693069,1.82832 1.262966,5.23243 1.647152,9.83875 0.447996,5.37144 0.20489,22.98132 -0.381206,27.61327 -0.450818,3.56281 -1.558954,17.51724 -2.063819,25.98894 -0.164156,2.75457 -0.411766,6.77473 -0.550247,8.93371 -1.016102,15.8417 -0.979247,19.87336 0.273433,29.91436 1.399192,11.2154 1.481548,12.82707 1.487111,29.10221 0.0047,13.91259 -0.182771,21.41787 -0.950386,38.03644 -0.22139,4.79303 -0.39755,49.68212 -0.194938,49.67334 0.03724,-0.003 0.676797,-0.19286 1.42127,-0.42503 z m 86.510047,-2.72691 c 0.51257,-0.6929 1.17559,-1.60717 1.47338,-2.03168 0.29779,-0.42451 0.93736,-0.91755 1.42127,-1.09565 0.86162,-0.31711 0.87983,-0.35812 0.87983,-1.98197 0,-0.91198 -0.19948,-2.98897 -0.4433,-4.6155 -0.77751,-5.18686 -0.57989,-15.69569 0.45016,-23.93802 0.13955,-1.1167 0.49959,-4.95414 0.80008,-8.52762 0.30049,-3.57348 0.91779,-8.99461 1.37176,-12.04696 1.61206,-10.83894 1.64759,-11.41667 1.80669,-29.37293 0.14894,-16.81097 -0.23714,-43.11956 -0.76278,-51.97789 -0.1502,-2.53122 -0.74692,-8.196 -1.32605,-12.58841 -2.07687,-15.75219 -2.57937,-22.00614 -2.36009,-29.37292 0.21199,-7.12151 -0.23586,-2.60978 -0.76059,7.66242 -0.65783,12.87783 -0.4621,27.25623 0.50744,37.2768 0.38897,4.02017 1.15741,13.40056 1.70763,20.84531 0.95783,12.96002 1.00123,14.12908 1.01992,27.4779 0.0213,15.19891 0.0968,14.02826 -1.8948,29.37292 -1.2232,9.42454 -1.49534,11.00836 -3.09331,18.00277 -2.6293,11.5086 -3.00628,14.77658 -3.17731,27.54356 -0.0723,5.39633 -0.061,9.99515 0.0251,10.2196 0.32177,0.83852 1.39049,0.45199 2.35491,-0.85173 z m -31.4751,-173.38707 c 1.01017,-0.17591 1.96214,-0.51868 2.25561,-0.81215 0.27929,-0.27929 0.67552,-0.50779 0.88053,-0.50779 0.205,0 0.62179,-0.57866 0.92619,-1.28591 0.3044,-0.70725 0.9844,-2.00133 1.51112,-2.87574 0.5267,-0.87439 1.28461,-2.57992 1.68423,-3.79005 0.83852,-2.53916 3.24434,-7.47787 4.69842,-9.64499 0.54947,-0.81891 1.40515,-2.20726 1.90151,-3.08521 0.99301,-1.7564 2.89996,-4.11858 6.4294,-7.96426 3.06596,-3.34068 10.08687,-8.63213 14.52827,-10.94954 l 3.23671,-1.68884 0.46941,-2.36176 c 0.69857,-3.51465 1.45848,-5.66813 3.29609,-9.34059 0.91095,-1.82056 1.57777,-3.38861 1.48183,-3.48455 -0.096,-0.096 -1.12409,0.38209 -2.28475,1.06231 -1.16066,0.68022 -2.65849,1.47909 -3.32852,1.77526 -2.16164,0.95551 -7.93723,2.68224 -13.58128,4.06042 -10.68694,2.60956 -13.52336,2.87056 -30.68116,2.8232 -7.43337,-0.0206 -14.21733,-0.16114 -15.43094,-0.31984 -1.19116,-0.15577 -5.02859,-0.65209 -8.52762,-1.10293 -8.5347,-1.09967 -12.82739,-2.17812 -18.423346,-4.62846 -1.273588,-0.55769 -3.143403,-1.26231 -4.155146,-1.56584 l -1.839533,-0.55188 0.180569,0.96252 c 0.09931,0.52939 0.540827,2.01349 0.98114,3.29801 0.690324,2.01385 1.706268,5.71435 2.257717,8.22359 0.08999,0.40945 0.298093,0.74447 0.462458,0.74447 0.51774,0 7.434791,3.41943 8.942451,4.42068 3.97622,2.64064 8.95854,7.83691 14.28124,14.89449 4.37019,5.7946 6.02328,8.15597 8.30325,11.86083 1.98449,3.22474 5.25229,9.71069 5.25229,10.4248 0,1.28266 9.58972,2.2286 14.29186,1.40975 z m 36.87789,-29.74536 c 0.38047,-3.29142 1.03505,-11.20793 0.93612,-11.32137 -0.0415,-0.0476 -0.5746,0.16806 -1.1846,0.47926 l -1.10911,0.56583 0.001,5.47654 c 8.1e-4,3.01209 0.0844,6.8775 0.186,8.5898 l 0.18478,3.11326 0.34415,-2.16575 c 0.18927,-1.19116 0.47792,-3.32307 0.64143,-4.73757 z m 6.97919,-16.02902 c 2.28362,-1.37082 6.81316,-3.46269 7.4978,-3.46269 0.20711,0 0.43713,-0.098 0.51116,-0.21779 0.074,-0.11979 -0.22333,-2.02894 -0.66082,-4.24258 -0.43747,-2.21362 -0.79541,-4.85664 -0.79541,-5.87336 0,-1.05191 -0.11667,-1.84859 -0.27072,-1.84859 -0.1489,0 -0.27073,0.12717 -0.27073,0.28259 0,0.15542 -0.17093,0.24678 -0.37985,0.20304 -0.63417,-0.1328 -5.56761,2.57769 -5.572,3.06133 -0.002,0.23853 -0.65463,1.76132 -1.4499,3.38398 -1.48649,3.03298 -2.60729,6.15421 -3.14946,8.77072 -0.1697,0.81892 -0.36571,1.76675 -0.4356,2.10628 l -0.12707,0.61734 1.42849,-0.71613 c 0.78567,-0.39387 2.43902,-1.32274 3.67411,-2.06414 z m -96.049485,1.79374 c 0,-0.63483 -1.028286,-4.57472 -1.760495,-6.74538 -0.351583,-1.04226 -0.889517,-2.76132 -1.195411,-3.82013 -0.541651,-1.87484 -0.589844,-1.93964 -1.845711,-2.48182 -4.023114,-1.73684 -7.802362,-3.30854 -7.955542,-3.30854 -0.09675,0 -0.237145,2.10145 -0.311998,4.66989 -0.08934,3.06575 -0.282454,5.17701 -0.562173,6.14624 -0.234343,0.812 -0.384462,1.51798 -0.333601,1.56884 0.05086,0.0508 1.051415,0.3252 2.223452,0.60963 2.279235,0.55315 10.214997,3.11767 10.914629,3.52718 0.614086,0.35943 0.82685,0.31674 0.82685,-0.16591 z m 53.874605,-4.98157 c 6.86086,-0.26652 13.17093,-0.84746 16.25898,-1.49688 9.1604,-1.92646 18.36041,-4.68633 21.22351,-6.36675 1.0366,-0.60839 3.69769,-2.04312 5.91353,-3.18826 5.64336,-2.91648 3.89447,-2.89005 -4.12748,0.0624 -1.85234,0.68175 -3.46762,1.23953 -3.5895,1.23953 -0.12188,0 -1.47509,0.53541 -3.00715,1.18979 -4.52774,1.93391 -9.76102,3.57444 -14.67081,4.59899 -6.77362,1.4135 -7.01597,1.44394 -17.48311,2.1951 -8.8081,0.6321 -10.16032,0.6671 -15.80307,0.40895 -8.99729,-0.41162 -12.34524,-0.81233 -19.23315,-2.302 -1.63785,-0.35424 -5.50186,-1.13651 -8.58671,-1.7384 -4.537232,-0.88526 -6.15285,-1.32672 -8.456487,-2.31066 -1.566223,-0.66898 -3.829991,-1.46713 -5.030591,-1.77366 -1.200597,-0.30654 -3.537259,-1.04047 -5.192576,-1.63096 -4.283735,-1.52809 -5.600809,-1.42149 -1.658192,0.13422 1.661108,0.65545 3.523086,1.44828 4.137736,1.76186 0.614647,0.31356 1.242865,0.49267 1.396034,0.39801 0.153172,-0.0947 0.484007,0.0113 0.735191,0.23553 0.251187,0.2242 1.370373,0.68109 2.487085,1.01531 1.116713,0.33423 3.080799,1.06716 4.364633,1.62873 5.098987,2.23038 10.685747,3.64334 17.563547,4.442 2.01008,0.23341 4.93383,0.61975 6.49723,0.85854 1.73411,0.26485 5.79836,0.50752 10.42265,0.6223 4.16906,0.10346 7.94558,0.20749 8.39226,0.23111 0.44669,0.0237 3.79759,-0.073 7.44644,-0.21476 z"
       id="path4529"
       inkscape:connector-curvature="0" />
    <path
       style="opacity:1;fill:#ff2a2a;fill-opacity:1;stroke:#ff5555;stroke-width:0.289;stroke-linecap:round;stroke-miterlimit:4;stroke-dasharray:none;stroke-opacity:1"
       d="m 138.42194,15.881701 c -0.17188,-0.01418 -2.10045,-0.0692 -4.28572,-0.122261 -8.62173,-0.209354 -11.20854,-0.35913 -14.6875,-0.850401 -0.83482,-0.117888 -2.98437,-0.39901 -4.77678,-0.624716 C 106.25037,13.22385 102.42089,12.251232 95.698724,9.4654696 94.91301,9.1398583 93.426403,8.589231 92.395153,8.2418534 90.549045,7.61999 89.778973,7.3007121 89.470915,7.0294406 89.376143,6.945986 89.107651,6.8830232 88.789407,6.8696236 88.361549,6.8516086 88.026674,6.7398883 86.981502,6.2664742 86.275974,5.9469029 84.935331,5.3760759 84.002296,4.9979699 81.865024,4.1318561 80.909052,3.674243 81.142897,3.6292087 c 0.310954,-0.059884 1.119444,0.1664068 4.109399,1.1501935 1.620535,0.5332061 3.709821,1.188793 4.642857,1.4568599 1.870801,0.5374927 3.308908,1.0405447 5.401785,1.8895526 2.676417,1.0857296 3.119458,1.1977454 11.294642,2.8556743 3.29018,0.667248 6.76563,1.373846 7.72322,1.570217 4.46892,0.916433 7.64792,1.321862 12.85714,1.639716 4.41674,0.269499 6.53543,0.349571 9.28571,0.350935 2.98771,0.0015 3.87327,-0.04226 10.75893,-0.531401 9.50999,-0.67557 10.85116,-0.832779 15.90671,-1.864548 6.56176,-1.339167 10.55827,-2.5619422 16.86115,-5.158847 1.12946,-0.4653605 2.29464,-0.9160079 2.58928,-1.0014386 0.29465,-0.085431 1.80134,-0.6090643 3.34822,-1.1636302 4.52606,-1.6226254 7.19356,-2.4354744 7.38013,-2.2488979 0.19705,0.1970407 -0.7617,0.7910583 -4.21049,2.6087195 -1.375,0.7246851 -3.17594,1.6924961 -4.00211,2.1506911 -1.73467,0.9620641 -2.58055,1.3548729 -4.25682,1.9768009 -5.36267,1.9896492 -15.74566,4.6801762 -20.55608,5.3266582 -4.27079,0.573961 -9.08658,0.91125 -16.67606,1.167959 -3.69581,0.125009 -4.46159,0.136437 -5.17857,0.07728 z"
       id="path4535"
       inkscape:connector-curvature="0"
       transform="translate(0,229.26665)" />
    <path
       style="opacity:1;fill:#ff8080;fill-opacity:1;stroke:#ff8080;stroke-width:0.378;stroke-linecap:round;stroke-miterlimit:4;stroke-dasharray:none;stroke-opacity:1"
       d="M 91.155597,20.478736 C 89.706574,19.870147 83.426549,17.879059 80.750941,17.179931 79.2199,16.779874 78.933578,16.650927 79.013959,16.397669 79.407447,15.1579 79.654854,13.070572 79.817803,9.6157976 79.922033,7.4059762 80.047321,5.3421839 80.096221,5.0295925 l 0.08891,-0.568348 2.092376,0.8635421 c 4.944841,2.0407801 6.526477,2.7844341 6.849119,3.2203196 0.354396,0.4787843 1.687851,4.5877668 2.818896,8.6863058 0.756679,2.741958 0.915778,3.671917 0.638646,3.732978 -0.09821,0.02164 -0.741071,-0.196905 -1.428571,-0.485654 z"
       id="path4537"
       inkscape:connector-curvature="0"
       transform="translate(0,229.26665)" />
    <path
       style="opacity:1;fill:#ffaaaa;fill-opacity:1;stroke:#ff8080;stroke-width:0.378;stroke-linecap:round;stroke-miterlimit:4;stroke-dasharray:none;stroke-opacity:1"
       d="m 183.92345,21.507914 c 0,-0.04474 0.23447,-1.111532 0.52103,-2.370657 0.66201,-2.908758 1.50266,-5.300571 2.98793,-8.501255 0.64778,-1.3959337 1.27539,-2.8193115 1.39469,-3.1630615 0.13421,-0.3867013 0.53793,-0.8692716 1.05886,-1.2656656 1.03674,-0.7888991 4.03503,-2.305763 4.55766,-2.305763 0.21115,0 0.43274,-0.1272733 0.49243,-0.2828296 0.19264,-0.5020061 0.41001,0.1115527 0.41651,1.1756867 0.007,1.1779004 0.36305,3.7570231 0.97678,7.079475 0.63693,3.448118 0.65629,3.319608 -0.55614,3.692945 -1.45396,0.447714 -4.59242,1.975442 -7.85379,3.823037 -3.2041,1.815156 -3.99596,2.234884 -3.99596,2.118088 z"
       id="path4539"
       inkscape:connector-curvature="0"
       transform="translate(0,229.26665)" />
    <path
       style="opacity:1;fill:#ff2a2a;fill-opacity:1;stroke:#ff5555;stroke-width:0.378;stroke-linecap:round;stroke-miterlimit:4;stroke-dasharray:none;stroke-opacity:1"
       d="m 137.14787,64.792101 c -3.99288,-0.333323 -6.13801,-0.915425 -6.34006,-1.720439 -0.17534,-0.698641 -2.064,-4.606898 -3.41608,-7.069014 -4.54663,-8.279338 -13.63827,-20.303074 -19.73611,-26.101118 -3.29363,-3.131693 -5.88382,-4.789156 -11.589309,-7.416 -1.129464,-0.520012 -2.116377,-1.003293 -2.193139,-1.073958 -0.07676,-0.07066 -0.46151,-1.367461 -0.854996,-2.88177 -0.393486,-1.51431 -1.147599,-4.15954 -1.675807,-5.87829 -0.528207,-1.71875 -1.007187,-3.3394388 -1.064399,-3.6015306 l -0.104021,-0.4765307 1.472967,0.4490921 c 0.810131,0.2470005 2.919395,1.0360502 4.687252,1.7534442 6.707812,2.722018 9.536122,3.376904 21.250002,4.920356 5.11804,0.674368 6.03422,0.743263 12.14286,0.913125 7.21846,0.200722 21.72026,0.081 25.26785,-0.208598 4.3734,-0.357014 8.18109,-1.03931 14.44663,-2.588677 8.20821,-2.029756 12.47041,-3.461193 15.90536,-5.3417272 2.33183,-1.2766063 2.8623,-1.5071618 2.8623,-1.2440265 0,0.060853 -0.597,1.3703649 -1.32667,2.9100267 -0.72967,1.539662 -1.56509,3.399568 -1.85649,4.133124 -0.49355,1.242431 -1.36596,4.502086 -1.81319,6.774779 l -0.19327,0.982143 -2.36055,1.245891 c -4.66033,2.459711 -10.97023,7.041404 -14.47265,10.508766 -1.68927,1.672352 -4.57157,4.942168 -5.82269,6.605518 -0.75542,1.004314 -2.87625,4.381455 -4.45015,7.086254 -1.13579,1.951894 -2.87599,5.710623 -3.84436,8.303571 -0.99169,2.655398 -3.46353,7.220664 -4.12784,7.62373 -1.04864,0.636259 -2.03715,1.043115 -2.95931,1.217999 -1.36169,0.258239 -5.67632,0.353992 -7.83413,0.17386 z"
       id="path4541"
       inkscape:connector-curvature="0"
       transform="translate(0,229.26665)" />
    <path
       style="opacity:1;fill:#ffb380;fill-opacity:1;stroke:#ffb380;stroke-width:0.456;stroke-linecap:round;stroke-miterlimit:4;stroke-dasharray:none;stroke-opacity:1"
       d="m 174.4308,229.92248 c 0.005,-11.3482 0.38199,-15.81909 1.98634,-23.52877 0.68956,-3.31364 1.63624,-7.87301 2.10373,-10.13194 1.37197,-6.62932 3.39733,-22.82743 3.80464,-30.42822 0.70027,-13.06737 -0.17262,-32.87558 -2.75104,-62.42892 -0.63258,-7.25055 -0.75571,-30.328178 -0.20199,-37.857147 l 0.30207,-4.107142 0.0619,4.464285 c 0.069,4.97637 0.57015,10.318103 2.17327,23.165309 1.7882,14.330375 1.92529,18.003485 1.95458,52.370405 l 0.0271,31.78572 -1.13857,8.03571 c -0.62622,4.41964 -1.39518,10.6875 -1.70881,13.92857 -0.31363,3.24107 -0.72924,7.3038 -0.92357,9.02828 -0.19433,1.72448 -0.50784,5.98341 -0.69668,9.46428 -0.3227,5.9481 -0.24619,8.31134 0.58307,18.00999 0.23302,2.72529 0.226,2.75682 -0.70847,3.18259 -0.5191,0.23652 -1.59163,1.28805 -2.38339,2.33673 -2.85659,3.50505 -3.03749,3.51173 -2.48418,-7.28973 z"
       id="path4547"
       inkscape:connector-curvature="0"
       transform="translate(0,229.26665)"
       sodipodi:nodetypes="ccccsccsssccsscsccc" />
    <path
       style="opacity:1;fill:#ffb380;fill-opacity:1;stroke:#ffb380;stroke-width:0.556;stroke-linecap:round;stroke-miterlimit:4;stroke-dasharray:none;stroke-opacity:1"
       d="m 88.712801,219.78557 c -1.9e-5,-12.94475 0.219182,-26.83573 0.562821,-35.66666 0.394861,-10.1472 0.517765,-19.9539 0.411787,-32.85714 -0.143399,-17.45949 -0.200398,-18.77346 -1.123212,-25.89286 -0.783283,-6.04294 -0.974181,-8.95705 -0.98262,-15 -0.013,-9.30675 1.272099,-29.808019 3.302091,-52.678569 0.243126,-2.739137 0.332613,-9.294704 0.231572,-16.964286 -0.144789,-10.990273 -0.255106,-12.90776 -0.913388,-15.876108 -0.411791,-1.856859 -0.687566,-3.437252 -0.612833,-3.511985 0.139087,-0.139087 3.408713,1.223761 3.410533,1.421582 5.36e-4,0.06015 0.483248,3.387305 1.072654,7.393674 1.125459,7.650078 1.597996,13.972584 1.951325,26.108551 0.117236,4.026786 0.460956,9.941522 0.763822,13.143854 0.443936,4.693939 0.520939,9.573978 0.397296,25.178571 -0.08435,10.645886 -0.336385,22.409716 -0.560072,26.141856 -1.167495,19.47926 -2.058941,60.97012 -1.534385,71.41537 0.470884,9.37652 1.735294,20.34441 3.418838,29.65606 1.159294,6.41205 2.06676,12.22088 2.4909,15.94465 0.1871,1.64265 0.17746,1.66108 -0.98297,1.87878 -0.644555,0.12092 -3.090061,0.37416 -5.434453,0.56275 -2.344393,0.1886 -4.62414,0.44671 -5.066104,0.57358 l -0.803572,0.23069 z"
       id="path4549"
       inkscape:connector-curvature="0"
       transform="translate(0,229.26665)" />
    <path
       style="opacity:1;fill:#ffb380;fill-opacity:1;stroke:#ffb380;stroke-width:0.289;stroke-linecap:round;stroke-miterlimit:4;stroke-dasharray:none;stroke-opacity:1"
       d="m 180.80132,38.765043 c -0.0788,-1.5295 -0.12386,-4.503296 -0.12485,-8.241215 l -0.002,-5.848215 0.625,-0.327451 c 0.34375,-0.180098 0.83841,-0.411513 1.09924,-0.514254 l 0.47424,-0.186803 -0.0497,0.60354 c -0.0273,0.331947 -0.0914,1.186129 -0.14239,1.898183 -0.12954,1.80885 -0.50977,6.130655 -0.67554,7.678571 -0.30418,2.840221 -0.90619,7.130473 -1.01861,7.259073 -0.0344,0.03936 -0.11805,-1.005279 -0.18587,-2.321429 z"
       id="path4551"
       inkscape:connector-curvature="0"
       transform="translate(0,229.26665)" />
    <path
       style="opacity:1;fill:#ffb380;fill-opacity:1;stroke:#ffb380;stroke-width:0.55599999;stroke-linecap:round;stroke-miterlimit:4;stroke-dasharray:none;stroke-opacity:1"
       d="m 156.40737,249.24756 c -0.70851,-0.48081 -1.77087,-1.40492 -2.3608,-2.05357 -0.94395,-1.03793 -1.07385,-1.44251 -1.08307,-3.37331 -0.0115,-2.40456 0.1812,-2.6275 2.27079,-2.6275 0.68114,0 1.65381,-0.37597 2.3815,-0.92054 1.96286,-1.46889 3.58917,-2.19494 5.96243,-2.66185 2.06518,-0.4063 2.41432,-0.37222 5.16978,0.50468 1.62527,0.51722 4.01826,1.32519 4.44473,1.68636 0.78416,0.66408 2.25563,5.67592 2.25866,6.84899 0.003,0.98475 -0.73057,1.04917 -3.01105,0.26457 -1.15452,-0.39722 -2.95169,-0.72221 -3.9937,-0.72221 -1.7087,0 -2.17761,0.19272 -4.77932,1.96429 -3.41422,2.32482 -5.07337,2.57394 -7.25995,1.09009 z"
       id="path4553"
       inkscape:connector-curvature="0"
       transform="translate(0,229.26665)"
       sodipodi:nodetypes="cccscsccccscc" />
    <path
       style="opacity:1;fill:#ffb380;fill-opacity:1;stroke:#ffb380;stroke-width:0.556;stroke-linecap:round;stroke-miterlimit:4;stroke-dasharray:none;stroke-opacity:1"
       d="m 131.52446,243.59659 v -5.35976 l 2.05357,0.19472 c 1.12947,0.1071 3.5,0.619 5.26786,1.13756 3.21586,0.94329 6.10049,1.4402 10.625,1.83024 l 2.41072,0.20783 v 1.58941 1.5894 l -0.98215,-0.72551 c -0.54018,-0.39904 -1.86607,-0.91049 -2.94643,-1.13656 -1.757,-0.36767 -2.3427,-0.3135 -5.55035,0.51334 -5.5951,1.44224 -7.66666,2.33013 -9.36036,4.01191 l -1.51786,1.50717 z"
       id="path4555"
       inkscape:connector-curvature="0"
       transform="translate(0,229.26665)" />
    <path
       style="opacity:1;fill:#ffb380;fill-opacity:1;stroke:#ffb380;stroke-width:0.556;stroke-linecap:round;stroke-miterlimit:4;stroke-dasharray:none;stroke-opacity:1"
       d="m 121.3015,253.36576 c -1.45808,-0.66213 -1.70698,-0.98956 -3.55187,-4.67258 -1.1652,-2.32611 -2.35542,-6.04446 -2.07832,-6.49281 0.13094,-0.21186 1.78271,-1.12226 3.67061,-2.02312 3.30224,-1.57575 3.57829,-1.64328 7.27183,-1.77908 l 3.83928,-0.14115 v 6.78823 6.78822 l -1.26242,1.10843 c -1.16519,1.02304 -1.46092,1.10782 -3.83929,1.10058 -1.74199,-0.005 -3.05408,-0.22455 -4.04982,-0.67672 z"
       id="path4557"
       inkscape:connector-curvature="0"
       transform="translate(0,229.26665)" />
    <path
       style="opacity:1;fill:#ffb380;fill-opacity:1;stroke:#ffb380;stroke-width:0.556;stroke-linecap:round;stroke-miterlimit:4;stroke-dasharray:none;stroke-opacity:1"
       d="m 114.02446,249.40176 c -3.80148,-2.90393 -6.39766,-3.13119 -8.99223,-0.78715 -0.76108,0.6876 -1.44403,1.18745 -1.51767,1.1108 -0.18869,-0.19643 -1.23773,-9.04106 -1.09019,-9.19159 0.0667,-0.068 1.12504,0.41141 2.35197,1.06536 2.16278,1.15274 2.34048,1.18567 5.82874,1.07993 l 3.59795,-0.10906 1.29041,3.68657 c 0.70972,2.02761 1.40995,3.96781 1.55606,4.31156 0.46772,1.10035 -0.59315,0.69129 -3.02504,-1.16642 z"
       id="path4559"
       inkscape:connector-curvature="0"
       transform="translate(0,229.26665)" />
    <path
       style="opacity:1;fill:#ff9955;fill-opacity:1;stroke:#ff9955;stroke-width:0.35500562;stroke-linecap:round;stroke-miterlimit:4;stroke-dasharray:none;stroke-opacity:1"
       d="m 105.01139,240.66713 c -0.93041,-0.69281 -1.93487,-1.25966 -2.23214,-1.25966 -0.29728,0 -0.54301,-0.2009 -0.54609,-0.44643 -0.0152,-1.21761 -1.56071,-11.21771 -2.663164,-17.23214 -0.684105,-3.73215 -1.68939,-10.32143 -2.233966,-14.64286 l -0.990138,-7.85714 v -23.03572 c 0,-21.65802 0.381858,-36.37561 1.603073,-61.78571 0.414068,-8.61562 0.419302,-37.289632 0.0078,-42.857146 -0.166951,-2.258929 -0.477594,-7.883929 -0.690318,-12.5 C 96.5396,43.277814 96.15211,38.074076 95.255571,32.045511 94.762283,28.728515 94.260773,25.325283 94.141103,24.482774 l -0.217581,-1.531836 2.818317,1.279036 c 7.081791,3.213926 11.558871,7.340564 19.933461,18.373208 5.17137,6.812732 8.50637,11.990085 11.03042,17.123942 2.00538,4.078918 2.29007,4.476707 3.62257,5.061839 4.15404,1.824129 14.19575,1.772454 17.03465,-0.08766 0.94612,-0.619922 3.84192,-5.965765 5.76955,-10.650979 3.08099,-7.488497 8.61929,-15.435745 14.39751,-20.659866 2.55258,-2.307798 7.86645,-6.232073 10.27327,-7.586779 l 1.38597,-0.780107 -0.19804,12.102662 c -0.12224,7.470673 -0.40805,13.811254 -0.74677,16.566947 -0.91892,7.476129 -1.30423,16.336182 -1.30461,29.999575 -3.1e-4,10.811454 0.15084,14.834114 0.88566,23.571854 2.11164,25.10941 2.48445,32.10516 2.50272,46.96429 0.0158,12.8234 -0.0665,14.96203 -0.80428,20.89285 -1.41019,11.33691 -2.55445,18.48705 -4.1723,26.07143 -2.52253,11.82547 -2.74058,13.69835 -2.91071,25 -0.0843,5.59822 -0.23333,10.68768 -0.33123,11.30993 l -0.17802,1.13136 -2.22146,-0.94081 c -1.8658,-0.79018 -2.76586,-0.94273 -5.62168,-0.95279 l -3.26628,0.43443 -3.69431,1.69643 c -2.0707,0.95087 -4.33945,1.875 -4.69146,1.875 -0.55558,0 -0.44747,-0.72718 -0.64934,-3.75 -0.79303,-11.87474 -3.37734,-34.05887 -5.54387,-47.5893 -4.85415,-30.3153 -5.18346,-38.15573 -2.87258,-68.39286 0.94592,-12.37706 1.2235,-20.45707 0.87328,-25.419629 -0.29597,-4.193696 -0.29973,-4.206996 -0.53847,-1.9018 -0.13223,1.276786 -0.25999,5.455357 -0.28392,9.285719 -0.0247,3.95006 -0.42797,11.52426 -0.93181,17.5 -1.27036,15.06706 -1.79541,30.6732 -1.27718,37.9612 0.4977,6.99928 1.77756,17.27795 3.44912,27.70026 1.94809,12.14657 2.60667,16.80925 3.54803,25.1197 1.09545,9.67094 2.66869,26.09525 2.6705,27.87955 l 10e-4,1.33929 h -2.09608 c -2.5571,0 -7.5735,-0.84358 -10.92192,-1.83667 -1.36526,-0.40492 -3.5349,-0.84035 -4.82143,-0.96763 l -2.33915,-0.23142 -0.0821,-3.92857 c -0.17134,-8.20075 -0.81565,-15.47795 -1.88144,-21.25 -1.91726,-10.3834 -3.50587,-20.9551 -4.2666,-28.39286 -1.16248,-11.36579 -1.47508,-44.23915 -0.55357,-58.21428 0.59127,-8.96699 0.67996,-15.17857 0.21671,-15.17857 -0.17434,0 -0.4251,2.29017 -0.55723,5.08928 -0.13213,2.79911 -0.49117,8.54464 -0.79786,12.76786 -0.37488,5.16209 -0.55601,12.53595 -0.55267,22.5 0.008,24.26714 0.76141,33.77148 4.38749,55.35714 2.45729,14.62795 2.91142,18.91034 2.76475,26.07143 l -0.10607,5.17857 -4.10714,0.19124 c -3.92107,0.18258 -4.24706,0.25944 -7.19548,1.69643 -1.69859,0.82785 -3.24906,1.50519 -3.44548,1.50519 -0.43427,0 -0.61357,-1.01598 -3.10473,-17.59254 -4.08587,-27.18806 -4.15415,-28.28466 -4.17472,-67.05032 -0.0153,-28.75658 0.22579,-39.26368 1.3467,-58.700845 0.57388,-9.951472 0.54722,-31.96754 -0.0415,-34.245582 -0.35945,-1.390965 -0.92135,-1.225943 -0.60803,0.178571 0.48813,2.188164 0.21239,26.930982 -0.40042,35.930921 -0.32577,4.784325 -0.76553,13.462905 -0.97725,19.285715 -0.51157,14.06932 -0.24308,75.85003 0.35333,81.30122 0.41451,3.78867 2.83567,20.57861 4.99561,34.64286 0.57317,3.73214 0.96378,6.86607 0.86803,6.96428 -0.0958,0.0982 -1.72802,0.2231 -3.62724,0.27753 l -3.45314,0.099 z m 58.68598,-59.29538 c -0.21862,-8.44643 -0.37293,-30.14285 -0.34289,-48.21428 0.0322,-19.39188 -0.0903,-34.393942 -0.29903,-36.607146 -0.25452,-2.698975 -0.36715,8.311776 -0.40184,39.285716 -0.0442,39.49694 0.1404,52.27226 0.91101,63.03571 l 0.28127,3.92857 0.1245,-3.03571 c 0.0685,-1.66964 -0.0544,-9.94643 -0.27302,-18.39286 z"
       id="path4561"
       inkscape:connector-curvature="0"
       transform="translate(0,229.26665)"
       sodipodi:nodetypes="cscsscsscssscssccccsccscssccsccccccssssscccssscccscsccsssssccsscccsscsccsscsccccsccssccs" />
  </g>
</svg>
