<?xml version="1.0" encoding="UTF-8" standalone="no"?>
<!-- Created with Inkscape (http://www.inkscape.org/) -->

<svg
   xmlns:dc="http://purl.org/dc/elements/1.1/"
   xmlns:cc="http://creativecommons.org/ns#"
   xmlns:rdf="http://www.w3.org/1999/02/22-rdf-syntax-ns#"
   xmlns:svg="http://www.w3.org/2000/svg"
   xmlns="http://www.w3.org/2000/svg"
   xmlns:sodipodi="http://sodipodi.sourceforge.net/DTD/sodipodi-0.dtd"
   xmlns:inkscape="http://www.inkscape.org/namespaces/inkscape"
   viewBox="0 0 256 256"
   version="1.1"
   id="svg8"
   inkscape:version="0.92.3 (2405546, 2018-03-11)"
   sodipodi:docname="torso_oriental_top.svg">
  <defs
     id="defs2" />
  <sodipodi:namedview
     id="base"
     pagecolor="#ffffff"
     bordercolor="#666666"
     borderopacity="1.0"
     inkscape:pageopacity="0.0"
     inkscape:pageshadow="2"
     inkscape:zoom="0.98994949"
     inkscape:cx="18.232014"
     inkscape:cy="238.57653"
     inkscape:document-units="px"
     inkscape:current-layer="layer1"
     showgrid="false"
     units="px"
     inkscape:window-width="1920"
     inkscape:window-height="1017"
     inkscape:window-x="1912"
     inkscape:window-y="-8"
     inkscape:window-maximized="1" />
  <metadata
     id="metadata5">
    <rdf:RDF>
      <cc:Work
         rdf:about="">
        <dc:format>image/svg+xml</dc:format>
        <dc:type
           rdf:resource="http://purl.org/dc/dcmitype/StillImage" />
        <dc:title></dc:title>
      </cc:Work>
    </rdf:RDF>
  </metadata>
  <g
     inkscape:label="Ebene 1"
     inkscape:groupmode="layer"
     id="layer1"
     transform="translate(0,-229.26663)">
    <g
       transform="matrix(0.25529395,0,0,0.25529395,6.6744666,-1411.556)"
       id="layer1-0"
       inkscape:label="Ebene 1">
      <path
         sodipodi:nodetypes="ccccsccsccsccscccccccsscsssccccccsccccc"
         inkscape:connector-curvature="0"
         id="path929"
         d="m 523.46957,7253.2065 c -9.66063,-1.6154 -22.20074,-7.1883 -39.76743,-17.6729 -25.52037,-15.2318 -46.80877,-26.5822 -49.03568,-26.1445 -0.98023,0.1926 -6.37961,-2.6639 -11.99865,-6.3477 -22.12755,-14.5071 -64.13887,-29.859 -94.67193,-34.5954 -26.23723,-4.0699 -79.11826,-5.5267 -101.5186,-2.7966 -6.34857,0.7737 -19.20515,3.2801 -28.57018,5.5697 -16.18949,3.958 -18.80353,4.199 -53.12526,4.8984 -22.00313,0.4484 -39.58537,0.1865 -45.029565,-0.6708 -9.602325,-1.491 -27.525905,-8.0295 -27.525905,-10.9953 0.457492,-3.7232 0.633612,-4.3254 2.788957,-16.9562 6.618938,-38.7885 12.815863,-71.1891 13.810376,-72.2075 0.587523,-0.6016 3.150529,0.1179 5.695566,1.5993 10.113351,5.8858 45.262541,8.8647 94.574201,8.0149 28.94461,-0.4988 37.85019,-1.1274 48.99613,-3.4586 7.49202,-1.567 18.83222,-3.8243 25.20044,-5.0163 8.75264,-1.6383 15.98564,-4.3419 29.63538,-11.0773 16.68489,-8.2332 19.02206,-9.8754 30.76128,-21.6146 l 12.70449,-12.7045 6.01774,1.1617 c 3.30976,0.639 6.39541,1.1885 6.857,1.2211 0.46159,0.034 2.79601,4.4355 5.18759,9.7841 8.99663,20.1206 18.55929,32.3308 40.82239,52.1247 32.86964,29.2241 41.95652,34.6884 68.93658,41.455 13.89428,3.4846 56.14711,10.5362 78.66458,13.1284 31.62917,3.6412 76.64499,5.2252 100.91798,3.5511 31.37527,-2.1638 37.6297,-3.7732 61.88431,-15.9241 l 20.79268,-10.4166 8.49431,0.9327 c 4.67185,0.513 10.80026,1.6099 13.61867,2.4375 5.61313,1.6484 9.12776,4.7905 7.02,6.2759 -0.71629,0.5048 -2.09704,2.4503 -3.06834,4.3233 -3.21676,6.2029 -6.56128,12.0191 -9.14897,15.9101 -1.40513,2.1129 -4.25008,7.213 -6.32206,11.3336 -2.07199,4.1207 -4.35058,8.4115 -5.06352,9.5353 -1.46317,2.3064 -12.98304,30.4038 -14.35147,35.0039 -1.7609,5.9192 -30.54455,14.8524 -96.10567,29.8269 -21.35225,4.877 -43.11318,9.4298 -48.3576,10.1174 -9.40814,1.2335 -43.10212,1.5004 -49.71982,0.3939 z"
         style="opacity:1;fill:#808080;fill-opacity:1;stroke:#808080;stroke-width:3.74804974;stroke-miterlimit:4;stroke-dasharray:none;stroke-opacity:1" />
      <path
         sodipodi:nodetypes="cscccssccsscscccccsscscccccscccccscccscscsssccccccccccccscsscscscscsscscccsssccccscscc"
         inkscape:connector-curvature="0"
         id="path923"
         d="m 525.36985,7259.3651 c -14.48073,-1.8452 -26.79661,-7.2447 -47.26631,-20.7222 -20.1275,-13.2521 -35.82256,-20.7738 -39.69547,-22.4755 -2.44853,-1.3892 -4.00055,-1.765 -8.64001,-4.483 -9.92282,-7.1977 -43.29893,-22.4263 -63.32264,-28.8923 -32.96014,-10.6435 -62.89874,-14.0695 -112.95163,-12.9258 -30.87156,0.7054 -35.63752,1.2875 -59.67318,7.2888 -17.6484,4.4064 -30.90699,5.53 -61.77226,4.941 l -28.53037,-0.5444 -17.930394,-5.1289 c -20.278033,-5.8004 -21.378981,-5.3502 -19.345357,-11.8877 0.685524,-2.2038 -0.108648,-0.6209 11.514387,4.4362 19.791902,8.6115 21.482827,8.7362 64.128594,8.0559 30.64755,-0.4889 39.86626,-1.0595 46.45524,-2.8752 21.09874,-5.814 29.95807,-7.4446 47.86389,-8.8095 24.22578,-1.8467 70.95002,0.1716 94.55972,4.0846 35.90928,5.9515 80.32027,25.2813 103.49825,40.2916 5.348,2.093 3.71622,5.2242 2.39756,3.7244 -1.31866,-1.4997 1.51678,-1.7867 -2.39756,-3.7244 -1.62482,-0.8043 27.76444,13.1203 47.09033,25.3279 28.86805,18.2352 38.29602,20.7559 73.32766,19.606 17.81145,-0.5847 24.24004,-1.3921 38.50645,-4.8359 9.41901,-2.2738 26.62283,-6.1782 38.23073,-8.6766 32.98811,-7.1001 65.65098,-16.0401 76.35062,-20.8975 l 9.77342,-4.437 3.0796,-9.0223 c 27.73941,-65.2603 35.68312,-63.6207 35.7268,-73.3724 -2.77505,-3.2125 -14.59585,-6.0698 -25.11115,-6.0698 -8.77519,0 -9.98369,0.37 -17.73734,5.4286 -10.40881,6.7911 -25.33023,13.4609 -36.05535,16.1168 -32.50851,8.0502 -115.19302,5.5626 -173.99483,-5.2349 -9.79577,-1.7988 -21.81788,-3.8846 -26.71574,-4.6352 -13.00944,-1.9937 -40.58008,-11.0227 -45.63924,-14.9463 -2.40195,-1.8628 -8.99103,-6.9698 -14.64245,-11.3491 -5.65142,-4.3792 -18.07589,-15.2461 -27.60997,-24.1486 -18.29657,-17.0846 -24.93641,-26.0663 -33.94548,-45.9178 l -4.39123,-9.6761 -7.7853,-1.405 c -7.59484,-1.3706 -7.85139,-1.3192 -10.48698,2.0995 -5.13235,6.6573 -17.86732,18.9565 -23.32904,22.5307 -5.5945,3.6612 -15.80986,8.8814 -29.70313,15.1789 -4.28038,1.9402 -12.29511,4.1217 -17.8105,4.8478 -5.51539,0.7262 -14.96012,2.4247 -20.98829,3.7746 -18.34075,4.107 -31.16057,5.2159 -60.30457,5.2159 -30.48177,0 -70.26538,-3.0457 -79.158,-6.06 -3.093997,-1.0488 -6.344586,-1.22 -7.686527,-2.3868 -7.234091,-3.056 -6.386255,0.9907 -7.045056,3.8784 -6.155875,33.8556 -11.991037,54.387 -14.177047,80.3339 -1.554125,7.8511 -0.520662,10.5576 -5.441231,2.8226 -1.263054,-1.9634 10.547923,-68.7113 15.127328,-83.8319 l 1.745896,-6.1021 -3.139696,-1.7732 c -8.621722,-2.4467 -23.481676,-10.2961 -30.013663,-15.854 -3.202588,-2.725 -7.965129,-8.4268 -10.583409,-12.6706 -2.618291,-4.2438 -5.195199,-8.0215 -5.726456,-8.3948 -2.56907,-1.805 -13.675106,-26.5094 -14.784138,-32.8858 -0.6925,-3.9817 -3.514066,-14.9396 -6.270131,-24.3508 -6.1837905,-21.1161 -8.8051257,-42.5818 -8.8405688,-72.3943 -0.048226,-40.5106 5.3511502,-65.5048 22.3997268,-103.6914 5.745775,-12.8699 10.44687,-23.9463 10.44687,-24.6145 0,-0.6681 0.770647,-1.6884 1.712549,-2.2673 0.941901,-0.579 3.870356,-5.4577 6.50768,-10.8417 2.637324,-5.3839 7.107073,-13.2521 9.93278,-17.4848 2.825703,-4.2327 5.13764,-8.0133 5.13764,-8.4014 0,-1.7968 27.120675,-31.5226 35.971889,-39.4273 14.273994,-12.7474 32.518594,-26.6361 48.285464,-36.7573 14.16383,-9.0922 44.63616,-24.4321 53.73828,-27.0521 4.50698,-1.2973 16.91971,0.2392 94.91672,11.7497 49.3524,7.2831 156.31552,23.0494 237.69578,35.0361 278.8919,41.0786 325.85209,48.0424 326.15294,48.3657 1.46554,1.5746 107.46417,166.8734 107.46417,167.5842 0,0.5164 -7.22109,10.7756 -16.04674,22.7982 -8.82576,12.0225 -25.54214,34.8902 -37.14748,50.8169 -11.60545,15.9267 -23.65056,31.5357 -26.76697,34.6866 -3.11644,3.1508 -15.83874,14.1758 -28.27183,24.4997 -25.82869,21.4472 -40.00776,35.2574 -55.9998,54.5431 -14.43748,17.411 -34.42275,46.447 -34.42275,50.0118 0,1.521 -0.77064,2.7668 -1.71254,2.7683 -1.87239,0 -18.31038,28.2527 -26.80519,46.0663 -6.0834,12.7569 -11.55812,27.9523 -10.99405,30.5148 0.20978,0.9534 -0.74928,3.3624 -2.13148,5.3532 -1.85839,2.6767 -3.6418,3.6197 -6.84581,3.6197 -2.38299,0 -5.68102,0.9074 -7.32899,2.0163 -6.48282,4.3625 -40.38834,13.4631 -77.76066,20.8719 -12.80984,2.5394 -29.85435,6.1152 -37.87667,7.9462 -22.889,5.2241 -51.45307,7.3369 -68.98631,5.1027 z"
         style="fill:#000000;fill-opacity:1;stroke:none;stroke-width:1.3428793;stroke-opacity:1" />
      <path
         sodipodi:nodetypes="cccscccccsccsscccccccscccccsccccsccscccccccccccccccscccccsccccccccccccccccccccscsssccccccccccccccscssccsccccccccscccc"
         id="path921"
         d="m 654.54994,7147.0238 c 21.99474,-2.2773 44.46605,-9.483 54.77654,-17.565 6.38636,-5.006 14.56967,-9.0715 15.11219,-7.5078 0.29331,0.8456 4.15133,1.4413 9.33438,1.4413 5.33885,0 12.20023,1.0894 17.34128,2.7533 7.95294,2.574 8.59699,2.6069 9.88952,0.5047 6.32793,-10.2918 26.15023,-37.7394 34.19749,-47.3526 17.95448,-21.4485 39.86378,-42.1 67.78715,-63.8957 5.38127,-4.2003 5.81517,-4.9516 4.36416,-7.5564 -0.88617,-1.5908 -5.13751,-5.3459 -9.44754,-8.3448 -13.56733,-9.4401 -24.82707,-20.8808 -29.0855,-29.5531 -2.16005,-4.3989 -4.8902,-8.7658 -6.06693,-9.704 -1.17677,-0.9383 -2.13957,-2.4142 -2.13957,-3.2797 0,-4.0854 -52.3244,-50.8979 -75.4358,-67.4893 -14.06763,-10.099 -40.34276,-25.0182 -52.66279,-29.9023 -6.7817,-2.6885 -23.03241,-8.0523 -36.11275,-11.9196 -54.63428,-16.1528 -97.49783,-18.0523 -147.8652,-6.5525 -49.08759,11.2075 -92.91448,38.364 -137.12582,84.9675 -8.38504,8.8387 -16.93985,18.6471 -19.01067,21.7964 -2.10026,3.1941 -4.82533,5.7271 -6.16272,5.7284 -2.6198,0 -3.27798,3.273 -0.93829,4.6623 0.95487,0.5669 0.64205,1.7341 -0.90495,3.3764 -4.97691,5.2835 -0.58706,3.5614 7.84346,-3.0769 35.10502,-27.6424 102.49875,-60.8582 131.68864,-64.9042 9.27689,-1.2859 8.21512,1.2503 -1.37008,3.2724 -24.4762,5.1638 -71.28703,26.7445 -107.8905,49.7396 -18.17648,11.4189 -29.03125,19.7097 -29.87797,22.8205 -0.38023,1.3969 -1.67385,2.5399 -2.87467,2.5399 -2.61216,0 -2.64045,0.2284 -0.56925,4.5958 1.12825,2.3791 2.26226,3.1291 3.7676,2.4921 5.28009,-2.2344 32.51184,-8.7227 49.11284,-11.7018 21.65143,-3.8853 41.45671,-6.2716 81.13929,-9.7763 50.01651,-4.4173 50.69138,-4.4564 50.69138,-2.9355 0,1.8516 -1.48251,2.0629 -52.74647,7.5179 -24.11265,2.5659 -52.16417,5.8537 -62.33674,7.3063 -23.57768,3.3666 -60.57812,11.182 -68.24799,14.4155 l -5.91127,2.4921 3.85621,4.6432 c 3.75501,4.5214 4.10885,4.6433 13.48241,4.6433 14.57723,1e-4 30.66412,2.2918 50.52383,7.1975 27.19465,6.7176 63.21391,18.5977 75.48375,24.8965 15.87021,8.147 26.9153,15.2325 25.98919,16.6722 -1.38262,2.1493 -3.54065,1.4289 -13.54387,-4.5213 -19.83861,-11.8006 -35.97311,-17.9412 -78.01872,-29.6931 -27.88924,-7.7951 -55.54093,-11.7729 -69.24854,-9.9616 -6.56618,0.8676 -6.75812,1.0126 -5.32981,4.0243 1.07779,2.2727 3.94946,3.8829 10.53503,5.9072 11.51715,3.5403 25.76342,10.0938 37.13915,17.0845 8.29797,5.0994 55.57389,49.6986 54.14077,51.0755 -1.77631,1.7065 -14.10352,-7.9269 -26.48171,-20.6949 -20.48885,-21.1342 -35.97018,-31.6988 -60.80494,-41.494 -12.8904,-5.0842 -18.34553,-5.9666 -17.06489,-2.7603 0.92676,2.3203 -0.34747,2.8918 -45.69191,20.4908 -38.86548,15.0845 -65.05925,22.2757 -84.25735,23.1318 -15.68595,0.6995 -12.78684,-0.5764 13.70038,-6.0294 26.83906,-5.5255 38.41561,-9.1944 78.7772,-24.9666 24.22747,-9.4675 33.46054,-13.6566 33.18709,-15.0573 -0.20836,-1.0674 0.25402,-2.3164 1.02753,-2.7757 0.77351,-0.4593 1.40567,-1.2444 1.40481,-1.7446 -8.5e-4,-0.5002 -22.96611,-0.857 -51.03392,-0.7927 -57.89039,0.1324 -66.95283,1.1908 -89.35343,10.4344 -6.50807,2.6855 -12.1791,4.5502 -12.6023,4.1435 -1.15354,-1.1082 11.44298,-8.4263 19.47208,-11.3124 19.02933,-6.8403 40.1241,-8.4229 93.38725,-7.0063 l 37.27527,0.9915 -0.73648,-2.8131 c -0.50465,-1.9276 0.19155,-3.4376 2.2116,-4.797 l 2.94809,-1.9838 -4.55091,-3.2846 c -20.03292,-14.4584 -87.0676,-32.6588 -132.39558,-35.9462 -6.96822,-0.5054 -12.99494,-1.4248 -13.39274,-2.0432 -1.37819,-2.1425 27.89819,-1.1307 44.17108,1.5265 40.01709,6.5343 76.51622,17.211 95.56768,27.9552 l 6.72158,3.7907 2.77255,-2.6637 c 2.40474,-2.3104 2.55128,-3.1303 1.10459,-6.1809 -1.40105,-2.9542 -1.30059,-3.9071 0.62772,-5.9542 1.89771,-2.0147 1.98961,-2.7916 0.53008,-4.4811 -1.44347,-1.671 -1.42882,-2.6486 0.0803,-5.3577 2.93284,-5.2649 -0.75529,-12.5032 -21.64688,-42.4838 -18.48429,-26.5259 -19.13025,-27.2635 -41.41028,-47.2878 -20.9265,-18.8078 -47.68885,-39.7671 -50.77753,-39.7671 -0.72126,0 -1.31138,-0.551 -1.31138,-1.2244 0,-1.6194 6.77507,0.2838 11.81398,3.3188 14.27776,8.5995 59.23627,47.0766 67.81396,58.0375 9.39739,12.0084 35.54442,50.3172 37.74864,55.3067 1.21464,2.7495 2.47068,4.2854 2.7912,3.4131 0.3205,-0.8723 -0.33347,-3.5377 -1.45329,-5.9231 -1.11983,-2.3855 -3.38108,-10.5565 -5.02502,-18.158 -7.79365,-36.0372 -20.84791,-67.4932 -35.98172,-86.7029 -18.12746,-23.0095 -44.97392,-49.3636 -63.59245,-62.4259 -8.74412,-6.1347 -36.98099,-19.0857 -51.79135,-23.7543 -24.9538,-7.8661 -59.66114,-12.5945 -95.841343,-13.0572 l -24.265637,-0.3105 -3.212985,3.8526 c -4.075522,4.8868 -15.99739,26.9888 -19.22168,35.6352 -1.349814,3.6197 -3.546645,7.7659 -4.881842,9.2138 -5.601373,6.0741 -21.210973,48.0715 -25.439843,68.4455 -1.993652,9.6051 -2.451724,18.3209 -2.421227,46.069 0.02369,21.6069 0.654166,37.1341 1.710136,42.1203 0.919899,4.3437 2.254001,12.0438 2.964667,17.1114 2.056044,14.6611 13.298646,50.2073 19.249983,60.8634 7.664816,13.7242 19.640634,28.7333 26.007626,32.5948 3.023607,1.8338 8.605184,4.511 12.403519,5.9494 3.798334,1.4384 9.408518,3.8418 12.467088,5.3409 18.879518,9.2536 104.189448,13.4789 139.728538,6.9208 6.29442,-1.1616 13.91048,-2.2908 16.92456,-2.5095 32.54951,-2.3612 39.25615,-4.2886 58.76401,-16.8884 16.60403,-3.801 27.30569,-26.2982 31.90639,-29.2017 2.06237,-1.2498 14.611,0.6744 22.07971,3.519 3.86381,9.244 9.72877,23.5827 21.70692,40.2712 3.29048,4.4774 7.98391,9.496 10.42991,11.1524 2.44596,1.6565 9.85409,7.5801 16.46247,13.1635 26.74839,22.5996 37.79031,28.5313 66.07694,35.4963 43.8458,10.7962 77.30274,15.2501 136.31879,18.1472 31.56834,1.5498 34.55174,1.553 49.03286,0.053 z"
         style="fill:#ff8080;stroke-width:1.3428793"
         inkscape:connector-curvature="0" />
      <path
         id="path919"
         d="m 665.30541,7119.4402 c 1.98323,-1.8226 32.13806,-10.377 41.59452,-11.7996 19.05055,-2.866 47.0378,-0.3277 51.99971,4.7163 1.94261,1.9747 1.72226,2.0849 -2.67835,1.3388 -2.63732,-0.4471 -7.56947,-1.3841 -10.9603,-2.0821 -15.66898,-3.2257 -35.65631,-1.5391 -66.94023,5.6485 -7.80659,1.7936 -13.66348,2.7738 -13.01535,2.1781 z"
         style="fill:#000000;stroke-width:1.3428793"
         inkscape:connector-curvature="0" />
      <path
         id="path917"
         d="m 763.74025,7049.8969 c -11.14818,-4.2277 -21.21933,-9.4426 -21.21933,-10.9875 0,-1.5289 0.77301,-1.3838 7.96625,1.496 3.53055,1.4134 11.49401,4.4138 17.69661,6.6676 6.2026,2.2537 11.63349,4.6512 12.06868,5.3276 1.53854,2.3917 -7.02904,1.0926 -16.51221,-2.5037 z"
         style="fill:#000000;stroke-width:1.3428793"
         inkscape:connector-curvature="0" />
      <path
         id="path915"
         d="m 819.92806,7001.5059 c -3.76759,-3.1927 -14.10645,-10.6158 -22.97524,-16.4957 -15.88883,-10.5341 -18.36476,-12.5387 -17.04882,-13.803 0.89979,-0.8645 30.32448,16.9934 36.48219,22.1411 5.22176,4.3653 11.90097,12.5548 10.95736,13.4351 -0.31085,0.2902 -3.64787,-2.0849 -7.41549,-5.2775 z"
         style="fill:#000000;stroke-width:1.3428793"
         inkscape:connector-curvature="0" />
      <path
         id="path913"
         d="m 331.42679,6968.4403 c -1.83834,-1.2129 -8.27457,-6.1277 -14.30274,-10.9217 -15.38612,-12.2359 -24.23782,-18.5177 -49.32138,-35.0019 -61.2439,-40.2479 -78.01184,-47.7273 -116.68051,-52.0456 l -14.84316,-1.6575 8.22023,-1.0714 c 17.59901,-2.2936 45.85833,3.8137 66.97421,14.4742 28.97564,14.6286 104.64155,66.7258 120.62115,83.0496 4.60471,4.7039 4.2446,6.4157 -0.6678,3.1743 z"
         style="fill:#000000;stroke-width:1.3428793"
         inkscape:connector-curvature="0" />
      <path
         id="path839"
         d="m 885.61222,6997.8514 c 3.91874,-3.8093 73.27816,-98.5483 73.35554,-100.1974 0.0343,-0.724 -23.50284,-37.9113 -52.30407,-82.6384 -36.83747,-57.2073 -53.19597,-81.5034 -55.16527,-81.9333 -1.5398,-0.336 -67.22561,-10.065 -145.96852,-21.6197 -78.74295,-11.5548 -223.90009,-32.9158 -322.57144,-47.469 l -179.40244,-26.4603 -6.23775,2.2315 c -19.67027,7.0367 -52.91883,26.0448 -74.73965,42.7283 -14.3005,10.9338 -35.978533,31.13 -45.866212,42.731 l -7.853043,9.2138 21.03428,0.2979 c 60.333265,0.8549 114.275785,14.0119 149.948055,36.5736 11.84325,7.4905 43.87736,37.6324 59.62187,56.1001 10.34096,12.1296 22.51605,31.8474 28.84425,46.7139 3.94182,9.2603 9.85762,28.5213 13.49333,43.9324 l 2.95,12.5045 0.85891,-14.4789 c 0.86506,-14.5823 4.80698,-37.3137 8.78019,-50.6314 2.77295,-9.2947 15.64074,-36.8327 20.86761,-44.6584 2.23008,-3.3388 5.58711,-9.3997 7.46012,-13.4686 1.873,-4.069 5.38592,-10.4904 7.80655,-14.27 l 4.40111,-6.872 -0.80993,-14.6834 c -0.44545,-8.0759 -1.68298,-17.8155 -2.75002,-21.6436 -1.32918,-4.7684 -1.45981,-6.8133 -0.41482,-6.4939 2.69395,0.8232 6.51032,14.437 7.27696,25.9585 l 0.74448,11.1881 13.87741,-13.2566 c 16.66424,-15.9188 23.72174,-21.2485 25.66492,-19.3816 0.9345,0.8979 -3.10187,5.3101 -12.39219,13.5462 -17.99789,15.9556 -26.57459,26.3011 -37.10625,44.7591 -4.75026,8.3253 -10.0324,17.2101 -11.73812,19.7439 -1.70575,2.5338 -6.5131,12.307 -10.68308,21.7183 -10.30174,23.2501 -15.90502,49.5404 -15.90502,74.6255 v 17.2352 l 8.41171,-9.0752 c 32.90516,-35.5002 67.75074,-62.6574 101.09833,-78.7917 21.37899,-10.3437 57.25362,-19.2701 87.62932,-21.8041 39.63779,-3.3067 93.39097,4.5652 135.65257,19.8657 13.75182,4.9788 46.32533,22.0945 58.36815,30.6695 3.19028,2.2717 9.73264,6.877 14.53851,10.2341 9.74363,6.8063 45.63245,37.0218 55.67847,46.8768 3.57005,3.5021 9.21472,9.5283 12.54377,13.3915 7.27196,8.4388 6.33537,9.1545 17.99658,-13.7511 9.3467,-18.3589 16.73107,-39.0644 19.9379,-55.905 1.24142,-6.5191 2.7953,-11.853 3.45319,-11.853 1.52569,0 1.54652,-0.3635 -0.86092,14.9824 -3.98423,25.3955 -11.79944,49.7364 -22.8943,71.3047 -5.06885,9.8537 -5.07023,9.7382 0.23571,20.3299 0.54405,1.0859 5.86517,5.8795 11.82469,10.6523 5.95953,4.7729 13.56145,11.3871 16.89324,14.6983 l 6.05778,6.0203 2.74144,-3.3483 c 1.50772,-1.8416 4.03488,-4.6057 5.61591,-6.1426 z"
         style="fill:#808080;fill-opacity:1;stroke-width:1.3428793"
         inkscape:connector-curvature="0" />
    </g>
  </g>
</svg>
